<svg width="23" height="23" viewBox="0 0 23 23" fill="none" xmlns="http://www.w3.org/2000/svg">
<g clip-path="url(#clip0)">
<path d="M20.7454 2.90151H20.4826V4.21053C20.4826 4.58248 20.1807 4.88436 19.8088 4.88436C19.4363 4.88436 19.1349 4.58248 19.1349 4.21053V2.90151H17.1593V4.21053C17.1593 4.58248 16.8574 4.88436 16.4854 4.88436C16.113 4.88436 15.8116 4.58248 15.8116 4.21053V2.90151H13.8359V4.21053C13.8359 4.58248 13.5341 4.88436 13.1621 4.88436C12.7902 4.88436 12.4883 4.58248 12.4883 4.21053V2.90151H10.5117V4.21053C10.5117 4.58248 10.2098 4.88436 9.83789 4.88436C9.46594 4.88436 9.16406 4.58248 9.16406 4.21053V2.90151H7.1884V4.21053C7.1884 4.58248 6.88697 4.88436 6.51457 4.88436C6.14262 4.88436 5.84074 4.58248 5.84074 4.21053V2.90151H3.86508V4.21053C3.86508 4.58248 3.56365 4.88436 3.19125 4.88436C2.8193 4.88436 2.51742 4.58248 2.51742 4.21053V2.90151H2.25418C1.01119 2.90151 0 3.9127 0 5.15614V6.49526H23V5.15614C23 3.9127 21.9884 2.90151 20.7454 2.90151Z" fill="white"/>
<path d="M10.829 16.3066V18.475H12.1708V16.3066C12.1708 15.9347 12.4722 15.6328 12.8446 15.6328H15.0126V14.2914H12.8446C12.4722 14.2914 12.1708 13.9896 12.1708 13.6176V11.4492H10.829V13.6176C10.829 13.9896 10.5271 14.2914 10.1552 14.2914H7.98633V15.6328H10.1552C10.5271 15.6328 10.829 15.9347 10.829 16.3066Z" fill="white"/>
<path d="M0 19.8267C0 21.0702 1.01119 22.0813 2.25418 22.0813H20.7454C21.9884 22.0813 23 21.0702 23 19.8267V7.84291H0V19.8267ZM6.639 13.6176C6.639 13.2452 6.94088 12.9438 7.31283 12.9438H9.48166V10.7754C9.48166 10.403 9.78309 10.1016 10.1555 10.1016H12.845C13.2169 10.1016 13.5188 10.403 13.5188 10.7754V12.9438H15.6867C16.0587 12.9438 16.3605 13.2452 16.3605 13.6176V16.3066C16.3605 16.679 16.0587 16.9805 15.6867 16.9805H13.5188V19.1488C13.5188 19.5213 13.2169 19.8227 12.845 19.8227H10.1555C9.78309 19.8227 9.48166 19.5213 9.48166 19.1488V16.9805H7.31283C6.94088 16.9805 6.639 16.679 6.639 16.3066V13.6176Z" fill="white"/>
<path d="M10.5117 1.59248C10.5117 1.22053 10.2098 0.918654 9.83789 0.918654C9.46594 0.918654 9.16406 1.22053 9.16406 1.59248V2.90151H10.5117V1.59248Z" fill="white"/>
<path d="M7.18848 1.59248C7.18848 1.22053 6.88705 0.918654 6.51465 0.918654C6.1427 0.918654 5.84082 1.22053 5.84082 1.59248V2.90151H7.18848V1.59248Z" fill="white"/>
<path d="M3.86523 1.59248C3.86523 1.22053 3.56381 0.918654 3.19141 0.918654C2.81945 0.918654 2.51758 1.22053 2.51758 1.59248V2.90151H3.86523V1.59248Z" fill="white"/>
<path d="M20.4824 1.59248C20.4824 1.22053 20.1805 0.918654 19.8086 0.918654C19.4362 0.918654 19.1348 1.22053 19.1348 1.59248V2.90151H20.4824V1.59248Z" fill="white"/>
<path d="M17.1592 1.59248C17.1592 1.22053 16.8573 0.918654 16.4854 0.918654C16.1129 0.918654 15.8115 1.22053 15.8115 1.59248V2.90151H17.1592V1.59248Z" fill="white"/>
<path d="M13.8359 1.59248C13.8359 1.22053 13.5341 0.918654 13.1621 0.918654C12.7902 0.918654 12.4883 1.22053 12.4883 1.59248V2.90151H13.8359V1.59248Z" fill="white"/>
</g>
<defs>
<clipPath id="clip0">
<rect width="23" height="23" fill="white"/>
</clipPath>
</defs>
</svg>
