<svg width="17" height="23" viewBox="0 0 17 23" fill="none" xmlns="http://www.w3.org/2000/svg">
<path d="M16.7412 0.760276C16.5685 0.476324 16.3359 0.268671 16.044 0.136944C15.858 0.0458434 15.6632 0.000212977 15.4595 0.000212977V0H1.54054C1.33693 0 1.14226 0.0456304 0.956276 0.136731C0.664141 0.268351 0.431643 0.47627 0.259013 0.760063C0.0864308 1.04385 0 1.35789 0 1.70254V21.2975C0 21.6422 0.0864308 21.9561 0.259013 22.2402C0.431643 22.5239 0.664141 22.7318 0.956276 22.8634C1.14207 22.9545 1.33693 23 1.54054 23C1.95684 23 2.3241 22.8327 2.64293 22.4985L8.50005 16.0527L14.3572 22.4987C14.6671 22.8225 15.0346 22.9847 15.4594 22.9847C15.6808 22.9847 15.8757 22.9444 16.0439 22.8633C16.3359 22.7318 16.5684 22.5239 16.7412 22.2398C16.9138 21.9561 17 21.6421 17 21.2974V1.70275C17 1.3581 16.9136 1.04407 16.7412 0.760276Z" fill="#005450"/>
</svg>
