<?xml version="1.0" encoding="UTF-8"?>
<svg xmlns="http://www.w3.org/2000/svg" xmlns:xlink="http://www.w3.org/1999/xlink" width="23pt" height="23pt" viewBox="0 0 23 23" version="1.1">
<defs>
<clipPath id="clip1">
  <path d="M 0.957031 0.957031 L 22.042969 0.957031 L 22.042969 22.042969 L 0.957031 22.042969 Z M 0.957031 0.957031 "/>
</clipPath>
</defs>
<g id="surface1">
<g clip-path="url(#clip1)" clip-rule="nonzero">
<path style=" stroke:none;fill-rule:nonzero;fill:rgb(0%,32.941176%,31.372549%);fill-opacity:1;" d="M 20.25 13.582031 C 20.082031 13.160156 19.601562 12.957031 19.179688 13.128906 C 18.757812 13.296875 18.554688 13.777344 18.726562 14.199219 L 19.695312 16.597656 L 16.8125 15.328125 C 16.605469 15.238281 16.367188 15.234375 16.160156 15.324219 C 15.175781 15.746094 14.121094 15.957031 13.023438 15.957031 C 8.613281 15.957031 5.652344 12.507812 5.652344 9.28125 C 5.652344 5.601562 8.960938 2.605469 13.023438 2.605469 C 17.089844 2.605469 20.394531 5.601562 20.394531 9.28125 C 20.394531 9.570312 20.367188 9.914062 20.320312 10.226562 C 20.253906 10.675781 20.566406 11.09375 21.015625 11.160156 C 21.464844 11.230469 21.882812 10.917969 21.949219 10.46875 C 22.007812 10.074219 22.042969 9.652344 22.042969 9.28125 C 22.042969 7.042969 21.09375 4.945312 19.375 3.371094 C 17.675781 1.816406 15.417969 0.957031 13.023438 0.957031 C 10.628906 0.957031 8.375 1.816406 6.671875 3.371094 C 5.136719 4.777344 4.214844 6.605469 4.039062 8.574219 C 2.105469 9.855469 0.957031 11.90625 0.957031 14.117188 C 0.957031 15.496094 1.394531 16.804688 2.222656 17.933594 L 1.019531 20.910156 C 0.890625 21.21875 0.96875 21.578125 1.207031 21.808594 C 1.363281 21.960938 1.570312 22.042969 1.78125 22.042969 C 1.894531 22.042969 2.007812 22.019531 2.113281 21.972656 L 5.582031 20.441406 C 6.453125 20.769531 7.378906 20.933594 8.328125 20.933594 C 8.351562 20.933594 8.371094 20.929688 8.390625 20.929688 C 9.765625 20.917969 11.105469 20.554688 12.265625 19.878906 C 13.304688 19.273438 14.15625 18.4375 14.757812 17.453125 C 15.339844 17.347656 15.914062 17.1875 16.46875 16.976562 L 20.886719 18.925781 C 20.992188 18.972656 21.105469 18.996094 21.21875 18.996094 C 21.429688 18.996094 21.636719 18.914062 21.792969 18.761719 C 22.03125 18.527344 22.109375 18.171875 21.980469 17.863281 Z M 8.328125 19.28125 C 8.316406 19.28125 8.308594 19.285156 8.296875 19.285156 C 7.453125 19.28125 6.644531 19.113281 5.890625 18.792969 C 5.679688 18.703125 5.441406 18.703125 5.234375 18.796875 L 3.304688 19.648438 L 3.925781 18.109375 C 4.042969 17.824219 3.988281 17.5 3.789062 17.265625 C 3.015625 16.355469 2.605469 15.265625 2.605469 14.117188 C 2.605469 12.800781 3.160156 11.550781 4.128906 10.605469 C 4.429688 12.25 5.28125 13.824219 6.5625 15.058594 C 8.160156 16.597656 10.273438 17.488281 12.554688 17.59375 C 11.484375 18.648438 9.953125 19.28125 8.328125 19.28125 Z M 8.328125 19.28125 "/>
</g>
<path style=" stroke:none;fill-rule:nonzero;fill:rgb(0%,32.941176%,31.372549%);fill-opacity:1;" d="M 13.804688 9.316406 C 13.804688 9.773438 13.4375 10.140625 12.984375 10.140625 C 12.527344 10.140625 12.160156 9.773438 12.160156 9.316406 C 12.160156 8.863281 12.527344 8.492188 12.984375 8.492188 C 13.4375 8.492188 13.804688 8.863281 13.804688 9.316406 Z M 13.804688 9.316406 "/>
<path style=" stroke:none;fill-rule:nonzero;fill:rgb(0%,32.941176%,31.372549%);fill-opacity:1;" d="M 17.101562 9.316406 C 17.101562 9.773438 16.730469 10.140625 16.277344 10.140625 C 15.820312 10.140625 15.453125 9.773438 15.453125 9.316406 C 15.453125 8.863281 15.820312 8.492188 16.277344 8.492188 C 16.730469 8.492188 17.101562 8.863281 17.101562 9.316406 Z M 17.101562 9.316406 "/>
<path style=" stroke:none;fill-rule:nonzero;fill:rgb(0%,32.941176%,31.372549%);fill-opacity:1;" d="M 10.511719 9.316406 C 10.511719 9.773438 10.144531 10.140625 9.6875 10.140625 C 9.234375 10.140625 8.863281 9.773438 8.863281 9.316406 C 8.863281 8.863281 9.234375 8.492188 9.6875 8.492188 C 10.144531 8.492188 10.511719 8.863281 10.511719 9.316406 Z M 10.511719 9.316406 "/>
</g>
</svg>
