<svg width="75" height="75" viewBox="0 0 75 75" fill="none" xmlns="http://www.w3.org/2000/svg">
<path d="M5.85938 48.0469H41.0156V71.4844H5.85938V48.0469Z" fill="#804913"/>
<path d="M11.7188 55.0781H35.1562V62.1094H11.7188V55.0781Z" fill="#FAA231"/>
<path d="M7.03125 45.7031V30.1553C7.03124 29.5589 7.21325 28.9767 7.55296 28.4865C7.89267 27.9963 8.37389 27.6215 8.93232 27.4121L16.4062 24.6094H23.4375L30.9114 27.4121C31.4699 27.6215 31.9511 27.9963 32.2908 28.4865C32.6305 28.9767 32.8125 29.5589 32.8125 30.1553V45.7031H7.03125Z" fill="#25B1FA"/>
<path d="M3.51562 44.5312H43.3594V49.2188H3.51562V44.5312Z" fill="#FAA231"/>
<path d="M19.9219 38.6719H11.7188C11.4079 38.6719 11.1099 38.5484 10.8901 38.3286C10.6703 38.1089 10.5469 37.8108 10.5469 37.5V33.9844H12.8906V36.3281H19.9219V38.6719Z" fill="#127BB3"/>
<path d="M24.6094 24.6094L19.9219 29.2969L15.2344 24.6094L17.5781 19.9219H22.2656L24.6094 24.6094Z" fill="#FFD4CF"/>
<path d="M22.2652 19.9219H17.5777L16.4287 22.2199L17.5098 22.8686C18.2383 23.3057 19.0719 23.5366 19.9215 23.5366C20.7711 23.5366 21.6047 23.3057 22.3332 22.8686L23.4143 22.2199L22.2652 19.9219Z" fill="#FBB8B0"/>
<path d="M25.7812 8.20312H14.0625V17.0912C14.0625 17.5971 14.1935 18.0944 14.4428 18.5347C14.692 18.9749 15.051 19.3431 15.4849 19.6034L18.4146 21.3612C18.8699 21.6344 19.3909 21.7787 19.9219 21.7787C20.4529 21.7787 20.9739 21.6344 21.4292 21.3612L24.3589 19.6034C24.7927 19.3431 25.1517 18.9749 25.401 18.5347C25.6502 18.0944 25.7813 17.5971 25.7812 17.0912V8.20312Z" fill="#FFD4CF"/>
<path d="M25.725 9.375H21.0938V4.6875L24.734 5.30464C25.3679 5.46311 25.9306 5.82892 26.3327 6.34391C26.7347 6.8589 26.9531 7.49351 26.9531 8.14688C26.9531 8.47259 26.8237 8.78497 26.5934 9.01529C26.3631 9.24561 26.0507 9.375 25.725 9.375Z" fill="#804913"/>
<path d="M15.2344 24.6094L19.9219 29.2969L12.8906 30.4688L15.2344 24.6094Z" fill="#B3E9FF"/>
<path d="M24.6094 24.6094L19.9219 29.2969L26.9531 30.4688L24.6094 24.6094Z" fill="#B3E9FF"/>
<path d="M11.7188 6.44531V3.51562H19.3359C20.1129 3.51562 20.8581 3.82429 21.4075 4.37371C21.957 4.92313 22.2656 5.66831 22.2656 6.44531V9.375H14.6484C13.8714 9.375 13.1263 9.06634 12.5768 8.51691C12.0274 7.96749 11.7188 7.22231 11.7188 6.44531Z" fill="#FAA231"/>
<path d="M65.625 56.25L64.4531 55.0781H53.9062L50.3906 56.25L49.2188 62.1094H59.7656V66.7969H56.8359C55.7485 66.7981 54.706 67.2306 53.9371 67.9996C53.1681 68.7685 52.7356 69.811 52.7344 70.8984V71.4844H55.0781V70.8984C55.0786 70.4324 55.264 69.9856 55.5935 69.656C55.9231 69.3265 56.3699 69.1411 56.8359 69.1406H65.0391C65.5051 69.1411 65.9519 69.3265 66.2815 69.656C66.611 69.9856 66.7964 70.4324 66.7969 70.8984V71.4844H69.1406V70.8984C69.1394 69.811 68.7069 68.7685 67.9379 67.9996C67.169 67.2306 66.1265 66.7981 65.0391 66.7969H62.1094V62.1094H67.0898C68.2553 62.1094 69.3731 61.6464 70.1972 60.8222C71.0214 59.9981 71.4844 58.8803 71.4844 57.7148V56.25H65.625Z" fill="#804913"/>
<path d="M67.9688 49.2188L66.7969 48.0469H53.9062L52.8012 49.2188C51.4568 49.2188 50.1533 49.6811 49.1093 50.5281C48.0653 51.3752 47.3444 52.5555 47.0675 53.8711L43.3594 71.4844H49.2188L53.9062 56.25H65.0391C65.4238 56.25 65.8048 56.1742 66.1602 56.027C66.5156 55.8798 66.8386 55.664 67.1107 55.3919C67.3827 55.1199 67.5985 54.7969 67.7457 54.4415C67.893 54.086 67.9688 53.705 67.9688 53.3203V49.2188Z" fill="#D76B4C"/>
<path d="M67.9688 49.2188H53.9062V35.677C53.9063 34.5589 54.1196 33.4511 54.5348 32.4129L55.8817 29.0458C55.9905 28.774 56.1781 28.541 56.4205 28.3769C56.6629 28.2128 56.949 28.125 57.2417 28.125L57.4219 26.9531H62.1094L63.2812 28.125H65.0391C65.8161 28.125 66.5612 28.4337 67.1107 28.9831C67.6601 29.5325 67.9688 30.2777 67.9688 31.0547V49.2188Z" fill="#FAA231"/>
<path d="M49.2188 71.4844H37.5C37.5 70.2412 37.9939 69.0489 38.8729 68.1698C39.752 67.2907 40.9443 66.7969 42.1875 66.7969H50.3906L49.2188 71.4844Z" fill="#FA5D3F"/>
<path d="M53.9059 14.0625V18.75L52.1982 22.1656C52.1312 22.2996 52.0996 22.4485 52.1064 22.5981C52.1131 22.7478 52.158 22.8932 52.2367 23.0206C52.3155 23.1481 52.4255 23.2533 52.5563 23.3262C52.6872 23.3992 52.8345 23.4375 52.9843 23.4375H55.0778V25.1953C55.0778 25.58 55.1536 25.961 55.3008 26.3165C55.4481 26.6719 55.6639 26.9949 55.9359 27.2669C56.208 27.539 56.5309 27.7548 56.8864 27.902C57.2418 28.0492 57.6228 28.125 58.0075 28.125H62.695C63.0797 28.125 63.4607 28.0492 63.8161 27.902C64.1716 27.7548 64.4946 27.539 64.7666 27.2669C65.0387 26.9949 65.2545 26.6719 65.4017 26.3165C65.5489 25.961 65.6247 25.58 65.6247 25.1953V14.0625H53.9059Z" fill="#FFD4CF"/>
<path d="M52.4414 43.3594H56.25V49.2188H48.0469V47.7539C48.0469 46.5884 48.5099 45.4706 49.334 44.6465C50.1581 43.8224 51.2759 43.3594 52.4414 43.3594Z" fill="#FFD4CF"/>
<path d="M28.125 44.5312H19.9219V38.6719H23.7305C24.896 38.6719 26.0137 39.1349 26.8379 39.959C27.662 40.7831 28.125 41.9009 28.125 43.0664V44.5312Z" fill="#FFD4CF"/>
<path d="M51.5625 8.20312H61.2305C62.396 8.20312 63.5137 8.66612 64.3379 9.49025C65.162 10.3144 65.625 11.4322 65.625 12.5977V15.2344H54.4922C53.7152 15.2344 52.97 14.9257 52.4206 14.3763C51.8712 13.8269 51.5625 13.0817 51.5625 12.3047V8.20312Z" fill="#FA5D3F"/>
<path d="M31.6406 9.96094V16.4062L28.125 21.0938H43.9453C44.7223 21.0938 45.4675 20.7851 46.0169 20.2357C46.5663 19.6862 46.875 18.9411 46.875 18.1641V9.96094C46.875 9.18394 46.5663 8.43876 46.0169 7.88934C45.4675 7.33991 44.7223 7.03125 43.9453 7.03125H34.5703C33.7933 7.03125 33.0481 7.33991 32.4987 7.88934C31.9493 8.43876 31.6406 9.18394 31.6406 9.96094Z" fill="#B3E9FF"/>
<path d="M35.1562 10.5469H43.3594V12.8906H35.1562V10.5469Z" fill="#25B1FA"/>
<path d="M35.1562 15.2344H43.3594V17.5781H35.1562V15.2344Z" fill="#25B1FA"/>
</svg>
