<svg width="75" height="75" viewBox="0 0 75 75" fill="none" xmlns="http://www.w3.org/2000/svg">
<path d="M65.4785 2.34375H9.52148C4.27134 2.34375 0 6.61509 0 11.8652V63.1348C0 68.3849 4.27134 72.6562 9.52148 72.6562H65.4785C70.7287 72.6562 75 68.3849 75 63.1348V11.8652C75 6.61509 70.7287 2.34375 65.4785 2.34375Z" fill="#E4EDEF"/>
<path d="M75 11.8652V63.1348C75 68.3848 70.7285 72.6562 65.4785 72.6562H37.5V2.34375H65.4785C70.7285 2.34375 75 6.61523 75 11.8652Z" fill="#BFDFE7"/>
<path d="M63.8672 10.8398H11.1328C9.91934 10.8398 8.93555 11.8236 8.93555 13.0371V44.0918C8.93555 45.3053 9.91934 46.2891 11.1328 46.2891H63.8672C65.0807 46.2891 66.0645 45.3053 66.0645 44.0918V13.0371C66.0645 11.8236 65.0807 10.8398 63.8672 10.8398Z" fill="#027893"/>
<path d="M66.0645 13.0371V44.0918C66.0645 45.3047 65.0801 46.2891 63.8672 46.2891H37.5V10.8398H63.8672C65.0801 10.8398 66.0645 11.8242 66.0645 13.0371Z" fill="#00607F"/>
<path d="M13.3301 15.2344H61.6699V41.8945H13.3301V15.2344Z" fill="#00607F"/>
<path d="M37.5 15.2344H61.6699V41.8945H37.5V15.2344Z" fill="#00465F"/>
<path d="M61.6699 26.5137V30.9082H56.6616L54.9653 35.9971C54.4219 37.6304 52.292 38.0288 51.1934 36.709L42.731 26.5561L41.7817 29.4053C41.4829 30.3032 40.6436 30.9082 39.6973 30.9082H36.8862L35.1899 35.9971C34.6465 37.6274 32.5195 38.0317 31.418 36.709L22.9556 26.5561L22.0063 29.4053C21.7075 30.3032 20.8682 30.9082 19.9219 30.9082H13.3301V26.5137H18.3384L20.0347 21.4248C20.5781 19.7915 22.708 19.3931 23.8066 20.7129L32.2676 30.8657L33.2183 28.0166C33.5171 27.1186 34.3564 26.5137 35.3027 26.5137H38.1138L39.8101 21.4248C40.3535 19.7915 42.4834 19.3931 43.582 20.7129L52.043 30.8657L52.9937 28.0166C53.2925 27.1186 54.1318 26.5137 55.0781 26.5137H61.6699Z" fill="#F26376"/>
<path d="M61.6699 26.5137V30.9082H56.6616L54.9653 35.9971C54.4219 37.6304 52.292 38.0288 51.1934 36.709L42.731 26.5561L41.7817 29.4053C41.4829 30.3032 40.6436 30.9082 39.6973 30.9082H37.5V26.5137H38.1138L39.8101 21.4248C40.3535 19.7915 42.4834 19.3931 43.582 20.7129L52.043 30.8657L52.9937 28.0166C53.2925 27.1186 54.1318 26.5137 55.0781 26.5137H61.6699Z" fill="#DB375A"/>
<path d="M37.5 63.8672C41.1405 63.8672 44.0918 60.9159 44.0918 57.2754C44.0918 53.6348 41.1405 50.6836 37.5 50.6836C33.8595 50.6836 30.9082 53.6348 30.9082 57.2754C30.9082 60.9159 33.8595 63.8672 37.5 63.8672Z" fill="#63C6F8"/>
<path d="M44.0918 57.2754C44.0918 60.9097 41.1343 63.8672 37.5 63.8672V50.6836C41.1343 50.6836 44.0918 53.6411 44.0918 57.2754Z" fill="#23A5F6"/>
<path d="M24.3164 59.4727C25.5299 59.4727 26.5137 58.4889 26.5137 57.2754C26.5137 56.0619 25.5299 55.0781 24.3164 55.0781C23.1029 55.0781 22.1191 56.0619 22.1191 57.2754C22.1191 58.4889 23.1029 59.4727 24.3164 59.4727Z" fill="#F26376"/>
<path d="M50.6836 59.4727C51.8971 59.4727 52.8809 58.4889 52.8809 57.2754C52.8809 56.0619 51.8971 55.0781 50.6836 55.0781C49.4701 55.0781 48.4863 56.0619 48.4863 57.2754C48.4863 58.4889 49.4701 59.4727 50.6836 59.4727Z" fill="#DB375A"/>
</svg>
