<svg width="28" height="28" viewBox="0 0 28 28" fill="none" xmlns="http://www.w3.org/2000/svg">
<path fill-rule="evenodd" clip-rule="evenodd" d="M14.4985 7.25333C16.5641 7.25333 17.9574 8.14556 18.7519 8.89111L21.8563 5.86C19.9497 4.08778 17.4685 3 14.4985 3C10.1963 3 6.48076 5.46889 4.67188 9.06222L8.22854 11.8244C9.12076 9.17222 11.5897 7.25333 14.4985 7.25333Z" fill="#EA4335"/>
<path fill-rule="evenodd" clip-rule="evenodd" d="M25.0595 14.2444C25.0595 13.34 24.9862 12.68 24.8273 11.9955H14.4995V16.0778H20.5617C20.4395 17.0922 19.7795 18.62 18.3128 19.6467L21.784 22.3355C23.8617 20.4167 25.0595 17.5933 25.0595 14.2444Z" fill="#4285F4"/>
<path fill-rule="evenodd" clip-rule="evenodd" d="M8.24125 16.1756C8.00902 15.4911 7.87458 14.7578 7.87458 14C7.87458 13.2422 8.00902 12.5089 8.22902 11.8245L4.67236 9.06224C3.9268 10.5534 3.49902 12.2278 3.49902 14C3.49902 15.7722 3.9268 17.4467 4.67236 18.9378L8.24125 16.1756Z" fill="#FBBC05"/>
<path fill-rule="evenodd" clip-rule="evenodd" d="M14.499 25C17.469 25 19.9623 24.0222 21.7835 22.3355L18.3124 19.6466C17.3835 20.2944 16.1368 20.7466 14.499 20.7466C11.5901 20.7466 9.12124 18.8278 8.24124 16.1755L4.68457 18.9378C6.49346 22.5311 10.1968 25 14.499 25Z" fill="#34A853"/>
</svg>
