<svg width="75" height="75" viewBox="0 0 75 75" fill="none" xmlns="http://www.w3.org/2000/svg">
<path d="M67.9175 36.3326H7.08252V46.3302H67.9175V36.3326Z" fill="#E8E9EA"/>
<path opacity="0.1" d="M67.917 36.3326H63.8848V46.3302H67.917V36.3326Z" fill="black"/>
<path opacity="0.1" d="M7.08301 36.3331V46.3307H30.0011C25.3518 43.3666 24.354 39.1645 24.6519 36.3331H7.08301Z" fill="black"/>
<path d="M49.7711 49.0519C49.2702 49.0519 48.8175 48.7071 48.7011 48.1979L44.9761 31.9079C44.8409 31.3164 45.2108 30.7273 45.8023 30.5921C46.3941 30.4575 46.9829 30.8267 47.1182 31.4182L50.8431 47.708C50.9783 48.2995 50.6084 48.8887 50.0169 49.0239C49.9346 49.0427 49.8521 49.0519 49.7711 49.0519Z" fill="#76B7EB"/>
<path opacity="0.14" d="M49.7711 49.0519C49.2702 49.0519 48.8175 48.7071 48.7011 48.1979L44.9761 31.9079C44.8409 31.3164 45.2108 30.7273 45.8023 30.5921C46.3941 30.4575 46.9829 30.8267 47.1182 31.4182L50.8431 47.708C50.9783 48.2995 50.6084 48.8887 50.0169 49.0239C49.9346 49.0427 49.8521 49.0519 49.7711 49.0519Z" fill="black"/>
<path d="M39.574 48.5367C39.0809 48.5367 38.6325 48.2024 38.5086 47.7023L35.7034 36.3959C35.3392 34.9283 35.6647 33.4034 36.5964 32.2123C37.528 31.0213 38.9297 30.3382 40.4419 30.3382H52.8268C54.7519 30.3382 56.5023 31.4743 57.286 33.2326L58.8298 36.6958C59.8395 38.9609 60.3515 41.3667 60.3515 43.8466V47.4378C60.3515 48.0445 59.8597 48.5364 59.2528 48.5364C58.6459 48.5364 58.1542 48.0445 58.1542 47.4378V43.8466C58.1542 41.677 57.7062 39.5721 56.8228 37.5904L55.279 34.1272C54.848 33.1602 53.8855 32.5355 52.8268 32.5355H40.4419C39.6103 32.5355 38.8395 32.9111 38.3272 33.5661C37.8148 34.2212 37.6358 35.0597 37.8361 35.8668L40.6413 47.1732C40.7873 47.7621 40.4284 48.358 39.8394 48.504C39.7506 48.526 39.6616 48.5367 39.574 48.5367Z" fill="#76B7EB"/>
<path d="M73.4216 33.1228H69.4956C68.6238 33.1228 67.9172 33.8294 67.9172 34.7012V45.0787C67.9172 45.7701 67.3566 46.3307 66.6652 46.3307H8.33481C7.64341 46.3307 7.08281 45.7701 7.08281 45.0787V26.1799C7.08281 25.3081 6.37617 24.6015 5.50444 24.6015H1.57837C0.706641 24.6016 0 25.3083 0 26.1799V47.5694C0 50.034 1.99805 52.032 4.46265 52.032H70.5374C73.002 52.032 75 50.034 75 47.5694V34.7013C75 33.8296 74.2934 33.1228 73.4216 33.1228Z" fill="#38648C"/>
<path d="M24.0825 36.416H13.3172C12.3396 36.416 11.4338 35.9026 10.9317 35.0637L10.4774 34.3049C10.0837 33.6472 10.0837 32.8261 10.4774 32.1683L10.9317 31.4094C11.4338 30.5706 12.3396 30.057 13.3172 30.057H24.0825C25.0601 30.057 25.9658 30.5704 26.468 31.4094L26.9222 32.1683C27.316 32.826 27.316 33.647 26.9222 34.3049L26.468 35.0637C25.9658 35.9026 25.0601 36.416 24.0825 36.416Z" fill="#76B7EB"/>
<path d="M61.9267 59.3124H13.0732C12.4664 59.3124 11.9746 58.8205 11.9746 58.2137C11.9746 57.607 12.4664 57.1151 13.0732 57.1151H61.9267C62.5335 57.1151 63.0253 57.607 63.0253 58.2137C63.0253 58.8205 62.5335 59.3124 61.9267 59.3124Z" fill="#38648C"/>
<path d="M13.0731 52.0315H9.15674V62.9912H13.0731V52.0315Z" fill="#76B7EB"/>
<path opacity="0.15" d="M13.0731 52.0315H9.15674V55.5063H13.0731V52.0315Z" fill="black"/>
<path d="M11.1152 69.4576C13.2075 69.4576 14.9037 67.7614 14.9037 65.6691C14.9037 63.5767 13.2075 61.8806 11.1152 61.8806C9.02284 61.8806 7.32666 63.5767 7.32666 65.6691C7.32666 67.7614 9.02284 69.4576 11.1152 69.4576Z" fill="#495059"/>
<path d="M11.1148 66.7683C11.7219 66.7683 12.2141 66.2761 12.2141 65.669C12.2141 65.062 11.7219 64.5698 11.1148 64.5698C10.5078 64.5698 10.0156 65.062 10.0156 65.669C10.0156 66.2761 10.5078 66.7683 11.1148 66.7683Z" fill="#76B7EB"/>
<path d="M65.842 52.0315H61.9258V62.9912H65.842V52.0315Z" fill="#76B7EB"/>
<path opacity="0.15" d="M65.842 52.0315H61.9258V55.5063H65.842V52.0315Z" fill="black"/>
<path d="M63.8852 69.4576C65.9776 69.4576 67.6737 67.7614 67.6737 65.6691C67.6737 63.5767 65.9776 61.8806 63.8852 61.8806C61.7929 61.8806 60.0967 63.5767 60.0967 65.6691C60.0967 67.7614 61.7929 69.4576 63.8852 69.4576Z" fill="#495059"/>
<path d="M63.8844 66.7683C64.4915 66.7683 64.9836 66.2762 64.9836 65.6691C64.9836 65.062 64.4915 64.5699 63.8844 64.5699C63.2773 64.5699 62.7852 65.062 62.7852 65.6691C62.7852 66.2762 63.2773 66.7683 63.8844 66.7683Z" fill="#76B7EB"/>
<path opacity="0.1" d="M26.3678 46.3307H8.33481C7.64341 46.3307 7.08281 45.7701 7.08281 45.0787V26.1799C7.08281 25.3081 6.37617 24.6015 5.50444 24.6015H1.57837C0.706641 24.6016 0 25.3083 0 26.1799V47.5694C0 50.034 1.99805 52.032 4.46265 52.032H31.8242C28.6674 50.5146 27.0718 48.2864 26.3678 46.3307Z" fill="black"/>
<path opacity="0.1" d="M13.3172 30.0571C12.3396 30.0571 11.4338 30.5706 10.9317 31.4095L10.4774 32.1684C10.0837 32.8261 10.0837 33.6472 10.4774 34.305L10.9317 35.0638C11.4338 35.9026 12.3396 36.4162 13.3172 36.4162H17.5931C14.7775 35.2723 14.6301 31.7836 15.4478 30.0573L13.3172 30.0571Z" fill="black"/>
<path d="M37.4999 25.1319C42.9094 25.1319 47.2947 20.7466 47.2947 15.3371C47.2947 9.92753 42.9094 5.54224 37.4999 5.54224C32.0904 5.54224 27.7051 9.92753 27.7051 15.3371C27.7051 20.7466 32.0904 25.1319 37.4999 25.1319Z" fill="#F28B74"/>
<path d="M39.5014 12.9426V9.96516C39.5014 9.69182 39.2799 9.47034 39.0065 9.47034H35.9928C35.7196 9.47034 35.498 9.69182 35.498 9.96516V12.9427C35.498 13.1595 35.3222 13.3355 35.1052 13.3355H32.1276C31.8544 13.3355 31.6328 13.557 31.6328 13.8303V16.8441C31.6328 17.1174 31.8543 17.3389 32.1276 17.3389H35.1052C35.3222 17.3389 35.498 17.5147 35.498 17.7316V20.7092C35.498 20.9824 35.7194 21.204 35.9928 21.204H39.0065C39.2799 21.204 39.5014 20.9825 39.5014 20.7092V17.7316C39.5014 17.5148 39.6772 17.3389 39.8941 17.3389H42.8717C43.145 17.3389 43.3665 17.1174 43.3665 16.8441V13.8302C43.3665 13.5568 43.145 13.3353 42.8717 13.3353H39.8941C39.6772 13.3352 39.5014 13.1595 39.5014 12.9426Z" fill="white"/>
</svg>
