<svg width="75" height="75" viewBox="0 0 75 75" fill="none" xmlns="http://www.w3.org/2000/svg">
<path d="M55.0781 4.54102C46.1045 4.54102 40.2595 9.42056 37.5 12.446C34.7405 9.42056 28.8955 4.54102 19.9219 4.54102C8.648 4.54102 0 13.7678 0 26.003C0 41.4873 14.7678 51.3101 36.0538 69.9139C36.8755 70.6415 38.1267 70.6396 38.9462 69.9139C60.2351 51.3076 75 41.492 75 26.003C75 13.7678 66.352 4.54102 55.0781 4.54102Z" fill="url(#paint0_linear)"/>
<path d="M40.1807 22.3828C37.3682 23.0858 35.3027 25.6348 35.3027 28.7109C35.3027 29.9413 36.2694 30.9082 37.5 30.9082C38.7306 30.9082 39.6973 31.8749 39.6973 33.1055C39.6973 34.3358 38.7306 35.3027 37.5 35.3027C33.8524 35.3027 30.9082 32.3581 30.9082 28.7109C30.9082 26.6014 31.5234 24.624 32.5342 22.9541C26.4697 25.0194 22.1191 30.7762 22.1191 37.5C22.1191 45.9814 29.0186 52.8808 37.5 52.8808C45.9814 52.8808 52.8809 45.9814 52.8809 37.5C52.8809 29.9413 47.3877 23.6131 40.1807 22.3828ZM43.3888 40.4443C42.2462 42.6855 40.0049 44.0918 37.5 44.0918C34.9951 44.0918 32.7538 42.6855 31.6112 40.4443C31.0838 39.3896 31.4795 38.0273 32.5781 37.5C33.6328 36.9727 34.9951 37.412 35.5223 38.4666C36.3133 40.0049 38.6865 40.0049 39.4775 38.4666C40.0049 37.412 41.3231 36.9727 42.4217 37.5C43.5204 38.0273 43.9162 39.3896 43.3888 40.4443Z" fill="url(#paint1_linear)"/>
<defs>
<linearGradient id="paint0_linear" x1="37.5" y1="70.459" x2="37.5" y2="4.54102" gradientUnits="userSpaceOnUse">
<stop stop-color="#FD3A84"/>
<stop offset="1" stop-color="#FFA68D"/>
</linearGradient>
<linearGradient id="paint1_linear" x1="37.5" y1="52.8808" x2="37.5" y2="22.3828" gradientUnits="userSpaceOnUse">
<stop stop-color="#FFC2CC"/>
<stop offset="1" stop-color="#FFF2F4"/>
</linearGradient>
</defs>
</svg>
