<svg width="20" height="26" viewBox="0 0 20 26" fill="none" xmlns="http://www.w3.org/2000/svg">
<path d="M18.1635 4.75366L6.72852 7.80054L9.77539 26L17.5814 15.6599C18.8174 14.0227 19.5508 11.9848 19.5508 9.77537C19.5508 7.93912 19.044 6.22144 18.1635 4.75366Z" fill="#0F9D58"/>
<path d="M5.96875 20.9561L9.77653 26V15.8975L5.96875 20.9561Z" fill="#31AA52"/>
<path d="M9.77539 15.8974L12.7169 11.9896L9.77539 9.77539L6.72852 12.8364L9.77539 15.8974Z" fill="#F69411"/>
<path d="M9.77539 0L6.72852 3.34999L9.77539 6.69998L12.2808 0.324645C11.4811 0.113191 10.6415 0 9.77539 0V0Z" fill="#4175DF"/>
<path d="M1.96484 3.89645V9.77539H9.7751V0C6.5832 0 3.74894 1.53004 1.96484 3.89645Z" fill="#4086F4"/>
<path d="M1.96513 3.89648C0.731605 5.53266 0 7.56853 0 9.77543C0 11.6116 0.506848 13.329 1.38745 14.7967L8.35717 8.7079L1.96513 3.89648Z" fill="#EB4132"/>
<path d="M12.2808 0.324585L9.77539 3.65309L6.09375 11.9895H12.7169L18.1635 4.75367C16.8703 2.59832 14.7703 0.982812 12.2808 0.324585Z" fill="#4086F4"/>
<path d="M9.77565 3.6532L6.83398 7.56122L9.77565 9.77544V3.6532Z" fill="#609AF6"/>
<path d="M6.72852 9.77539L9.77539 15.8974L12.7169 11.9896L6.72852 9.77539Z" fill="#F8A808"/>
<path d="M6.83496 7.56116L1.38867 14.7966C1.56768 15.095 1.76176 15.3832 1.97062 15.6598L5.96884 20.956L9.77662 15.8974V9.77537L6.83496 7.56116Z" fill="#FBBD00"/>
<path d="M9.77637 6.09375L7.93555 9.77539L9.77637 13.457C11.8097 13.457 13.458 11.8087 13.458 9.77539C13.458 7.74206 11.8097 6.09375 9.77637 6.09375Z" fill="#E3E7EA"/>
<path d="M6.09375 9.77539C6.09375 11.8087 7.74206 13.457 9.77539 13.457V6.09375C7.74206 6.09375 6.09375 7.74206 6.09375 9.77539Z" fill="white"/>
</svg>
