<svg width="63" height="63" viewBox="0 0 63 63" fill="none" xmlns="http://www.w3.org/2000/svg">
<g clip-path="url(#clip0)">
<path d="M44.6245 62.0771H6.17851C4.25566 62.0771 2.69678 60.5184 2.69678 58.5954V4.40459C2.69678 2.48173 4.25566 0.922852 6.17851 0.922852H44.6245C46.5474 0.922852 48.1062 2.48161 48.1062 4.40459V58.5954C48.1062 60.5183 46.5474 62.0771 44.6245 62.0771Z" fill="#FFE8D2"/>
<path d="M44.6243 0.922852H41.4135V16.7617C41.4135 37.7876 24.3667 54.8324 3.33822 54.8324H2.69678V58.5955C2.69678 60.5183 4.25566 62.077 6.17863 62.077H44.6243C46.5472 62.077 48.1061 60.5183 48.1061 58.5955V4.40434C48.1062 2.48161 46.5472 0.922852 44.6243 0.922852Z" fill="#F7D4AD"/>
<path d="M29.9977 26.4549H20.762C19.3352 26.4549 18.2611 25.1558 18.5296 23.755L18.8923 21.8598C18.9966 21.3161 19.2076 20.8092 19.507 20.3639C19.9798 19.6543 20.6737 19.0998 21.5025 18.7988L25.4061 17.3831L29.2796 18.788C30.1126 19.0907 30.8089 19.6493 31.2827 20.3647V20.3656C31.5862 20.8217 31.798 21.3404 31.8981 21.8973L32.235 23.7817C32.4843 25.175 31.4136 26.4549 29.9977 26.4549Z" fill="#B8B6FF"/>
<path d="M27.542 18.1635L25.3579 20.0697L23.1753 18.1635V15.2371H27.542V18.1635Z" fill="#ECBD83"/>
<path d="M28.8269 10.075V12.5553C28.8269 14.5002 27.2351 16.1382 25.2903 16.1006C23.4057 16.0643 21.8896 14.5255 21.8896 12.6328V10.075C21.8896 8.15955 23.4426 7.15991 25.3583 7.15991C27.2739 7.15991 28.8269 8.15955 28.8269 10.075Z" fill="#F7D4AD"/>
<path d="M21.7527 23.1065V26.4551H20.762C19.3352 26.4551 18.2611 25.156 18.5296 23.7552L18.8923 21.8599C18.9966 21.3163 19.2076 20.8093 19.507 20.364C20.7886 20.62 21.7527 21.7506 21.7527 23.1065Z" fill="#A09EEF"/>
<path d="M29.9978 26.4551H29.043V23.1065C29.043 21.7532 30.0045 20.6234 31.2829 20.3657C31.5865 20.8219 31.7982 21.3405 31.8984 21.8974L32.2353 23.7819C32.4845 25.1751 31.4137 26.4551 29.9978 26.4551Z" fill="#A09EEF"/>
<path d="M28.827 9.90594C28.6971 10.0056 28.6005 10.0771 28.6005 10.0771C28.3548 10.2191 28.088 10.3489 27.8021 10.4637C26.5012 10.9842 25.2295 11.0033 24.6143 10.5725C24.6143 10.5725 23.972 10.0932 23.7313 9.7872C23.4907 9.48119 22.7255 9.40367 22.0911 10.0771C22.0246 10.1476 21.9572 10.1939 21.8896 10.2211V10.0771C21.8896 8.16028 23.4432 6.60693 25.3603 6.60693C26.3188 6.60693 27.1868 6.99552 27.814 7.62379C28.4051 8.21368 28.7837 9.01508 28.827 9.90594Z" fill="#6E4848"/>
<path d="M51.5597 42.5551L48.4111 40.0902C48.2319 39.95 47.9801 39.95 47.801 40.0902L44.6523 42.5551C44.3275 42.8093 43.8525 42.578 43.8525 42.1656V24.4931C43.8525 24.2198 44.074 23.9983 44.3473 23.9983H51.8647C52.138 23.9983 52.3595 24.2198 52.3595 24.4931V42.1656C52.3595 42.578 51.8844 42.8093 51.5597 42.5551Z" fill="#FF445C"/>
<path d="M60.3006 17.662C60.3006 19.2152 58.5712 20.4133 58.0111 21.764C57.4304 23.164 57.7839 25.229 56.7287 26.284C55.6734 27.339 53.6086 26.9851 52.2084 27.5656C50.8578 28.1256 49.6595 29.8549 48.1063 29.8549C46.5531 29.8549 45.3549 28.1256 44.0042 27.5656C42.604 26.9851 40.5392 27.339 39.4839 26.284C38.4287 25.2288 38.7823 23.164 38.2016 21.764C37.6415 20.4133 35.9121 19.2152 35.9121 17.662C35.9121 16.1087 37.6415 14.9106 38.2016 13.5599C38.7823 12.1599 38.4288 10.0949 39.484 9.03994C40.5393 7.98493 42.6041 8.33882 44.0043 7.75828C45.355 7.1983 46.5532 5.46899 48.1064 5.46899C49.6597 5.46899 50.8579 7.1983 52.2086 7.75828C53.6087 8.33882 55.6736 7.98493 56.7288 9.03994C57.7841 10.0951 57.4304 12.1599 58.0111 13.5599C58.5712 14.9106 60.3006 16.1087 60.3006 17.662Z" fill="#FF8B59"/>
<path d="M48.308 11.6421L50.2629 14.5619C50.295 14.6098 50.3431 14.6447 50.3986 14.6605L53.7798 15.6172C53.9462 15.6643 54.0114 15.8651 53.9046 16.0009L51.7316 18.7621C51.6959 18.8074 51.6775 18.864 51.6798 18.9216L51.8146 22.4326C51.8213 22.6054 51.6503 22.7295 51.488 22.6698L48.1901 21.4566C48.136 21.4367 48.0766 21.4367 48.0224 21.4566L44.7245 22.6698C44.5622 22.7295 44.3914 22.6054 44.398 22.4326L44.5328 18.9216C44.535 18.864 44.5167 18.8074 44.481 18.7621L42.308 16.0009C42.2011 15.8651 42.2664 15.6642 42.4328 15.6172L45.814 14.6605C45.8695 14.6447 45.9176 14.6098 45.9497 14.5619L47.9045 11.6421C48.0006 11.4985 48.2118 11.4985 48.308 11.6421Z" fill="#FEE07D"/>
<path d="M22.2741 17.5452L21.2086 17.9313C19.5642 18.5276 18.3374 19.966 18.0068 21.6863L17.6453 23.5808C17.4649 24.5191 17.7105 25.4801 18.3195 26.217C18.9287 26.9547 19.8269 27.3777 20.7835 27.3777H30.019C30.9682 27.3777 31.8619 26.9602 32.471 26.2323C33.0796 25.505 33.3328 24.5527 33.1657 23.6196L32.8285 21.7352C32.5161 19.9878 31.2853 18.526 29.616 17.9202L28.4865 17.5109V15.846C28.4865 15.7993 28.4819 15.7537 28.4751 15.7088C29.2992 14.8699 29.7712 13.7259 29.7712 12.5555V10.075C29.7712 7.65369 27.8012 5.68384 25.3798 5.68384C22.9583 5.68384 20.988 7.65369 20.988 10.075V12.6328C20.988 13.8359 21.4841 14.9344 22.2818 15.7321C22.2772 15.7695 22.2741 15.8073 22.2741 15.8459V17.5452ZM31.0114 22.06L31.3485 23.9447C31.4192 24.3386 31.3122 24.7406 31.0552 25.0477C30.7978 25.3553 30.42 25.5319 30.0188 25.5319H20.7832C20.379 25.5319 19.9996 25.3533 19.7421 25.0416C19.4852 24.7305 19.3815 24.3251 19.4578 23.928L19.8193 22.0336C20.0276 20.9493 20.8011 20.0423 21.8373 19.6666L22.5352 19.4138C22.5527 19.4317 22.5702 19.4498 22.5892 19.4664C23.3844 20.1618 24.382 20.5095 25.3801 20.5094C26.3771 20.5094 27.3744 20.1624 28.1697 19.4684C28.1984 19.4434 28.2247 19.4165 28.2498 19.3884L28.986 19.6553C30.0386 20.037 30.8145 20.9584 31.0114 22.06ZM22.8337 10.075C22.8337 8.67154 23.9757 7.52954 25.3794 7.52954C26.5641 7.52954 27.5595 8.34411 27.8422 9.44169C27.7236 9.49964 27.6019 9.5544 27.4772 9.60423C26.3425 10.0585 25.4259 9.99823 25.164 9.81464C24.7466 9.52204 24.1712 9.62294 23.8785 10.0403C23.5859 10.4577 23.6869 11.0331 24.1041 11.3258C24.5549 11.6419 25.1667 11.7999 25.8648 11.7999C26.4991 11.7999 27.2048 11.6681 27.9252 11.4074V12.5553C27.9252 13.2607 27.6335 13.9515 27.1247 14.4504C26.8892 14.6815 26.6193 14.8605 26.3296 14.9841C26.3093 14.9918 26.2893 15.0002 26.2698 15.0093C25.9721 15.1271 25.6542 15.1863 25.3292 15.1778C23.953 15.1513 22.8337 14.0096 22.8337 12.6327V10.075ZM25.2938 17.0233C25.3219 17.0238 25.3499 17.0241 25.3781 17.0241C25.8111 17.0241 26.2353 16.959 26.6406 16.8341V18.3105C25.8715 18.7848 24.8882 18.7845 24.12 18.3098V16.8368C24.4933 16.9499 24.8867 17.0155 25.2938 17.0233Z" fill="black"/>
<path d="M10.8608 43.1777H39.6009C40.1107 43.1777 40.5238 42.7647 40.5238 42.2549C40.5238 41.7451 40.1107 41.332 39.6009 41.332H10.8608C10.3511 41.332 9.93799 41.7451 9.93799 42.2549C9.93799 42.7647 10.3511 43.1777 10.8608 43.1777Z" fill="black"/>
<path d="M10.8608 48.1538H39.6009C40.1107 48.1538 40.5238 47.7407 40.5238 47.231C40.5238 46.7212 40.1107 46.3081 39.6009 46.3081H10.8608C10.3511 46.3081 9.93799 46.7212 9.93799 47.231C9.93799 47.7407 10.3511 48.1538 10.8608 48.1538Z" fill="black"/>
<path d="M10.8608 53.1296H39.6009C40.1107 53.1296 40.5238 52.7166 40.5238 52.2068C40.5238 51.697 40.1107 51.2839 39.6009 51.2839H10.8608C10.3511 51.2839 9.93799 51.697 9.93799 52.2068C9.93799 52.7166 10.3511 53.1296 10.8608 53.1296Z" fill="black"/>
<path d="M10.8608 58.1057H39.6009C40.1107 58.1057 40.5238 57.6926 40.5238 57.1829C40.5238 56.6731 40.1107 56.26 39.6009 56.26H10.8608C10.3511 56.26 9.93799 56.6731 9.93799 57.1829C9.93799 57.6926 10.3511 58.1057 10.8608 58.1057Z" fill="black"/>
<path d="M9.93799 32.3027C9.93799 32.8125 10.3511 33.2256 10.8608 33.2256H39.6009C40.1107 33.2256 40.5238 32.8125 40.5238 32.3027C40.5238 31.7929 40.1107 31.3799 39.6009 31.3799H10.8608C10.3511 31.3799 9.93799 31.7931 9.93799 32.3027Z" fill="black"/>
<path d="M10.8608 38.2017H39.6009C40.1107 38.2017 40.5238 37.7886 40.5238 37.2788C40.5238 36.769 40.1107 36.356 39.6009 36.356H10.8608C10.3511 36.356 9.93799 36.769 9.93799 37.2788C9.93799 37.7886 10.3511 38.2017 10.8608 38.2017Z" fill="black"/>
<path d="M7.45315 43.1812C7.96478 43.1812 8.37957 42.7665 8.37957 42.2549C8.37957 41.7434 7.96478 41.3286 7.45315 41.3286C6.94152 41.3286 6.52686 41.7433 6.52686 42.2549C6.52686 42.7665 6.94165 43.1812 7.45315 43.1812Z" fill="black"/>
<path d="M7.45315 33.2291C7.96478 33.2291 8.37957 32.8144 8.37957 32.3028C8.37957 31.7911 7.96478 31.3765 7.45315 31.3765C6.94152 31.3765 6.52686 31.7911 6.52686 32.3028C6.52686 32.8144 6.94165 33.2291 7.45315 33.2291Z" fill="black"/>
<path d="M7.45315 38.2051C7.96478 38.2051 8.37957 37.7905 8.37957 37.2788C8.37957 36.7672 7.96478 36.3525 7.45315 36.3525C6.94152 36.3525 6.52686 36.7672 6.52686 37.2788C6.52686 37.7905 6.94165 38.2051 7.45315 38.2051Z" fill="black"/>
<path d="M7.45315 48.157C7.96478 48.157 8.37957 47.7424 8.37957 47.2307C8.37957 46.7191 7.96478 46.3044 7.45315 46.3044C6.94152 46.3044 6.52686 46.7191 6.52686 47.2307C6.52686 47.7424 6.94165 48.157 7.45315 48.157Z" fill="black"/>
<path d="M7.45315 53.1331C7.96478 53.1331 8.37957 52.7184 8.37957 52.2068C8.37957 51.6952 7.96478 51.2805 7.45315 51.2805C6.94152 51.2805 6.52686 51.6952 6.52686 52.2068C6.52686 52.7183 6.94165 53.1331 7.45315 53.1331Z" fill="black"/>
<path d="M7.45315 58.1092C7.96478 58.1092 8.37957 57.6945 8.37957 57.1829C8.37957 56.6714 7.96478 56.2566 7.45315 56.2566C6.94152 56.2566 6.52686 56.6713 6.52686 57.1829C6.52686 57.6944 6.94165 58.1092 7.45315 58.1092Z" fill="black"/>
<path d="M59.7553 14.5344C59.383 14.0632 59.0311 13.6178 58.8609 13.2076C58.6773 12.7648 58.605 12.1797 58.5284 11.56C58.3942 10.4745 58.2421 9.24414 57.3835 8.38564C56.5249 7.52715 55.2944 7.37506 54.2089 7.24082C53.5891 7.16428 53.0037 7.09193 52.5609 6.90834C52.1505 6.73817 51.7054 6.3865 51.234 6.01404C50.5854 5.50155 49.8721 4.93886 49.0287 4.68353V4.40434C49.0288 1.97589 47.0528 0 44.624 0H6.17876C3.74994 0 1.77393 1.97589 1.77393 4.40446V7.96655C1.77393 8.47633 2.18699 8.8894 2.69678 8.8894C3.20656 8.8894 3.61963 8.47633 3.61963 7.96655V4.40446C3.61963 2.99348 4.76766 1.8457 6.17876 1.8457H44.624C46.0351 1.8457 47.1831 2.99348 47.1831 4.40446V4.68378C46.34 4.93922 45.627 5.50167 44.9784 6.01416C44.507 6.3865 44.0618 6.73829 43.6516 6.90847C43.2087 7.09193 42.6234 7.16428 42.0036 7.24094C40.9181 7.37506 39.6877 7.52715 38.829 8.38564C37.9703 9.24427 37.8182 10.4746 37.6839 11.5601C37.6074 12.1797 37.535 12.7649 37.3515 13.2077C37.1813 13.618 36.8295 14.0633 36.457 14.5345C35.7675 15.4071 34.9861 16.396 34.9861 17.662C34.9861 18.9281 35.7676 19.917 36.457 20.7895C36.8294 21.2608 37.1813 21.7061 37.3515 22.1163C37.535 22.5592 37.6074 23.1443 37.6839 23.764C37.8182 24.8494 37.9703 26.0798 38.8289 26.9383C39.6875 27.7969 40.918 27.9489 42.0035 28.0831C42.3271 28.1231 42.6407 28.1624 42.9303 28.2165V42.166C42.9303 42.7126 43.2354 43.2009 43.7268 43.4401C44.218 43.6797 44.7905 43.6189 45.2213 43.2816L47.183 41.7456V58.5957C47.183 60.0066 46.035 61.1544 44.6239 61.1544H6.17876C4.76766 61.1544 3.61963 60.0066 3.61963 58.5957V12.0304C3.61963 11.5206 3.20656 11.1076 2.69678 11.1076C2.18699 11.1076 1.77393 11.5206 1.77393 12.0304V58.5955C1.77393 61.0241 3.74994 63 6.17876 63H44.624C47.0528 63 49.0288 61.0241 49.0288 58.5955V41.7455L50.9906 43.2814C51.2466 43.4819 51.553 43.5848 51.8629 43.5848C52.074 43.5848 52.2866 43.5369 52.486 43.4399C52.9774 43.2006 53.2828 42.7124 53.2828 42.1658V31.8672C53.2828 31.3574 52.8698 30.9443 52.36 30.9443C51.8502 30.9443 51.4371 31.3574 51.4371 31.8672V41.287L48.9839 39.3664C48.736 39.1701 48.4242 39.062 48.1059 39.062C47.7875 39.062 47.4757 39.1701 47.2317 39.3632L44.7759 41.286V29.1505C44.8428 29.203 44.9101 29.256 44.9783 29.3098C45.8509 29.9993 46.84 30.7805 48.1061 30.7805C49.3721 30.7805 50.3612 29.9992 51.2338 29.3099C51.7052 28.9375 52.1505 28.5856 52.5608 28.4155C53.0036 28.232 53.589 28.1596 54.2088 28.083C55.2943 27.9489 56.5246 27.7968 57.3835 26.9383C58.242 26.0797 58.3941 24.8493 58.5283 23.7639C58.605 23.1443 58.6773 22.559 58.8609 22.1162C59.0311 21.706 59.3829 21.2607 59.7553 20.7894C60.4449 19.9169 61.2262 18.9279 61.2262 17.6619C61.2262 16.3959 60.4448 15.4069 59.7553 14.5344ZM58.3072 19.645C57.8731 20.1945 57.4242 20.7624 57.1561 21.4092C56.8764 22.0835 56.785 22.8226 56.6966 23.5374C56.5895 24.4044 56.4883 25.2233 56.0786 25.633C55.6687 26.0427 54.8497 26.1439 53.9826 26.2511C53.2677 26.3394 52.5287 26.4307 51.8541 26.7104C51.2074 26.9785 50.6394 27.4273 50.09 27.8614C49.3912 28.4132 48.7313 28.9347 48.1064 28.9347C47.4814 28.9347 46.8215 28.4134 46.1227 27.8614C45.5733 27.4274 45.0053 26.9785 44.3586 26.7104C44.3141 26.6919 44.2685 26.6763 44.2234 26.6595C44.1918 26.6456 44.1594 26.6331 44.126 26.6228C43.5161 26.4107 42.8636 26.3293 42.2299 26.2511C41.3628 26.1439 40.5438 26.0426 40.1339 25.6329C39.7243 25.2233 39.623 24.4044 39.5159 23.5375C39.4275 22.8226 39.3362 22.0837 39.0565 21.4092C38.7883 20.7624 38.3395 20.1945 37.9054 19.645C37.3535 18.9464 36.8321 18.2866 36.8321 17.6619C36.8321 17.0372 37.3534 16.3774 37.9054 15.6788C38.3395 15.1294 38.7884 14.5614 39.0565 13.9146C39.3362 13.2403 39.4276 12.5012 39.5159 11.7864C39.623 10.9194 39.7243 10.1005 40.134 9.6908C40.5439 9.28106 41.3629 9.17991 42.23 9.07274C42.9449 8.98439 43.6839 8.89309 44.3585 8.6134C45.0052 8.34529 45.5732 7.89653 46.1226 7.46242C46.8199 6.91154 47.4787 6.3913 48.1026 6.38933C48.1037 6.38933 48.1049 6.38945 48.106 6.38945C48.1072 6.38945 48.1085 6.38933 48.1097 6.38933C48.7337 6.39118 49.3925 6.91154 50.0899 7.46242C50.6393 7.89641 51.2073 8.34529 51.854 8.6134C52.5284 8.89309 53.2677 8.98451 53.9826 9.07274C54.8497 9.17991 55.6687 9.28118 56.0784 9.69093C56.4882 10.1007 56.5895 10.9194 56.6966 11.7864C56.785 12.5012 56.8763 13.2402 57.156 13.9146C57.4242 14.5614 57.873 15.1294 58.3071 15.6788C58.8589 16.3774 59.3804 17.0372 59.3804 17.6619C59.3804 18.2866 58.8592 18.9465 58.3072 19.645Z" fill="black"/>
<path d="M54.0308 14.7291L50.8904 13.8406L49.0746 11.1286C48.8577 10.8048 48.4957 10.6116 48.106 10.6116C47.7163 10.6116 47.3542 10.8049 47.1373 11.1286L45.3215 13.8406L42.1809 14.7292C41.8058 14.8354 41.51 15.1203 41.3897 15.4909C41.2694 15.8615 41.3415 16.2657 41.5824 16.5716L43.6007 19.1363L43.4755 22.3966C43.4603 22.7862 43.6395 23.1556 43.9549 23.3848C44.1573 23.5319 44.3971 23.6079 44.6396 23.6079C44.7752 23.6079 44.9116 23.5842 45.0425 23.5359L48.1057 22.4091L51.1687 23.5358C51.5346 23.6707 51.941 23.6141 52.2563 23.3851C52.5717 23.1561 52.7511 22.7868 52.7361 22.3971L52.6108 19.1361L54.6293 16.5715C54.8702 16.2652 54.9422 15.8612 54.8218 15.4906C54.7018 15.12 54.406 14.8353 54.0308 14.7291ZM51.0055 18.192C50.8349 18.4091 50.7467 18.6805 50.7571 18.9572L50.8529 21.4531L48.5085 20.5907C48.2487 20.4951 47.9626 20.4952 47.7034 20.5906L45.3587 21.4531L45.4546 18.9564C45.4649 18.6806 45.3765 18.4092 45.2056 18.1914L43.6609 16.2285L46.0651 15.5485C46.331 15.473 46.5622 15.3049 46.7159 15.0753L48.1057 12.9995L49.4954 15.0751C49.6492 15.3048 49.8804 15.4729 50.1468 15.5486L52.5506 16.2285L51.0055 18.192Z" fill="black"/>
</g>
<defs>
<clipPath id="clip0">
<rect width="63" height="63" fill="white"/>
</clipPath>
</defs>
</svg>
