<svg width="26" height="26" viewBox="0 0 26 26" fill="none" xmlns="http://www.w3.org/2000/svg">
<path d="M23.9137 17.066C22.3219 17.066 20.7589 16.8171 19.2778 16.3276C18.6941 16.1285 18.0028 16.2364 17.524 16.523C17.3011 16.6564 17.1127 16.8407 16.9053 16.9973C15.3127 18.1996 13.1168 18.431 11.5354 17.2141C10.5629 16.4658 9.72078 15.6415 8.96193 14.6941C7.60266 12.9972 7.86456 10.5967 9.17161 8.8593C9.7281 8.30355 9.92771 7.49172 9.68856 6.73001C9.197 5.2411 8.94729 3.67886 8.94729 2.08636C8.94736 0.935932 8.01143 0 6.86107 0H2.08629C0.93593 0 0 0.935932 0 2.0863C0 15.2725 10.7275 26 23.9137 26C25.0641 26 26 25.0641 26 23.9137V19.1523C25.9999 18.002 25.064 17.066 23.9137 17.066Z" fill="white"/>
</svg>
