<svg width="65" height="65" viewBox="0 0 65 65" fill="none" xmlns="http://www.w3.org/2000/svg">
<path d="M36.3086 23.3594H8.88672C4.67987 23.3594 1.26953 26.7697 1.26953 30.9766V50.5273C1.26953 54.7342 4.67987 58.1445 8.88672 58.1445H17.136L17.0216 58.1544L22.5977 63.7305L22.6016 58.1445H36.3086C40.5154 58.1445 43.9258 54.7342 43.9258 50.5273V30.9766C43.9258 26.7697 40.5154 23.3594 36.3086 23.3594Z" fill="#C7EAFF"/>
<path d="M22.5979 65C22.2675 65 21.9428 64.871 21.7 64.6282L16.4859 59.4141H8.88672C3.98658 59.4141 0 55.4275 0 50.5273V30.9766C0 26.0764 3.98658 22.0898 8.88672 22.0898H21.709C22.41 22.0898 22.9785 22.6582 22.9785 23.3594C22.9785 24.0605 22.41 24.6289 21.709 24.6289H8.88672C5.38662 24.6289 2.53906 27.4765 2.53906 30.9766V50.5273C2.53906 54.0274 5.38662 56.875 8.88672 56.875H17.136C17.6552 56.875 18.1041 57.1874 18.3003 57.6377L21.3304 60.6677L21.3322 58.1436C21.3327 57.4429 21.9008 56.875 22.6017 56.875H36.3086C39.8087 56.875 42.6562 54.0274 42.6562 50.5273V41.7676C42.6562 41.0664 43.2247 40.498 43.9258 40.498C44.6268 40.498 45.1953 41.0664 45.1953 41.7676V50.5273C45.1953 55.4275 41.2087 59.4141 36.3086 59.4141H23.8702L23.8672 63.7314C23.8668 64.2446 23.5574 64.7072 23.083 64.9035C22.9262 64.9684 22.7613 65 22.5979 65Z" fill="black"/>
<path d="M46.548 1.26953H43.3349C33.8453 1.26953 26.1523 8.96238 26.1523 18.4521C26.1523 27.9417 33.8452 35.6347 43.3349 35.6347H46.548C48.3068 35.6347 50.0037 35.3699 51.6014 34.879L56.875 40.1496V32.1854C61.0383 29.0498 63.7305 24.0655 63.7305 18.452C63.7305 8.96238 56.0376 1.26953 46.548 1.26953Z" fill="#FFBC53"/>
<path d="M56.8753 41.4191C56.5449 41.4191 56.2204 41.2901 55.9776 41.0475L51.2312 36.3038C49.7077 36.7024 48.1359 36.9041 46.5479 36.9041H43.3348C33.1604 36.9041 24.8828 28.6267 24.8828 18.4521C24.8828 8.2776 33.1604 0 43.3349 0H46.548C56.7224 0 65 8.2776 65 18.4521C65 21.3995 64.3255 24.2164 62.9949 26.8248C61.8234 29.1214 60.1541 31.1771 58.1445 32.8046V40.1496C58.1445 40.663 57.8353 41.1258 57.361 41.3224C57.2039 41.3875 57.0389 41.4191 56.8753 41.4191ZM51.6012 33.6093C51.9328 33.6093 52.2571 33.7394 52.4988 33.9809L55.6055 37.0859V32.1855C55.6055 31.7868 55.7929 31.4113 56.1111 31.1714C60.1466 28.1322 62.4609 23.4961 62.4609 18.4521C62.4609 9.67764 55.3225 2.53906 46.548 2.53906H43.3349C34.5605 2.53906 27.4219 9.67764 27.4219 18.4521C27.4219 27.2266 34.5603 34.3652 43.3349 34.3652H46.548C48.1427 34.3652 49.7174 34.1298 51.2285 33.6654C51.3511 33.6277 51.4768 33.6093 51.6012 33.6093Z" fill="black"/>
<path d="M45.2968 23.7116C44.5958 23.7116 44.0273 23.1432 44.0273 22.4421V19.392C44.0273 18.2549 44.8055 17.2865 45.9199 17.0371C47.2953 16.7294 48.223 15.4799 48.1255 14.0661C48.029 12.6662 46.9005 11.5377 45.5004 11.4412C44.7019 11.3861 43.943 11.6543 43.3623 12.1963C42.7811 12.7388 42.4609 13.4752 42.4609 14.2698C42.4609 14.971 41.8924 15.5394 41.1914 15.5394C40.4904 15.5394 39.9219 14.971 39.9219 14.2698C39.9219 12.7856 40.5443 11.3533 41.6298 10.3401C42.7303 9.31268 44.1682 8.80449 45.6749 8.90796C48.3328 9.09115 50.4752 11.2336 50.6584 13.8914C50.8406 16.5347 49.1243 18.8754 46.5662 19.4934V22.4421C46.5663 23.1432 45.998 23.7116 45.2968 23.7116Z" fill="black"/>
<path d="M45.2969 28.7334C44.963 28.7334 44.6355 28.5988 44.3993 28.3627C44.1633 28.1266 44.0273 27.799 44.0273 27.4639C44.0273 27.13 44.1632 26.8024 44.3993 26.5663C44.6355 26.3302 44.963 26.1943 45.2969 26.1943C45.6308 26.1943 45.9583 26.3302 46.1944 26.5663C46.4304 26.8024 46.5664 27.13 46.5664 27.4639C46.5664 27.799 46.4306 28.1253 46.1944 28.3627C45.9583 28.5988 45.6308 28.7334 45.2969 28.7334Z" fill="black"/>
<path d="M34.9121 41.8945H8.125C7.42396 41.8945 6.85547 41.3262 6.85547 40.625C6.85547 39.9238 7.42396 39.3555 8.125 39.3555H34.9121C35.6131 39.3555 36.1816 39.9238 36.1816 40.625C36.1816 41.3262 35.6133 41.8945 34.9121 41.8945Z" fill="black"/>
<path d="M34.9121 49.0039C34.5782 49.0039 34.2507 48.8681 34.0145 48.6319C33.7784 48.3958 33.6426 48.0683 33.6426 47.7344C33.6426 47.4005 33.7783 47.0729 34.0145 46.8368C34.2507 46.6007 34.5782 46.4648 34.9121 46.4648C35.246 46.4648 35.5735 46.6007 35.8095 46.8368C36.0457 47.0729 36.1816 47.4005 36.1816 47.7344C36.1816 48.0695 36.0458 48.3958 35.8095 48.6319C35.5735 48.8681 35.246 49.0039 34.9121 49.0039Z" fill="black"/>
<path d="M29.9187 49.0039H8.125C7.42396 49.0039 6.85547 48.4355 6.85547 47.7344C6.85547 47.0332 7.42396 46.4648 8.125 46.4648H29.9187C30.6197 46.4648 31.1882 47.0332 31.1882 47.7344C31.1882 48.4355 30.6198 49.0039 29.9187 49.0039Z" fill="black"/>
<path d="M26.6602 34.7852H8.125C7.42396 34.7852 6.85547 34.2168 6.85547 33.5156C6.85547 32.8145 7.42396 32.2461 8.125 32.2461H26.6602C27.3612 32.2461 27.9297 32.8145 27.9297 33.5156C27.9297 34.2168 27.3613 34.7852 26.6602 34.7852Z" fill="black"/>
</svg>
