<svg width="64" height="64" viewBox="0 0 64 64" fill="none" xmlns="http://www.w3.org/2000/svg">
<path d="M15.7103 30.2701L11.1803 17.2201C10.9886 16.4558 10.5154 15.7921 9.85525 15.3619C9.19511 14.9317 8.39683 14.7667 7.62025 14.9001C7.22202 14.985 6.84518 15.1499 6.51258 15.3847C6.17998 15.6196 5.89855 15.9196 5.68535 16.2665C5.47216 16.6135 5.33164 17.0001 5.27232 17.4029C5.213 17.8057 5.23611 18.2164 5.34025 18.6101L10.0003 33.0001L15.7103 30.2701Z" fill="#FFAC96"/>
<path d="M48.29 30.2701L52.82 17.2201C53.0116 16.4558 53.4849 15.7921 54.145 15.3619C54.8052 14.9317 55.6035 14.7667 56.38 14.9001C56.7783 14.985 57.1551 15.1499 57.4877 15.3847C57.8203 15.6196 58.1017 15.9196 58.3149 16.2665C58.5281 16.6135 58.6687 17.0001 58.728 17.4029C58.7873 17.8057 58.7642 18.2164 58.66 18.6101L54 33.0001L48.29 30.2701Z" fill="#FFAC96"/>
<path d="M25.0462 35.6821L16.2063 30.5001C15.5945 30.1468 14.8776 30.0211 14.1822 30.1454C13.4868 30.2696 12.8578 30.6358 12.4063 31.1791L9.18025 21.2201C8.98864 20.4558 8.51538 19.7921 7.85525 19.3619C7.19511 18.9317 6.39683 18.7667 5.62025 18.9001C5.22202 18.985 4.84518 19.1499 4.51258 19.3847C4.17998 19.6196 3.89854 19.9196 3.68535 20.2665C3.47216 20.6135 3.33164 21.0001 3.27232 21.4029C3.213 21.8057 3.23611 22.2164 3.34025 22.6101L7.69025 38.8401C7.88979 39.5991 8.31106 40.2815 8.90025 40.8001L15.6603 46.8101C16.082 47.1856 16.4195 47.6462 16.6504 48.1616C16.8814 48.6769 17.0006 49.2353 17.0003 49.8001V53.0001H29.0002V42.5841C29.0003 41.1887 28.6355 39.8176 27.9419 38.6068C27.2482 37.396 26.25 36.3878 25.0462 35.6821Z" fill="#FFBCAB"/>
<path d="M58.38 18.9001C57.6034 18.7667 56.8051 18.9317 56.145 19.3619C55.4849 19.7921 55.0116 20.4558 54.82 21.2201L51.59 31.1791C51.1385 30.6358 50.5094 30.2696 49.814 30.1454C49.1186 30.0211 48.4017 30.1468 47.79 30.5001L38.95 35.6821C37.747 36.3883 36.7496 37.3968 36.0567 38.6075C35.3638 39.8182 34.9995 41.1891 35 42.5841V53.0001H47V49.8001C46.9996 49.2353 47.1188 48.6769 47.3498 48.1616C47.5808 47.6462 47.9182 47.1856 48.34 46.8101L55.1 40.8001C55.6892 40.2815 56.1105 39.5991 56.31 38.8401L60.66 22.6101C60.7642 22.2164 60.7873 21.8057 60.7279 21.4029C60.6686 21.0001 60.5281 20.6135 60.3149 20.2665C60.1017 19.9196 59.8203 19.6196 59.4877 19.3847C59.1551 19.1499 58.7782 18.985 58.38 18.9001Z" fill="#FFBCAB"/>
<path d="M34 53V61H48V53H47H35H34Z" fill="#006DF0"/>
<path d="M30 53H29H17H16V61H30V53Z" fill="#006DF0"/>
<path d="M45.4403 18.5601L44.7303 19.2701L32.0003 32.0001L19.2703 19.2701L18.5603 18.5601C17.6955 17.7309 17.005 16.7374 16.5292 15.6378C16.0534 14.5382 15.8019 13.3547 15.7895 12.1566C15.7772 10.9585 16.0042 9.77007 16.4572 8.66088C16.9102 7.5517 17.5801 6.54413 18.4276 5.69726C19.2751 4.85039 20.2832 4.18127 21.3928 3.72914C22.5023 3.27701 23.691 3.05097 24.889 3.06428C26.0871 3.07758 27.2704 3.32996 28.3696 3.80662C29.4688 4.28329 30.4618 4.97463 31.2903 5.84011L32.0003 6.55011L32.7103 5.84011C33.5389 4.97463 34.5319 4.28329 35.6311 3.80662C36.7303 3.32996 37.9136 3.07758 39.1117 3.06428C40.3097 3.05097 41.4984 3.27701 42.6079 3.72914C43.7175 4.18127 44.7256 4.85039 45.5731 5.69726C46.4206 6.54413 47.0905 7.5517 47.5435 8.66088C47.9965 9.77007 48.2235 10.9585 48.2111 12.1566C48.1988 13.3547 47.9473 14.5382 47.4715 15.6378C46.9957 16.7374 46.3052 17.7309 45.4403 18.5601Z" fill="#D80027"/>
<path d="M45.44 5.8401C44.4886 4.87858 43.3306 4.14657 42.0538 3.69968C40.7771 3.2528 39.4154 3.10281 38.072 3.2611C39.7562 3.44776 41.3534 4.10639 42.6796 5.16114C44.0058 6.21589 45.0071 7.62383 45.5681 9.22278C46.1291 10.8217 46.227 12.5466 45.8505 14.1988C45.474 15.8509 44.6384 17.3631 43.44 18.5611L42.73 19.2711L31 31.0001L32 32.0001L44.73 19.2701L45.44 18.5601C47.1254 16.8726 48.0721 14.5851 48.0721 12.2001C48.0721 9.8151 47.1254 7.52761 45.44 5.8401Z" fill="#BD0022"/>
<path d="M34 22V18H38V14H34V10H30V14H26V18H30V22H34Z" fill="#F1F2F2"/>
<path d="M50.7942 33.7001L44.1103 37.4001C43.9192 37.5107 43.7776 37.69 43.7142 37.9015C43.6509 38.1129 43.6705 38.3406 43.7693 38.5381C43.822 38.6436 43.8959 38.7373 43.9862 38.8133C44.0765 38.8893 44.1815 38.946 44.2945 38.9799C44.4076 39.0138 44.5264 39.0242 44.6436 39.0105C44.7609 38.9968 44.8741 38.9592 44.9763 38.9001L50.7942 35.7001C51.4017 35.3479 51.8664 34.7939 52.1074 34.1344C52.3484 33.475 52.3505 32.7519 52.1132 32.0911C51.8819 32.7688 51.4135 33.3402 50.7942 33.7001Z" fill="#FFAC96"/>
<path d="M13.2063 33.7001L19.8904 37.4001C20.0814 37.5107 20.223 37.69 20.2864 37.9015C20.3498 38.1129 20.3301 38.3406 20.2314 38.5381C20.1786 38.6436 20.1048 38.7373 20.0144 38.8133C19.9241 38.8893 19.8192 38.946 19.7061 38.9799C19.593 39.0138 19.4742 39.0242 19.357 39.0105C19.2397 38.9968 19.1265 38.9592 19.0244 38.9001L13.2063 35.7001C12.5989 35.3479 12.1342 34.7939 11.8932 34.1344C11.6522 33.475 11.6501 32.7519 11.8873 32.0911C12.1187 32.7688 12.5871 33.3402 13.2063 33.7001Z" fill="#FFAC96"/>
<path d="M38 13H35V10C35 9.73478 34.8946 9.48043 34.7071 9.29289C34.5196 9.10536 34.2652 9 34 9H30C29.7348 9 29.4804 9.10536 29.2929 9.29289C29.1054 9.48043 29 9.73478 29 10V13H26C25.7348 13 25.4804 13.1054 25.2929 13.2929C25.1054 13.4804 25 13.7348 25 14V18C25 18.2652 25.1054 18.5196 25.2929 18.7071C25.4804 18.8946 25.7348 19 26 19H29V22C29 22.2652 29.1054 22.5196 29.2929 22.7071C29.4804 22.8946 29.7348 23 30 23H34C34.2652 23 34.5196 22.8946 34.7071 22.7071C34.8946 22.5196 35 22.2652 35 22V19H38C38.2652 19 38.5196 18.8946 38.7071 18.7071C38.8946 18.5196 39 18.2652 39 18V14C39 13.7348 38.8946 13.4804 38.7071 13.2929C38.5196 13.1054 38.2652 13 38 13ZM37 17H34C33.7348 17 33.4804 17.1054 33.2929 17.2929C33.1054 17.4804 33 17.7348 33 18V21H31V18C31 17.7348 30.8946 17.4804 30.7071 17.2929C30.5196 17.1054 30.2652 17 30 17H27V15H30C30.2652 15 30.5196 14.8946 30.7071 14.7071C30.8946 14.5196 31 14.2652 31 14V11H33V14C33 14.2652 33.1054 14.5196 33.2929 14.7071C33.4804 14.8946 33.7348 15 34 15H37V17Z" fill="#231F20"/>
<path d="M59.73 18.36C59.7502 18.184 59.7603 18.0071 59.76 17.83C59.7552 16.9133 59.4372 16.0259 58.8588 15.3148C58.2804 14.6036 57.4764 14.1115 56.58 13.92C55.566 13.727 54.5166 13.9263 53.644 14.4777C52.7715 15.0291 52.1409 15.8913 51.88 16.89L47.48 29.55C47.4148 29.5758 47.3513 29.6059 47.29 29.64L38.45 34.82C37.0973 35.6145 35.9753 36.7483 35.1949 38.1092C34.4144 39.4702 34.0026 41.0112 34 42.58V52C33.7348 52 33.4804 52.1053 33.2929 52.2929C33.1054 52.4804 33 52.7347 33 53V61C33 61.2652 33.1054 61.5195 33.2929 61.7071C33.4804 61.8946 33.7348 62 34 62H48C48.2652 62 48.5196 61.8946 48.7071 61.7071C48.8946 61.5195 49 61.2652 49 61V53C49 52.7347 48.8946 52.4804 48.7071 52.2929C48.5196 52.1053 48.2652 52 48 52V49.8C48.0019 49.3776 48.0918 48.9603 48.2639 48.5746C48.4361 48.1889 48.6868 47.8433 49 47.56L55.76 41.55C56.4994 40.903 57.0287 40.0498 57.28 39.1L61.62 22.87C61.7127 22.5311 61.7597 22.1813 61.76 21.83C61.7561 21.1243 61.5664 20.432 61.2101 19.8229C60.8537 19.2138 60.3432 18.7092 59.73 18.36ZM53.79 17.48C53.9128 16.9628 54.2259 16.5109 54.667 16.2144C55.1081 15.9178 55.6448 15.7984 56.17 15.88C56.6182 15.9738 57.0207 16.2187 57.3101 16.5736C57.5994 16.9285 57.7583 17.372 57.76 17.83V17.85C56.8668 17.8665 56.0034 18.1744 55.3012 18.7268C54.599 19.2791 54.0965 20.0457 53.87 20.91L51.08 29.52C50.6576 29.3196 50.2047 29.1912 49.74 29.14L53.79 17.48ZM47 60H35V54H47V60ZM59.69 22.35L55.34 38.59C55.1895 39.1543 54.8765 39.662 54.44 40.05L47.67 46.06C47.1461 46.5324 46.7269 47.1092 46.4393 47.7533C46.1517 48.3974 46.0021 49.0946 46 49.8V52H36V42.58C36.005 41.3599 36.3264 40.162 36.9328 39.1033C37.5393 38.0446 38.4101 37.1614 39.46 36.54L48.29 31.37C48.5177 31.2373 48.7693 31.151 49.0305 31.1159C49.2916 31.0808 49.5571 31.0976 49.8117 31.1655C50.0663 31.2333 50.305 31.3508 50.5141 31.5111C50.7232 31.6715 50.8985 31.8716 51.03 32.1C51.2897 32.562 51.3614 33.1064 51.23 33.62C51.1605 33.8735 51.0418 34.1109 50.8805 34.3186C50.7192 34.5262 50.5185 34.7 50.29 34.83L44.56 38.14C44.3423 38.2783 44.1866 38.4955 44.1252 38.746C44.0638 38.9965 44.1016 39.261 44.2307 39.4843C44.3598 39.7076 44.5701 39.8724 44.8179 39.9443C45.0656 40.0161 45.3315 39.9895 45.56 39.87L51.29 36.56C51.748 36.3001 52.1494 35.9512 52.4705 35.5339C52.7917 35.1166 53.0261 34.6392 53.16 34.13C53.4322 33.1068 53.2884 32.0175 52.76 31.1L52.7 31.01L55.79 21.48C55.9128 20.9628 56.2259 20.5109 56.667 20.2144C57.1081 19.9178 57.6448 19.7984 58.17 19.88C58.6182 19.9738 59.0207 20.2187 59.3101 20.5736C59.5994 20.9285 59.7583 21.372 59.76 21.83C59.7634 22.0059 59.7398 22.1812 59.69 22.35Z" fill="#231F20"/>
<path d="M30.0002 51.9999V42.5799C29.9976 41.0111 29.5858 39.4701 28.8054 38.1092C28.0249 36.7483 26.9029 35.6145 25.5502 34.8199L16.7102 29.6299C16.6502 29.5999 16.5802 29.5799 16.5202 29.5499L12.1502 16.9599C11.8962 15.9467 11.2657 15.0684 10.387 14.5036C9.5083 13.9389 8.4474 13.7301 7.42023 13.9199C6.52383 14.1115 5.71979 14.6036 5.14142 15.3147C4.56305 16.0259 4.24508 16.9133 4.24023 17.8299C4.23997 18.007 4.24999 18.184 4.27023 18.3599C3.657 18.7092 3.14654 19.2138 2.79019 19.8229C2.43383 20.432 2.24416 21.1242 2.24023 21.8299C2.24218 22.1805 2.28582 22.5297 2.37023 22.8699L6.72023 39.0899C6.96882 40.0438 7.4984 40.9009 8.24023 41.5499L14.9902 47.5599C15.3066 47.8414 15.56 48.1863 15.734 48.5723C15.9081 48.9582 15.9988 49.3766 16.0002 49.7999V51.9999C15.735 51.9999 15.4807 52.1053 15.2931 52.2928C15.1056 52.4804 15.0002 52.7347 15.0002 52.9999V60.9999C15.0002 61.2652 15.1056 61.5195 15.2931 61.7071C15.4807 61.8946 15.735 61.9999 16.0002 61.9999H30.0002C30.2655 61.9999 30.5198 61.8946 30.7073 61.7071C30.8949 61.5195 31.0002 61.2652 31.0002 60.9999V52.9999C31.0002 52.7347 30.8949 52.4804 30.7073 52.2928C30.5198 52.1053 30.2655 51.9999 30.0002 51.9999ZM6.24023 17.8299C6.24147 17.3734 6.39887 16.931 6.68629 16.5763C6.97372 16.2215 7.37386 15.9758 7.82023 15.8799C8.35989 15.8016 8.90922 15.9302 9.35804 16.2399C9.80686 16.5496 10.122 17.0176 10.2402 17.5499L14.2602 29.1399C13.7955 29.1911 13.3426 29.3196 12.9202 29.5199L10.1502 20.9599C9.9248 20.0872 9.42127 19.3116 8.71581 18.7505C8.01035 18.1893 7.14134 17.8732 6.24023 17.8499V17.8299ZM16.3202 46.0599L9.56024 40.0499C9.12129 39.6599 8.80805 39.1483 8.66023 38.5799L4.30023 22.3499C4.25884 22.1798 4.23869 22.0051 4.24023 21.8299C4.24147 21.3734 4.39887 20.931 4.68629 20.5763C4.97372 20.2215 5.37386 19.9758 5.82023 19.8799C6.3561 19.7995 6.90254 19.925 7.34965 20.2311C7.79676 20.5372 8.11138 21.0013 8.23023 21.5299L11.3002 31.0099L11.2402 31.0999C10.7118 32.0174 10.568 33.1068 10.8402 34.1299C10.9741 34.6392 11.2085 35.1166 11.5297 35.5339C11.8508 35.9512 12.2522 36.3001 12.7102 36.5599L18.4402 39.8699C18.6688 39.9895 18.9347 40.0161 19.1824 39.9443C19.4301 39.8724 19.6405 39.7076 19.7695 39.4843C19.8986 39.261 19.9364 38.9965 19.875 38.746C19.8137 38.4954 19.6579 38.2783 19.4402 38.1399L13.7102 34.8299C13.4817 34.6999 13.2811 34.5262 13.1198 34.3185C12.9585 34.1109 12.8397 33.8735 12.7702 33.6199C12.6389 33.1064 12.7105 32.562 12.9702 32.0999C13.1009 31.8721 13.2752 31.6722 13.4831 31.5117C13.691 31.3512 13.9285 31.2332 14.182 31.1645C14.4355 31.0958 14.7 31.0777 14.9605 31.1112C15.221 31.1448 15.4724 31.2293 15.7002 31.3599L24.5402 36.5399C25.5902 37.1614 26.4609 38.0446 27.0674 39.1033C27.6739 40.162 27.9953 41.3599 28.0002 42.5799V51.9999H18.0002V49.7999C17.9985 49.0935 17.848 48.3954 17.5586 47.751C17.2691 47.1066 16.8472 46.5304 16.3202 46.0599ZM29.0002 59.9999H17.0002V53.9999H29.0002V59.9999Z" fill="#231F20"/>
<path d="M46.147 5.13209C45.2186 4.20212 44.116 3.46436 42.9022 2.96102C41.6884 2.45767 40.3873 2.19864 39.0732 2.19873C37.7592 2.19882 36.4581 2.45804 35.2444 2.96156C34.0307 3.46507 32.9282 4.20299 32 5.13309C31.0718 4.20297 29.9694 3.46504 28.7557 2.96155C27.542 2.45806 26.2409 2.1989 24.927 2.1989C23.613 2.1989 22.3119 2.45806 21.0982 2.96155C19.8845 3.46504 18.7821 4.20297 17.854 5.13309C15.9823 7.00877 14.9312 9.55032 14.9312 12.2001C14.9312 14.8499 15.9823 17.3914 17.854 19.2671L31.294 32.7071C31.4815 32.8946 31.7358 32.9999 32.001 32.9999C32.2661 32.9999 32.5204 32.8946 32.708 32.7071L46.148 19.2671C48.0195 17.3911 49.0705 14.8493 49.0703 12.1994C49.0702 9.54945 48.0188 7.00781 46.147 5.13209ZM32 30.5861L19.267 17.8531C18.1491 16.7337 17.3882 15.308 17.0805 13.7562C16.7727 12.2045 16.932 10.5963 17.5381 9.13504C18.1442 7.67378 19.17 6.42501 20.4857 5.54662C21.8014 4.66822 23.348 4.19963 24.93 4.20009C25.9808 4.19648 27.0219 4.40215 27.9925 4.80511C28.963 5.20806 29.8436 5.80023 30.583 6.54709L31.293 7.25709C31.4805 7.44456 31.7348 7.54988 32 7.54988C32.2651 7.54988 32.5194 7.44456 32.707 7.25709L33.419 6.54509C34.1614 5.80134 35.0431 5.21129 36.0138 4.8087C36.9845 4.40612 38.0251 4.19889 39.076 4.19889C40.1268 4.19889 41.1674 4.40612 42.1381 4.8087C43.1088 5.21129 43.9905 5.80134 44.733 6.54509C46.2309 8.04507 47.0722 10.0782 47.0722 12.1981C47.0722 14.3179 46.2309 16.3511 44.733 17.8511L32 30.5861Z" fill="#231F20"/>
</svg>
