<svg width="527" height="334" viewBox="0 0 527 334" fill="none" xmlns="http://www.w3.org/2000/svg">
<g style="mix-blend-mode:multiply" opacity="0.1">
<path d="M131 265.5C131 269.635 101.673 273 65.5 273C29.3274 273 0 269.635 0 265.5C0 261.365 29.3274 258 65.5 258C101.673 258 131 261.301 131 265.5Z" fill="black"/>
</g>
<g style="mix-blend-mode:multiply" opacity="0.1">
<path d="M405.956 277.875C405.956 281.955 339.955 285.275 258.561 285.275C177.167 285.275 111.182 281.955 111.182 277.875C111.182 273.795 177.167 270.474 258.561 270.474C339.955 270.474 405.956 273.779 405.956 277.875Z" fill="black"/>
</g>
<g style="mix-blend-mode:multiply" opacity="0.1">
<path d="M526.394 307.398C526.394 311.493 484.471 314.798 432.74 314.798C381.008 314.798 339.101 311.493 339.101 307.398C339.101 303.302 381.024 299.997 432.74 299.997C484.455 299.997 526.394 303.318 526.394 307.398Z" fill="black"/>
</g>
<g style="mix-blend-mode:multiply" opacity="0.55">
<path d="M339.101 300.076C339.101 302.243 330.7 303.998 320.354 303.998C310.008 303.998 301.623 302.243 301.623 300.076C301.623 297.91 310.008 296.155 320.354 296.155C330.7 296.155 339.101 297.91 339.101 300.076Z" fill="#D9E8FF"/>
</g>
<path opacity="0.2" d="M365.268 85.3842C365.588 82.8611 365.63 80.3105 365.394 77.7781C365.163 75.25 364.664 72.7534 363.907 70.3303L354.779 72.5757C353.908 70.0436 352.654 67.6599 351.061 65.5073L358.054 59.1821C354.918 55.1651 350.959 51.8654 346.442 49.5046L341.538 57.506C339.133 56.3241 336.561 55.5187 333.912 55.1182L334.419 45.7569C331.894 45.4369 329.343 45.3945 326.809 45.6305C324.28 45.863 321.782 46.3612 319.358 47.1169L321.557 56.2409C319.024 57.1114 316.639 58.3646 314.485 59.957L308.157 52.9677C304.168 56.1408 300.905 60.1307 298.586 64.6692L306.591 69.5712C305.407 71.9779 304.606 74.5549 304.218 77.2089L294.837 76.6871C294.208 81.7445 294.672 86.8779 296.197 91.741L305.326 89.543C306.196 92.075 307.45 94.4588 309.043 96.6113L302.067 102.937C305.199 106.957 309.159 110.257 313.678 112.614L318.567 104.613C320.978 105.792 323.554 106.598 326.208 107L325.686 116.362C330.746 116.99 335.881 116.526 340.747 115.002L338.5 105.783C341.033 104.912 343.418 103.659 345.572 102.067L351.9 109.056C355.923 105.92 359.224 101.956 361.581 97.4336L353.577 92.5474C354.757 90.1378 355.562 87.5623 355.965 84.9098L365.268 85.3842ZM331.349 95.4254C328.495 95.6858 325.627 95.0941 323.109 93.7253C320.591 92.3565 318.536 90.272 317.203 87.7354C315.87 85.1988 315.32 82.3241 315.622 79.475C315.924 76.6258 317.064 73.9302 318.899 71.7289C320.734 69.5277 323.181 67.9198 325.93 67.1087C328.679 66.2975 331.607 66.3195 334.343 67.1718C337.08 68.0242 339.502 69.6686 341.304 71.8971C343.105 74.1256 344.205 76.8381 344.464 79.6915C344.811 83.5161 343.625 87.322 341.166 90.2724C338.706 93.2229 335.176 95.0763 331.349 95.4254Z" fill="white"/>
<path opacity="0.2" d="M287.957 23.6546C288.134 22.1535 288.161 20.6384 288.036 19.1321C287.898 17.6342 287.601 16.1553 287.15 14.7203L281.724 16.0169C281.215 14.5135 280.473 13.0994 279.525 11.8265L283.67 8.09464C281.802 5.71588 279.451 3.75959 276.772 2.35457L273.861 7.09844C272.437 6.39109 270.91 5.91088 269.337 5.67526L269.637 0.124937C268.139 -0.0416458 266.627 -0.0416458 265.129 0.124937C263.625 0.26416 262.141 0.560961 260.699 1.01046L262.012 6.41847C260.504 6.93571 259.085 7.68244 257.804 8.6323L254.086 4.4893C251.698 6.34149 249.739 8.68801 248.344 11.3679L253.09 14.2775C252.394 15.7107 251.92 17.2408 251.682 18.8158L246.113 18.4995C245.962 20.0033 245.962 21.5183 246.113 23.022C246.256 24.5205 246.558 25.9994 247.015 27.4339L252.425 26.1372C252.936 27.6427 253.684 29.0572 254.64 30.3276L250.479 34.0437C252.346 36.4278 254.697 38.3895 257.377 39.7996L260.288 35.0557C261.715 35.756 263.241 36.2359 264.812 36.4789L264.512 42.0292C266.007 42.2221 267.519 42.2486 269.02 42.1082C270.524 41.9705 272.009 41.6737 273.45 41.2227L272.153 35.7989C273.654 35.2837 275.068 34.5425 276.345 33.6009L280.063 37.7439C282.451 35.8917 284.41 33.5452 285.805 30.8653L281.059 27.9557C281.76 26.5244 282.235 24.9936 282.467 23.4174L287.957 23.6546ZM267.818 29.616C266.123 29.7717 264.419 29.4213 262.923 28.6091C261.427 27.7969 260.206 26.5595 259.414 25.0533C258.621 23.5471 258.294 21.8399 258.472 20.1476C258.651 18.4553 259.328 16.854 260.417 15.5462C261.506 14.2383 262.959 13.2828 264.591 12.8005C266.224 12.3181 267.963 12.3306 269.589 12.8363C271.214 13.3421 272.653 14.3184 273.723 15.6417C274.794 16.965 275.447 18.5759 275.602 20.2706C275.804 22.5405 275.099 24.798 273.64 26.5494C272.181 28.3008 270.088 29.4034 267.818 29.616Z" fill="white"/>
<path opacity="0.5" d="M162.911 65.4365L166.075 60.9457C162.978 58.4198 159.357 56.6155 155.475 55.6642L153.767 60.8508C151.603 60.365 149.379 60.2103 147.17 60.3922L146.189 55C144.208 55.2019 142.256 55.6208 140.367 56.2492C138.476 56.8841 136.661 57.7274 134.957 58.7635L137.425 63.6497C135.55 64.8346 133.869 66.3013 132.441 67.9982L127.933 64.8356C125.414 67.942 123.61 71.5646 122.649 75.4461L127.853 77.1539C127.359 79.3148 127.204 81.5394 127.395 83.7479L122 84.7125C122.395 88.6951 123.682 92.5378 125.765 95.9555L130.654 93.4728C131.829 95.3542 133.291 97.0402 134.988 98.4697L131.824 102.961C134.928 105.475 138.546 107.278 142.424 108.242L144.132 103.04C146.293 103.538 148.519 103.699 150.729 103.514L151.71 108.906C153.69 108.704 155.643 108.285 157.532 107.657C159.423 107.022 161.238 106.179 162.942 105.143L160.474 100.257C162.351 99.0678 164.036 97.6017 165.473 95.908L169.966 99.0706C172.479 95.9603 174.282 92.3392 175.25 88.4601L170.045 86.7523C170.54 84.5914 170.694 82.3668 170.504 80.1584L175.899 79.1938C175.523 75.207 174.235 71.36 172.134 67.9508L167.245 70.4176C166.065 68.5441 164.603 66.864 162.911 65.4365ZM153.308 95.0541C150.717 95.92 147.928 95.9986 145.293 95.2802C142.658 94.5617 140.295 93.0783 138.504 91.0176C136.712 88.9569 135.572 86.4115 135.227 83.7031C134.883 80.9948 135.349 78.2451 136.568 75.8019C137.787 73.3586 139.703 71.3315 142.075 69.9768C144.446 68.6221 147.166 68.0006 149.891 68.191C152.616 68.3814 155.223 69.3752 157.383 71.0465C159.542 72.7179 161.158 74.9918 162.025 77.5809C162.6 79.3003 162.831 81.1162 162.705 82.9249C162.578 84.7336 162.097 86.4997 161.287 88.1223C160.478 89.7449 159.356 91.1922 157.987 92.3816C156.618 93.571 155.028 94.4791 153.308 95.0541Z" fill="white"/>
<path d="M146.635 74.916H365.963C369.74 74.916 373.361 76.4154 376.031 79.0843C378.701 81.7533 380.201 85.3731 380.201 89.1476V277.891H132.334V89.2108C132.325 87.3313 132.689 85.4687 133.405 83.7305C134.121 81.9924 135.174 80.4132 136.504 79.0842C137.833 77.7551 139.413 76.7025 141.152 75.987C142.891 75.2716 144.754 74.9076 146.635 74.916Z" fill="white"/>
<path opacity="0.55" d="M229.706 221.533H153.627C151.81 221.533 150.337 223.006 150.337 224.823V259.279C150.337 261.095 151.81 262.568 153.627 262.568H229.706C231.523 262.568 232.996 261.095 232.996 259.279V224.823C232.996 223.006 231.523 221.533 229.706 221.533Z" fill="#D2EBFA"/>
<path opacity="0.55" d="M296.276 106.052H152.188C151.166 106.052 150.337 106.88 150.337 107.902V111.555C150.337 112.576 151.166 113.405 152.188 113.405H296.276C297.299 113.405 298.127 112.576 298.127 111.555V107.902C298.127 106.88 297.299 106.052 296.276 106.052Z" fill="#D2EBFA"/>
<path opacity="0.55" d="M296.276 121.232H152.188C151.166 121.232 150.337 122.06 150.337 123.082V126.735C150.337 127.757 151.166 128.585 152.188 128.585H296.276C297.299 128.585 298.127 127.757 298.127 126.735V123.082C298.127 122.06 297.299 121.232 296.276 121.232Z" fill="#D2EBFA"/>
<path opacity="0.55" d="M296.276 136.412H152.188C151.166 136.412 150.337 137.241 150.337 138.263V141.915C150.337 142.937 151.166 143.765 152.188 143.765H296.276C297.299 143.765 298.127 142.937 298.127 141.915V138.263C298.127 137.241 297.299 136.412 296.276 136.412Z" fill="#D2EBFA"/>
<path opacity="0.55" d="M296.276 151.593H152.188C151.166 151.593 150.337 152.421 150.337 153.443V157.096C150.337 158.118 151.166 158.946 152.188 158.946H296.276C297.299 158.946 298.127 158.118 298.127 157.096V153.443C298.127 152.421 297.299 151.593 296.276 151.593Z" fill="#D2EBFA"/>
<path opacity="0.55" d="M296.276 166.773H152.188C151.166 166.773 150.337 167.602 150.337 168.623V172.276C150.337 173.298 151.166 174.126 152.188 174.126H296.276C297.299 174.126 298.127 173.298 298.127 172.276V168.623C298.127 167.602 297.299 166.773 296.276 166.773Z" fill="#D2EBFA"/>
<path opacity="0.55" d="M296.276 181.954H152.188C151.166 181.954 150.337 182.782 150.337 183.804V187.457C150.337 188.478 151.166 189.307 152.188 189.307H296.276C297.299 189.307 298.127 188.478 298.127 187.457V183.804C298.127 182.782 297.299 181.954 296.276 181.954Z" fill="#D2EBFA"/>
<path d="M299.045 253.507L300.516 256.48L303.807 256.97L301.434 259.295L301.988 262.568L299.045 261.018L296.103 262.568L296.672 259.295L294.283 256.97L297.574 256.48L299.045 253.507Z" fill="#D2EBFA"/>
<path d="M313.647 253.507L315.118 256.48L318.408 256.97L316.02 259.295L316.589 262.568L313.647 261.018L310.704 262.568L311.258 259.295L308.885 256.97L312.175 256.48L313.647 253.507Z" fill="#D2EBFA"/>
<path d="M328.233 253.507L329.72 256.48L332.994 256.97L330.621 259.295L331.191 262.568L328.233 261.018L325.29 262.568L325.86 259.295L323.471 256.97L326.777 256.48L328.233 253.507Z" fill="#D2EBFA"/>
<path d="M342.834 253.507L344.305 256.48L347.596 256.97L345.223 259.295L345.777 262.568L342.834 261.018L339.892 262.568L340.461 259.295L338.072 256.97L341.363 256.48L342.834 253.507Z" fill="#D2EBFA"/>
<path d="M357.436 253.507L358.907 256.48L362.198 256.97L359.809 259.295L360.379 262.568L357.436 261.018L354.494 262.568L355.047 259.295L352.674 256.97L355.965 256.48L357.436 253.507Z" fill="#DBE0FE"/>
<path d="M285.25 137.251C275.048 134.001 265.79 128.319 258.276 120.694C250.785 128.308 241.556 133.989 231.382 137.251C220.86 140.477 209.893 142.025 198.888 141.836C198.888 141.836 198.888 198.842 218.442 221.818C236.809 243.387 258.356 247.119 258.356 247.119C258.356 247.119 279.902 243.324 298.269 221.818C317.823 198.842 317.823 141.836 317.823 141.836C306.791 142.033 295.798 140.486 285.25 137.251Z" fill="#0D9992"/>
<path opacity="0.75" d="M256.299 238.105C243.311 234.163 231.762 226.505 223.077 216.078C210.99 201.846 206.877 169.208 205.88 150.454C214.776 149.967 223.577 148.373 232.078 145.71C240.849 142.803 249.046 138.388 256.299 132.665C263.54 138.389 271.726 142.803 280.488 145.71C288.984 148.373 297.779 149.967 306.67 150.454C305.689 169.208 301.576 201.878 289.489 216.078C280.813 226.5 269.275 234.157 256.299 238.105Z" fill="white"/>
<path d="M256.299 235.18C244.154 231.338 233.38 224.067 225.276 214.244C214.202 201.23 210.073 171.723 208.902 153.063C217.094 152.408 225.183 150.816 233.012 148.32C241.372 145.553 249.235 141.463 256.299 136.207C263.371 141.464 271.238 145.559 279.602 148.335C287.431 150.832 295.52 152.424 303.712 153.079C302.509 171.754 298.396 201.293 287.338 214.259C279.23 224.083 268.45 231.349 256.299 235.18Z" fill="#0D9992"/>
<path d="M266.282 173.778C266.279 175.751 265.691 177.679 264.592 179.318C263.493 180.956 261.933 182.233 260.108 182.986C258.284 183.738 256.278 183.934 254.342 183.547C252.407 183.16 250.63 182.209 249.235 180.812C247.841 179.416 246.891 177.639 246.508 175.703C246.124 173.768 246.322 171.763 247.078 169.941C247.834 168.118 249.114 166.561 250.755 165.465C252.396 164.369 254.326 163.785 256.299 163.785C257.612 163.785 258.911 164.043 260.123 164.546C261.335 165.048 262.436 165.785 263.364 166.713C264.291 167.641 265.026 168.743 265.526 169.955C266.027 171.168 266.284 172.467 266.282 173.778Z" fill="white"/>
<path d="M256.299 204.772C255.183 204.772 254.113 204.329 253.324 203.54C252.535 202.751 252.091 201.681 252.091 200.565V177.558C252.091 176.442 252.535 175.372 253.324 174.583C254.113 173.795 255.183 173.352 256.299 173.352C257.415 173.352 258.486 173.795 259.275 174.583C260.064 175.372 260.508 176.442 260.508 177.558V200.565C260.508 201.681 260.064 202.751 259.275 203.54C258.486 204.329 257.415 204.772 256.299 204.772Z" fill="white"/>
<g style="mix-blend-mode:multiply" opacity="0.25">
<path d="M283.272 137.251C273.07 134.001 263.813 128.319 256.299 120.694V247.198C256.299 247.198 277.846 243.403 296.213 221.897C315.766 198.921 315.766 141.915 315.766 141.915C304.757 142.079 293.79 140.504 283.272 137.251Z" fill="#5890F4"/>
</g>
<path d="M365.963 74.916H146.714C142.938 74.916 139.316 76.4154 136.646 79.0843C133.976 81.7533 132.476 85.3731 132.476 89.1476V95.9472H380.265V89.1476C380.265 87.2734 379.894 85.4175 379.175 83.6867C378.455 81.956 377.401 80.3843 376.072 79.0619C374.743 77.7395 373.166 76.6926 371.432 75.9811C369.697 75.2696 367.839 74.9076 365.963 74.916Z" fill="#0D9992"/>
<path d="M343.467 85.4632C343.467 85.9167 343.333 86.36 343.081 86.7371C342.828 87.1141 342.47 87.408 342.051 87.5816C341.632 87.7551 341.171 87.8005 340.726 87.712C340.281 87.6236 339.872 87.4052 339.551 87.0845C339.23 86.7639 339.012 86.3553 338.923 85.9105C338.835 85.4658 338.88 85.0048 339.054 84.5858C339.228 84.1668 339.522 83.8087 339.899 83.5568C340.276 83.3049 340.72 83.1704 341.173 83.1704C341.782 83.1704 342.365 83.412 342.795 83.8419C343.225 84.2719 343.467 84.8551 343.467 85.4632Z" fill="white"/>
<path d="M354.858 85.4632C354.858 85.9167 354.723 86.36 354.471 86.7371C354.219 87.1141 353.861 87.408 353.442 87.5816C353.023 87.7551 352.561 87.8005 352.116 87.712C351.671 87.6236 351.263 87.4052 350.942 87.0845C350.621 86.7639 350.403 86.3553 350.314 85.9105C350.226 85.4658 350.271 85.0048 350.445 84.5858C350.618 84.1668 350.912 83.8087 351.29 83.5568C351.667 83.3049 352.11 83.1704 352.564 83.1704C353.172 83.1704 353.756 83.412 354.186 83.8419C354.616 84.2719 354.858 84.8551 354.858 85.4632Z" fill="white"/>
<path d="M366.232 85.4633C366.232 85.9174 366.097 86.3614 365.845 86.7388C365.592 87.1162 365.233 87.41 364.813 87.5831C364.392 87.7562 363.93 87.8006 363.485 87.7109C363.04 87.6211 362.631 87.4012 362.311 87.0789C361.991 86.7567 361.773 86.3466 361.687 85.9008C361.6 85.455 361.648 84.9935 361.824 84.5748C362 84.1562 362.296 83.7992 362.676 83.5491C363.055 83.2991 363.5 83.1673 363.954 83.1704C364.56 83.1746 365.139 83.418 365.566 83.8475C365.993 84.2771 366.232 84.8579 366.232 85.4633Z" fill="white"/>
<path d="M498.266 256.654C495.496 256.66 492.745 257.114 490.119 257.998C490.042 252.807 488.943 247.681 486.884 242.914C484.826 238.147 481.848 233.832 478.121 230.216C474.394 226.599 469.991 223.752 465.163 221.836C460.335 219.92 455.177 218.974 449.984 219.051C444.79 219.128 439.662 220.226 434.893 222.284C430.124 224.342 425.807 227.318 422.189 231.043C418.571 234.768 415.722 239.17 413.805 243.995C411.889 248.821 410.942 253.977 411.019 259.168C411.019 260.164 411.019 261.145 411.145 262.125C408.708 257.998 404.983 254.786 400.541 252.982C396.1 251.177 391.189 250.881 386.562 252.139C381.936 253.396 377.851 256.138 374.935 259.942C372.02 263.746 370.435 268.402 370.425 273.194C370.425 274.872 370.621 276.543 371.01 278.175C368.913 277.033 366.582 276.383 364.195 276.277C361.809 276.172 359.43 276.611 357.239 277.564C355.049 278.516 353.105 279.956 351.555 281.773C350.006 283.59 348.892 285.737 348.298 288.05C347.704 290.363 347.647 292.78 348.13 295.119C348.612 297.457 349.623 299.655 351.084 301.544C352.545 303.433 354.419 304.963 356.561 306.019C358.704 307.074 361.059 307.627 363.448 307.635H498.266C505.03 307.635 511.516 304.949 516.299 300.169C521.081 295.388 523.768 288.905 523.768 282.144C523.768 275.384 521.081 268.9 516.299 264.12C511.516 259.34 505.03 256.654 498.266 256.654Z" fill="white"/>
<path d="M22.3848 234.5C24.2089 234.501 26.0204 234.8 27.7478 235.386C27.8506 228.499 30.686 221.936 35.6302 217.139C40.5744 212.342 47.2225 209.705 54.1118 209.808C61.0012 209.911 67.5676 212.745 72.3664 217.687C77.1653 222.629 79.8035 229.274 79.7007 236.16C79.7007 236.809 79.7007 237.457 79.6216 238.105C81.229 235.392 83.6834 233.282 86.6075 232.099C89.5316 230.916 92.7635 230.726 95.8063 231.558C98.8491 232.389 101.534 234.197 103.449 236.703C105.364 239.209 106.402 242.274 106.405 245.427C106.402 246.53 106.269 247.628 106.009 248.7C107.54 247.837 109.267 247.385 111.024 247.388C112.414 247.333 113.8 247.56 115.1 248.054C116.4 248.548 117.587 249.299 118.589 250.263C119.591 251.226 120.389 252.382 120.933 253.661C121.478 254.94 121.759 256.316 121.759 257.706C121.759 259.096 121.478 260.471 120.933 261.75C120.389 263.029 119.591 264.185 118.589 265.148C117.587 266.112 116.4 266.863 115.1 267.357C113.8 267.851 112.414 268.078 111.024 268.023H22.4323C17.9848 268.023 13.7195 266.257 10.5747 263.114C7.42985 259.971 5.66309 255.707 5.66309 251.262C5.66309 246.816 7.42985 242.553 10.5747 239.409C13.7195 236.266 17.9848 234.5 22.4323 234.5H22.3848Z" fill="white"/>
<path d="M379.537 145.805L385.375 143.718C384.17 139.345 382.009 135.294 379.047 131.858L374.048 135.543C372.372 133.674 370.419 132.074 368.258 130.799L370.9 125.169C368.939 124.05 366.859 123.153 364.698 122.497C362.532 121.835 360.298 121.421 358.038 121.264L357.104 127.399C354.593 127.257 352.074 127.503 349.637 128.126L347.628 122.26C343.255 123.468 339.203 125.628 335.763 128.585L339.434 133.582C337.564 135.262 335.963 137.22 334.688 139.385L329.056 136.729C326.793 140.663 325.452 145.058 325.132 149.585L331.286 150.518C331.144 153.028 331.39 155.545 332.014 157.981L326.161 160.084C327.377 164.453 329.537 168.501 332.489 171.944L337.488 168.26C339.163 170.128 341.116 171.728 343.278 173.004L340.636 178.633C342.599 179.751 344.679 180.653 346.837 181.321C349.007 181.968 351.24 182.382 353.498 182.555L354.431 176.403C356.942 176.545 359.461 176.3 361.898 175.676L363.986 181.527C368.359 180.318 372.411 178.158 375.851 175.202L372.181 170.205C374.05 168.53 375.651 166.578 376.927 164.417L382.559 167.074C384.82 163.133 386.162 158.733 386.482 154.202L380.328 153.269C380.449 150.755 380.183 148.238 379.537 145.805ZM351.757 164.907C349.181 164.121 346.896 162.588 345.191 160.503C343.486 158.419 342.438 155.875 342.179 153.195C341.92 150.515 342.462 147.818 343.736 145.446C345.01 143.073 346.96 141.132 349.338 139.867C351.716 138.602 354.416 138.071 357.097 138.339C359.777 138.608 362.318 139.666 364.397 141.378C366.476 143.09 368.001 145.38 368.778 147.958C369.555 150.536 369.55 153.287 368.764 155.862C368.241 157.572 367.387 159.163 366.25 160.543C365.112 161.923 363.714 163.066 362.135 163.906C360.556 164.746 358.826 165.266 357.046 165.438C355.265 165.61 353.468 165.43 351.757 164.907Z" fill="#728895"/>
<path opacity="0.2" d="M395.847 329.283C395.847 331.512 381.942 333.315 364.793 333.315C347.644 333.315 333.754 331.512 333.754 329.283C333.754 327.053 347.66 325.25 364.793 325.25C381.926 325.25 395.847 327.053 395.847 329.283Z" fill="black"/>
<path d="M380.375 318.925C380.375 318.925 380.771 323.211 380.913 324.302C381.056 325.393 384.568 325.235 384.932 324.634C385.181 322.768 385.26 320.884 385.169 319.004" fill="#FFCCB0"/>
<path d="M385.912 325.582C385.941 326.591 385.904 327.599 385.801 328.603L381.783 328.872L381.546 328.223C380.847 328.641 380.073 328.921 379.268 329.045L375.866 329.283C373.383 329.441 371.959 329.283 371.864 328.792C371.484 326.974 374.443 326.863 375.218 326.816C377.433 326.658 379.774 325.472 380.217 324.302C380.549 323.464 380.359 323.274 380.834 323.384C380.986 323.423 381.129 323.492 381.254 323.587C381.379 323.682 381.484 323.802 381.562 323.938C381.771 324.312 382.094 324.61 382.483 324.789C382.873 324.968 383.309 325.019 383.729 324.934C384.238 324.842 384.701 324.58 385.042 324.191C385.312 324.307 385.539 324.502 385.695 324.751C385.851 324.999 385.926 325.29 385.912 325.582Z" fill="#7C3327"/>
<path d="M352.975 320.317C352.957 321.69 353.021 323.063 353.165 324.428C353.386 325.503 356.867 325.156 357.199 324.555C357.371 322.677 357.371 320.787 357.199 318.909" fill="#FFCCB0"/>
<path d="M358.195 325.582C358.29 326.721 358.29 328.872 358.29 328.872L354.731 329.741L354.272 329.125C353.651 329.64 352.937 330.032 352.168 330.279C351.067 330.519 349.941 330.625 348.814 330.595C345.872 330.405 343.831 329.488 343.736 329.014C343.309 327.211 347.232 327.433 348.023 327.433C348.938 327.356 349.815 327.037 350.566 326.509C351.317 325.981 351.913 325.263 352.295 324.428C352.627 323.574 352.437 323.384 352.912 323.495C353.068 323.53 353.215 323.595 353.345 323.688C353.476 323.78 353.586 323.897 353.671 324.033C353.903 324.407 354.244 324.701 354.649 324.873C355.054 325.046 355.503 325.089 355.933 324.997C356.451 324.884 356.921 324.614 357.278 324.223C357.55 324.331 357.783 324.518 357.947 324.761C358.11 325.004 358.197 325.29 358.195 325.582Z" fill="#7C3327"/>
<path d="M374.395 199.3C374.743 198.889 374.965 203.712 379.837 206.163C384.71 208.614 392.588 207.286 395.103 206.29C399.058 204.708 397.761 179.266 393.142 171.074C392.05 169.161 387.858 168.212 385.232 167.675C384.504 174.585 387.162 191.394 391.069 198.557C390.895 199.854 374.395 199.3 374.395 199.3Z" fill="#2CBBB4"/>
<path d="M393.506 200.423C394.661 198.842 392.921 181.131 393.031 178.396L387.589 188.279C388.57 192.343 384.52 199.459 379.679 199.348L378.967 200.328C381.783 201.056 392.319 202.004 393.506 200.423Z" fill="#22A9A2"/>
<path d="M371.927 266.189C372.138 271.928 372.714 277.648 373.652 283.314C374.395 287.11 383.001 284.896 382.78 281.464C382.479 276.72 384.599 267.96 386.498 245.237C386.767 241.806 388.317 241.41 389.33 234.342C390.342 227.274 386.419 219.873 386.419 219.873L371.738 218.94L371.532 239.497V246.47C371.532 246.47 371.358 256.116 371.927 266.189Z" fill="#343541"/>
<path d="M382.748 280.658C384.383 283.85 385.454 287.301 385.912 290.857C386.497 298.131 385.77 322.056 385.77 322.056C383.88 322.482 381.928 322.557 380.011 322.278C380.011 322.278 373.208 282.35 372.892 277.78C372.576 273.21 382.748 280.658 382.748 280.658Z" fill="#343541"/>
<path d="M371.928 266.189C373.264 261.647 374.849 257.181 376.674 252.811C379.063 247.736 380.439 244.699 380.439 244.699C388.855 235.892 381.356 225.313 381.356 225.313C381.356 225.313 377.148 230.99 376.61 231.638C376.073 232.286 373.447 236.999 371.406 239.624V246.597C371.406 246.597 371.358 256.116 371.928 266.189Z" fill="#262A3F"/>
<path d="M359.793 282.998C359.445 277.669 363.321 271.123 363.321 271.123C363.321 271.123 352.121 262.536 351.947 260.544C351.947 260.544 350.365 273.115 349.779 276.989C348.783 283.726 352.136 322.151 352.136 322.151C354.005 322.562 355.937 322.589 357.816 322.23C358.168 313.866 359.184 305.544 360.853 297.341C362.008 292.565 360.189 284.327 359.793 282.998Z" fill="#343541"/>
<path d="M360.727 219.857C356.345 229.614 351.599 261.097 350.46 271.961C349.985 276.578 353.814 283.552 358.37 279.393C363.701 274.412 371.216 250.044 373.905 246.012C376.594 241.979 386.561 238.311 379.774 217.896" fill="#343541"/>
<path d="M381.847 165.081C381.178 162.805 380.947 160.423 381.166 158.06C381.688 155.072 383.476 149.711 382.748 145.695C382.021 141.678 377.006 138.31 371.674 138.832C366.343 139.354 364.745 144.493 363.764 147.482C363.052 150.757 362.875 154.127 363.242 157.46C363.292 158.405 363.537 159.33 363.962 160.176C364.386 161.023 364.982 161.772 365.71 162.377C366.596 162.899 369.966 162.219 370.551 162.852C371.112 164.275 371.464 165.771 371.595 167.295" fill="#FFCCB0"/>
<path d="M384.22 168.465C384.2 167.327 383.907 166.21 383.365 165.208C382.606 164.306 377.132 163.911 375.455 164.022C373.213 164.46 371.045 165.216 369.017 166.267C368.463 166.663 369.349 169.003 369.349 169.003L384.22 168.465Z" fill="#22A9A2"/>
<path d="M381.609 159.99C381.609 159.99 374.285 160.195 372.75 159.99C371.561 159.883 370.44 159.389 369.56 158.583C368.679 157.778 368.088 156.705 367.878 155.53C369.665 155.53 369.808 151.751 368.843 150.344C367.878 148.936 366.644 149.79 366.485 151.134C366.327 152.478 366.486 152.051 366.122 152.225C365.758 152.399 364.983 152.431 365.173 149.838C365.161 148.347 365.497 146.875 366.153 145.537C366.818 144.05 367.182 144.129 367.735 143.86C367.158 143.663 366.626 143.353 366.17 142.949C365.714 142.544 365.342 142.053 365.078 141.504C363.591 139.164 363.78 136.76 366.58 134.404C366.736 134.984 367.054 135.508 367.497 135.914C367.939 136.32 368.489 136.592 369.08 136.697C372.244 137.583 378.192 136.855 381.04 138.516C382.258 139.227 383.334 140.808 382.748 142.042C382.748 142.042 385.106 141.662 385.248 146.327C385.533 155.815 382.337 156.606 382.084 158.06C381.831 159.515 382.432 159.657 381.609 159.99Z" fill="#222222"/>
<path d="M360.727 219.857C361.423 220.11 362.04 220.521 362.768 220.743C364.513 221.075 366.306 221.075 368.052 220.743C369.855 220.585 371.674 220.411 373.494 220.268C382.986 219.873 386.15 222.15 387.732 219.841C388.078 219.256 388.191 218.562 388.048 217.896C387.732 215.809 387.036 215.098 387.321 212.994C387.558 211.239 387.874 209.136 388.333 206.748C389.915 198.447 393.079 185.765 393.411 178.143C394.012 167.232 382.923 167.327 382.923 167.327C366.628 166.315 360.569 170.995 359.683 178.001C359.683 178.491 359.572 179.028 359.525 179.582C359.113 186.808 361.107 201.72 362.214 210.433C362.53 212.9 359.335 219.335 360.727 219.857Z" fill="#2CBBB4"/>
<path d="M360.126 220.49C360.806 221.091 362.815 221.249 365.616 221.012C363.084 221.201 360.49 219.62 361.044 218.339C362.15 216.313 362.93 214.125 363.353 211.856C364.002 203.096 363.844 178.238 364.176 178.649C363.78 179.439 362.594 180.531 359.43 181.258C359.43 188.516 360.711 201.372 361.218 209.5C361.724 217.628 357.532 218.244 360.126 220.49Z" fill="#22A9A2"/>
<path d="M326.508 158.076C326.508 157.665 327.109 157.855 327.252 158.203C327.252 158.203 327.252 158.361 327.252 158.503C327.226 158.04 327.226 157.575 327.252 157.112C327.252 156.7 327.79 156.859 327.964 157.112C327.946 156.922 327.946 156.732 327.964 156.542C327.964 156.02 328.549 156.226 328.691 156.653C328.749 156.887 328.791 157.125 328.818 157.365C328.81 157.233 328.81 157.101 328.818 156.969C328.818 156.558 329.34 156.653 329.482 156.969C329.556 157.239 329.608 157.514 329.64 157.792C329.64 158.219 329.83 158.677 329.894 159.104C329.957 159.531 330.431 161.302 331.333 161.492C332.725 161.761 331.808 159.357 332.789 158.804C333.089 158.63 333.437 160.496 333.485 161.555C333.554 162.297 333.554 163.043 333.485 163.785C333.321 164.402 333.204 165.031 333.137 165.666C333.256 166.137 333.415 166.598 333.611 167.042L330.447 168.386C330.286 167.556 329.998 166.756 329.593 166.014C328.427 165.009 327.544 163.717 327.03 162.267C326.795 161.339 326.647 160.391 326.587 159.436C326.587 159.436 326.492 158.218 326.508 158.076Z" fill="#FFCCB0"/>
<path d="M329.799 167.738C329.799 167.738 330.875 174.063 331.95 179.028C332.706 183.022 333.961 186.906 335.684 190.588C335.684 190.588 335.684 190.588 335.684 190.682C336.744 192.975 339.354 196.359 340.604 196.929C346.71 199.743 360.6 183.377 363.812 184.421C370.393 186.176 375.297 167.358 375.297 167.358C371.13 167.413 366.974 167.783 362.863 168.465C357.879 169.525 344.575 186.144 343.879 186.192C343.183 186.239 342.091 183.741 340.604 180.91C337.282 174.585 333.596 166.568 333.596 166.568L330.511 167.501L329.799 167.738Z" fill="#2CBBB4"/>
<path d="M363.448 149.6C363.448 149.6 361.123 153.079 361.407 153.823C361.692 154.566 363.923 154.518 363.923 154.518" fill="#FFCCB0"/>
<path d="M73.5146 190.414C76.4888 193.971 78.9092 202.368 81.9467 205.879C87.8776 211.55 94.3952 216.575 101.389 220.869C101.737 218.703 106.309 220.047 104.68 218.592C99.6176 214.038 90.885 209.405 87.9108 201.056C85.9491 195.569 78.7036 183.361 78.7036 183.361" fill="#DB856E"/>
<path d="M134.991 214.686H81.3931V181.954C81.3931 181.344 81.5135 180.74 81.7474 180.177C81.9814 179.614 82.3242 179.102 82.7563 178.672C83.1884 178.242 83.7013 177.901 84.2655 177.669C84.8297 177.437 85.4341 177.318 86.0441 177.321H106.23C106.745 177.317 107.244 177.496 107.638 177.827L112.543 181.97C112.954 182.317 113.475 182.507 114.014 182.507H130.34C131.571 182.507 132.752 182.995 133.623 183.863C134.495 184.732 134.987 185.91 134.991 187.14V214.686Z" fill="#3377FF"/>
<path d="M129.47 184.278H87.6106C86.0903 184.278 84.8579 185.51 84.8579 187.03V207.349C84.8579 208.869 86.0903 210.101 87.6106 210.101H129.47C130.991 210.101 132.223 208.869 132.223 207.349V187.03C132.223 185.51 130.991 184.278 129.47 184.278Z" fill="white"/>
<path d="M129.802 189.512H86.5662C83.7091 189.512 81.3931 191.827 81.3931 194.683V218.244C81.3931 221.1 83.7091 223.415 86.5662 223.415H129.802C132.659 223.415 134.975 221.1 134.975 218.244V194.683C134.975 191.827 132.659 189.512 129.802 189.512Z" fill="#6490FF"/>
<path d="M115.929 201.577H114.884V199.348C114.884 198.47 114.711 197.6 114.375 196.788C114.039 195.977 113.546 195.239 112.924 194.618C112.303 193.997 111.565 193.504 110.753 193.168C109.942 192.832 109.071 192.659 108.193 192.659C107.314 192.659 106.444 192.832 105.632 193.168C104.82 193.504 104.082 193.997 103.461 194.618C102.839 195.239 102.346 195.977 102.01 196.788C101.674 197.6 101.501 198.47 101.501 199.348V201.577H100.457C100.111 201.577 99.7795 201.714 99.5337 201.956C99.2879 202.199 99.1477 202.529 99.1436 202.874V213.311C99.1436 214.338 99.5519 215.324 100.279 216.05C101.006 216.777 101.992 217.185 103.019 217.185H113.35C113.86 217.187 114.364 217.088 114.836 216.894C115.307 216.7 115.735 216.415 116.095 216.055C116.456 215.695 116.741 215.267 116.935 214.796C117.129 214.325 117.228 213.82 117.226 213.311V202.874C117.226 202.53 117.089 202.2 116.846 201.957C116.603 201.714 116.273 201.577 115.929 201.577ZM104 199.348C104 198.224 104.447 197.146 105.242 196.351C106.037 195.557 107.116 195.11 108.24 195.11C109.365 195.11 110.443 195.557 111.238 196.351C112.033 197.146 112.48 198.224 112.48 199.348V201.577H104V199.348Z" fill="#2660EF"/>
<path d="M110.534 206.986C110.534 206.357 110.284 205.753 109.839 205.308C109.394 204.864 108.79 204.614 108.161 204.614C107.531 204.614 106.928 204.864 106.483 205.308C106.038 205.753 105.788 206.357 105.788 206.986C105.793 207.431 105.923 207.866 106.163 208.24C106.404 208.615 106.745 208.915 107.148 209.104V213.295C107.179 213.535 107.296 213.757 107.478 213.917C107.66 214.077 107.894 214.166 108.137 214.166C108.379 214.166 108.614 214.077 108.796 213.917C108.978 213.757 109.095 213.535 109.126 213.295V209.104C109.54 208.925 109.893 208.629 110.143 208.253C110.393 207.877 110.528 207.437 110.534 206.986Z" fill="white"/>
<path opacity="0.2" d="M33.8857 324.096C33.8857 326.563 49.2628 328.555 68.231 328.555C87.1992 328.555 102.576 326.563 102.576 324.096C102.576 321.629 87.1992 319.637 68.231 319.637C49.2628 319.637 33.8857 321.645 33.8857 324.096Z" fill="black"/>
<path d="M67.3768 220.901L53.7558 209.737C53.7558 209.737 47.6176 218.308 50.0855 226.467C51.0627 229.16 52.1823 231.799 53.4394 234.374C54.0564 236.145 58.4543 261.35 58.1854 263.2C57.9164 265.051 55.7966 270.253 55.0214 275.709C54.1038 282.255 54.5626 303.555 53.8665 309.216C53.1704 314.877 58.4068 315.747 58.6125 313.833C60.8431 297.467 66.9813 271.945 67.7723 263.754C68.5633 255.563 68.0729 240.62 67.3768 220.901Z" fill="#ED9C80"/>
<path d="M67.6142 237.03L61.9507 250.534C64.5089 254.781 65.9763 259.594 66.2221 264.545C66.3644 267.122 66.2221 269.731 66.2221 272.309C66.2306 272.502 66.2624 272.693 66.317 272.878C67.0447 269.036 67.5826 265.857 67.7882 263.786C68.2679 254.868 68.2679 245.932 67.7882 237.014L67.6142 237.03Z" fill="#DB856E"/>
<path d="M59.5299 308.568C59.5299 308.568 58.3592 314.513 58.7072 315.257C59.3623 316.691 60.3363 317.956 61.5548 318.957C62.8679 319.779 65.7629 320.728 66.0002 321.092C66.1317 321.275 66.1885 321.501 66.1591 321.724C66.1297 321.947 66.0163 322.151 65.842 322.293C64.6576 323.151 63.1999 323.545 61.7447 323.4C57.8371 322.799 57.41 321.076 55.1161 320.839C54.7206 320.839 54.0087 321.392 52.9171 320.839C52.4301 320.638 52.0169 320.291 51.7338 319.847C51.4507 319.403 51.3115 318.882 51.3351 318.356C51.6059 316.856 52.1762 315.425 53.012 314.15C53.5733 311.938 53.9125 309.676 54.0245 307.398" fill="#ED9C80"/>
<path d="M66.1584 322.578C66.4431 322.088 66.5064 321.345 66.2375 321.171C65.4448 320.646 64.6206 320.171 63.7696 319.748C63.0102 319.4 61.8079 319.115 62.1876 319.336C62.5673 319.558 61.8395 320.427 61.1276 320.396C58.6755 320.269 56.8562 318.672 55.4483 318.34C54.7336 318.09 54.0893 317.672 53.5691 317.122C53.0489 316.572 52.6681 315.905 52.4583 315.178C51.8366 316.02 51.3606 316.961 51.0503 317.961C50.7964 318.631 50.7042 319.351 50.7813 320.064C50.9968 320.71 51.0829 321.392 51.0345 322.072C51.4799 322.338 51.9753 322.511 52.4899 322.578C53.0147 322.651 53.5471 322.651 54.0719 322.578L54.2301 321.313C54.6489 321.3 55.0678 321.332 55.4799 321.408C56.1585 321.599 56.804 321.892 57.3941 322.278C57.6789 322.61 57.9162 323.21 58.28 323.384C59.2673 323.863 60.3468 324.122 61.444 324.143C64.1651 324.207 65.6838 323.416 66.1584 322.578Z" fill="#262626"/>
<path d="M86.0918 321.518C85.7912 321.202 82.6747 320.696 81.2192 320.08C79.8091 319.368 78.6297 318.271 77.8179 316.917C77.5452 314.762 77.471 312.586 77.5964 310.418C77.897 298.78 80.0485 270.364 80.3491 263.564C80.9028 251.736 79.3524 239.529 74.8121 220.537L57.8531 207.523C57.8531 207.523 53.1071 216.347 54.6891 224.791C55.6224 229.677 59.6724 230.436 60.3685 232.334C61.0646 234.231 71.3001 264.908 71.3001 264.908C70.0335 269.438 69.3269 274.106 69.196 278.808C69.1011 285.007 71.917 303.713 72.4391 310.829C72.6353 312.756 72.5981 314.699 72.3284 316.616C71.8222 317.929 70.5407 319.447 70.604 321.092C70.6522 321.618 70.8643 322.116 71.2105 322.516C71.5567 322.916 72.0195 323.198 72.534 323.321C73.7363 323.701 74.4008 323.005 74.8121 322.989C77.2009 322.878 77.8654 324.57 81.9944 324.57C83.5186 324.501 84.9695 323.896 86.0918 322.863C86.1911 322.781 86.2712 322.678 86.3262 322.562C86.3811 322.446 86.4096 322.319 86.4096 322.191C86.4096 322.062 86.3811 321.935 86.3262 321.819C86.2712 321.703 86.1911 321.6 86.0918 321.518Z" fill="#ED9C80"/>
<path d="M86.4397 322.973C86.6612 322.452 86.6453 321.708 86.3448 321.566C85.4588 321.166 84.5502 320.817 83.6237 320.522C82.7853 320.301 81.5038 320.19 82.0417 320.348C82.5796 320.507 81.8203 321.487 81.0767 321.55C78.5297 321.803 76.4415 320.491 74.9386 320.38C72.8029 320.206 72.0119 317.992 71.8537 317.629C71.1698 318.522 70.6356 319.521 70.2717 320.586C70.1054 321.288 70.1054 322.019 70.2717 322.72C70.5812 323.324 70.7541 323.988 70.7779 324.665C71.2815 324.863 71.819 324.96 72.3599 324.95C72.8955 324.943 73.4277 324.863 73.9419 324.713V323.432C74.3756 323.359 74.8157 323.333 75.2549 323.353C76.0075 323.421 76.7311 323.676 77.359 324.096C77.7071 324.365 78.0709 324.808 78.4822 324.903C79.5721 325.21 80.7124 325.296 81.8361 325.156C84.5887 324.887 86.06 323.875 86.4397 322.973Z" fill="#262626"/>
<path d="M54.3727 208.82C52.0068 211.104 50.2561 213.947 49.2826 217.087C48.3092 220.228 48.1445 223.563 48.804 226.783C49.2153 228.665 51.5883 233.725 52.0471 235.591C53.0912 239.861 55.0213 246.091 55.3693 251.025C62.0612 255.057 74.8437 253.555 80.3333 249.649C80.3684 243.289 79.839 236.939 78.7513 230.673C76.9794 218.276 74.907 215.493 73.0719 210.528C72.8504 209.658 72.8504 207.903 72.6447 206.875" fill="#343541"/>
<path d="M72.5025 168.26C73.5625 168.608 73.167 171.138 74.2427 171.422C75.0021 171.691 76.5208 171.343 77.2327 171.739C80.982 173.857 80.017 178.064 80.3967 183.298C81.9787 187.314 82.4058 190.951 81.1402 193.181C79.5582 195.964 77.9763 196.755 75.9829 199.047C74.5433 200.771 74.0687 204.313 73.7839 208.124C73.7839 208.788 74.2743 209.927 74.1161 210.575C73.8156 211.793 71.9488 212.156 69.8764 212.156C65.1304 212.251 57.8849 210.575 55.7492 210.575C53.6135 210.575 51.8574 209.689 52.0473 208.504C52.1897 207.681 53.0123 207.333 53.3445 205.736C54.0564 202.226 54.6101 193.434 55.1797 190.445C56.6035 182.823 57.6634 177.147 60.7957 170.11" fill="#2CBBB4"/>
<path d="M83.3394 186.555C82.0884 184.532 80.6419 182.636 79.0205 180.894L74.939 182.729C76.8532 186.397 77.2012 190.635 78.103 194.73C78.8896 194.755 79.6762 194.681 80.4443 194.509C80.8398 193.861 80.6975 194.177 81.2195 193.244C82.4025 191.194 83.1258 188.912 83.3394 186.555Z" fill="#22A9A2"/>
<path d="M86.1233 157.965C86.59 156.249 86.8241 154.478 86.8194 152.7C86.6928 149.68 86.3132 145.283 81.2824 143.481C76.2516 141.678 70.6988 142.769 69.0377 146.39C67.3766 150.012 67.7721 155.514 67.5348 158.456C67.1599 160.739 66.3489 162.93 65.146 164.907L75.9827 169.572C76.6386 168.043 77.4779 166.598 78.4822 165.271C79.21 164.797 79.4631 166.631 81.8835 166.425C82.9118 166.346 84.0034 164.512 84.8261 162.235C84.8618 162.165 84.8884 162.09 84.9052 162.014C85.3398 162.011 85.7736 161.974 86.2024 161.903C86.9459 161.682 86.8826 161.349 86.7244 160.875C86.4081 159.933 86.2063 158.956 86.1233 157.965Z" fill="#ED9C80"/>
<path d="M101.121 220.015C101.339 220.798 101.719 221.526 102.237 222.153C102.755 222.779 103.399 223.29 104.126 223.652C104.535 223.802 104.984 223.802 105.392 223.652C105.977 223.921 107.86 224.127 107.164 223.02C107.744 223.428 108.399 223.715 109.092 223.865C109.786 224.014 110.502 224.022 111.198 223.89C111.704 223.89 111.688 223.289 110.581 222.988C109.84 222.77 109.152 222.4 108.561 221.901C107.97 221.403 107.489 220.788 107.148 220.094C107.37 219.921 107.559 220.237 108.192 220.332C108.825 220.427 109.252 220.142 109.268 219.841C109.284 219.541 108.461 219.335 108.271 219.225L106.199 217.849C105.569 217.38 104.816 217.105 104.031 217.058C103.873 217.058 102.449 217.058 102.75 217.675" fill="#ED9C80"/>
<path d="M76.6948 185.29C78.4825 189.006 83.1969 201.309 83.9404 202.684C86.8197 208.266 101.596 220.395 101.596 220.395C102.29 220.277 102.922 219.92 103.381 219.386C103.841 218.852 104.099 218.174 104.111 217.47C99.8712 214.528 91.9295 201.941 90.2842 200.423C89.2243 199.459 84.415 180.009 84.415 180.009" fill="#ED9C80"/>
<path d="M80.7286 171.596C76.6154 170.015 72.6762 170.015 69.5122 166.852C66.3482 169.319 73.3881 183.551 75.1283 183.93C76.8685 184.31 79.2415 192.185 79.6845 193.244C85.3797 193.102 87.4679 189.987 87.4679 189.987C85.1424 182.839 84.7311 173.114 80.7286 171.596Z" fill="#2CBBB4"/>
<path d="M77.4226 171.976C77.1378 170.9 76.331 170.062 76.157 168.956C75.9795 167.838 76.1918 166.694 76.7581 165.714C77.1515 165.197 77.6272 164.748 78.1661 164.386C80.4442 162.599 81.2194 161.128 80.46 158.456C80.1704 157.59 80.0418 156.679 80.0803 155.767C80.1594 154.945 80.3334 154.091 81.2035 153.996C81.4452 153.922 81.7058 153.941 81.9341 154.05C82.1624 154.158 82.342 154.348 82.4375 154.582C82.5799 154.945 82.2793 157.539 83.1494 156.068C83.7384 155.437 84.1846 154.687 84.4575 153.868C84.7305 153.05 84.824 152.182 84.7314 151.324C84.7314 150.929 84.589 149.379 84.8263 149.142C85.4544 149.69 85.9658 150.359 86.33 151.109C86.6942 151.859 86.9037 152.674 86.9462 153.506C87.4032 153.213 87.7772 152.808 88.0321 152.329C88.2869 151.85 88.4142 151.313 88.4017 150.771C88.4499 149.659 88.2443 148.55 87.8005 147.529C87.3195 146.199 86.547 144.993 85.5398 144C84.5325 143.007 83.3158 142.251 81.9787 141.789C80.3184 140.938 78.4952 140.453 76.6316 140.366C74.7807 140.366 72.4868 140.967 71.8856 142.358C69.3228 141.694 67.8515 143.939 67.2345 144.746C66.3722 145.906 65.7043 147.198 65.257 148.573C64.5926 150.597 64.4502 152.763 63.9281 154.898C63.5751 156.637 62.723 158.236 61.476 159.499C60.2262 160.622 58.4702 160.733 57.1097 161.776C56.2562 162.448 55.5754 163.313 55.1242 164.301C54.6729 165.288 54.4641 166.369 54.5152 167.453C54.6101 169.635 55.7175 171.976 54.4045 173.968C53.9773 174.617 53.3762 175.138 52.9648 175.787C52.5145 176.566 52.2854 177.454 52.3021 178.354C52.3188 179.254 52.5808 180.132 53.0598 180.894C54.082 182.605 55.6384 183.933 57.4894 184.674C59.0165 185.187 60.6259 185.412 62.2354 185.338C65.3994 185.164 67.978 185.338 71.2844 182.523C73.1512 180.942 71.9647 180.009 73.7523 178.317C74.7648 177.368 76.1886 176.862 76.9163 175.629C77.4963 174.572 77.6653 173.339 77.3909 172.166C77.4176 172.106 77.4285 172.041 77.4226 171.976Z" fill="#222222"/>
<path d="M396.398 42.3758C383.268 42.3758 374.662 55.6902 374.662 55.6902C374.662 55.6902 383.268 68.9889 396.398 68.9889C409.529 68.9889 418.151 55.6902 418.151 55.6902C418.151 55.6902 409.545 42.3758 396.398 42.3758Z" fill="white"/>
<path d="M396.398 70.412C382.666 70.412 373.854 57.0343 373.49 56.465L373 55.706L373.49 54.947C373.854 54.3777 382.666 41 396.398 41C410.13 41 418.957 54.3777 419.321 54.947L419.811 55.706L419.321 56.465C418.957 57.0185 410.145 70.412 396.398 70.412ZM376.37 55.706C378.395 58.4417 385.972 67.6132 396.398 67.6132C406.823 67.6132 414.417 58.4417 416.442 55.706C414.417 52.9704 406.839 43.7989 396.398 43.7989C385.957 43.7989 378.395 53.0178 376.37 55.6902V55.706Z" fill="#728895"/>
<path d="M404.735 55.6902C404.738 57.3391 404.252 58.9518 403.338 60.3243C402.424 61.6968 401.123 62.7674 399.6 63.4006C398.077 64.0337 396.4 64.201 394.781 63.8813C393.163 63.5615 391.676 62.7691 390.509 61.6043C389.341 60.4394 388.545 58.9546 388.222 57.3376C387.899 55.7207 388.064 54.0443 388.694 52.5206C389.325 50.997 390.393 49.6945 391.765 48.7781C393.136 47.8617 394.749 47.3726 396.398 47.3726C398.607 47.3726 400.725 48.2484 402.288 49.8078C403.851 51.3672 404.731 53.4828 404.735 55.6902Z" fill="#728895"/>
<path d="M396.983 53.1759C396.983 53.8358 396.787 54.4809 396.421 55.0296C396.054 55.5783 395.532 56.0059 394.922 56.2585C394.313 56.511 393.641 56.5771 392.994 56.4483C392.346 56.3196 391.752 56.0018 391.285 55.5352C390.818 55.0686 390.5 54.4741 390.371 53.8269C390.242 53.1796 390.309 52.5088 390.561 51.8991C390.814 51.2895 391.242 50.7684 391.791 50.4017C392.339 50.0351 392.985 49.8394 393.645 49.8394C394.083 49.8394 394.517 49.9257 394.922 50.0934C395.327 50.2611 395.695 50.5068 396.005 50.8167C396.315 51.1265 396.561 51.4943 396.729 51.8991C396.897 52.3039 396.983 52.7378 396.983 53.1759Z" fill="white"/>
<path d="M181.047 6H252.474C255.261 6 257.521 8.25842 257.521 11.0443V57.5659C257.521 60.3518 255.261 62.6102 252.474 62.6102H181.047C178.26 62.6102 176 60.3518 176 57.5659V11.0443C176 8.25842 178.26 6 181.047 6Z" fill="#728895"/>
<path d="M187.881 61.2977L185.571 73.2207L203.748 61.2977" fill="#728895"/>
<path d="M203.78 47.7303C206.65 47.7303 209.455 46.8795 211.841 45.2854C214.227 43.6914 216.087 41.4258 217.184 38.7753C218.282 36.1247 218.568 33.2084 218.007 30.3951C217.446 27.5819 216.063 24.9982 214.032 22.9709C212.002 20.9436 209.416 19.5638 206.601 19.0061C203.785 18.4484 200.868 18.7378 198.218 19.8377C195.567 20.9377 193.302 22.7987 191.71 25.1853C190.118 27.572 189.27 30.3771 189.273 33.2457C189.277 37.0887 190.808 40.7729 193.528 43.4888C196.248 46.2048 199.935 47.7303 203.78 47.7303ZM203.78 24.9597C205.42 24.9597 207.022 25.4457 208.386 26.3561C209.749 27.2666 210.811 28.5607 211.439 30.0748C212.066 31.5888 212.23 33.2549 211.911 34.8622C211.591 36.4695 210.801 37.9459 209.642 39.1047C208.482 40.2635 207.005 41.0527 205.397 41.3724C203.789 41.6921 202.123 41.5281 200.608 40.9009C199.093 40.2738 197.798 39.2117 196.887 37.8491C195.977 36.4865 195.49 34.8845 195.49 33.2457C195.49 32.1575 195.705 31.0801 196.121 30.0748C196.538 29.0695 197.149 28.156 197.918 27.3866C198.688 26.6172 199.602 26.0068 200.608 25.5904C201.614 25.174 202.691 24.9597 203.78 24.9597Z" fill="white"/>
<path d="M238.046 42.8441H244.263V30.1463H215.17V36.345H238.046V42.8441Z" fill="white"/>
<path d="M228.412 33.2457H234.629V40.488H228.412V33.2457Z" fill="white"/>
</svg>
