<svg width="526" height="351" viewBox="0 0 526 351" fill="none" xmlns="http://www.w3.org/2000/svg">
<path opacity="0.2" d="M506 0H20C8.9543 0 0 8.9543 0 20V330.667C0 341.712 8.95431 350.667 20 350.667H506C517.046 350.667 526 341.712 526 330.667V20C526 8.95431 517.046 0 506 0Z" fill="white"/>
<g clip-path="url(#clip0)">
<path d="M88.1997 111.288H438.425" stroke="#DED8D5" stroke-width="1.97" stroke-miterlimit="10"/>
<path d="M433.852 88.3259H92.7724C90.247 88.3259 88.1997 90.3732 88.1997 92.8986V300.437C88.1997 302.963 90.247 305.01 92.7724 305.01H433.852C436.377 305.01 438.425 302.963 438.425 300.437V92.8986C438.425 90.3732 436.377 88.3259 433.852 88.3259Z" stroke="#DED8D5" stroke-width="1.97" stroke-miterlimit="10"/>
<path d="M361.032 230.236L335.434 226.828L335.637 229.373L313.748 232.284C313.748 232.284 299.609 267.701 312.044 345.549H329.851L336.254 266.614H338.533L344.74 345.549H362.54C374.975 267.701 361.032 230.236 361.032 230.236Z" fill="#343541"/>
<path d="M328.119 266.593H346.697" stroke="#282828" stroke-width="1.23" stroke-linecap="round" stroke-linejoin="round"/>
<path d="M375.957 192.897C373.769 189.39 361.46 189.524 360.815 189.447C357.491 189.061 362.919 215.522 369.862 238.659C370.177 239.703 370.709 240.67 371.422 241.495C372.136 242.32 373.015 242.986 374.003 243.449C374.99 243.912 376.065 244.162 377.155 244.183C378.246 244.203 379.329 243.994 380.333 243.568L380.473 243.512C382.109 242.821 383.459 241.589 384.297 240.023C385.135 238.458 385.412 236.652 385.081 234.907C381.792 217.479 378.489 196.937 375.957 192.897Z" fill="#FFB1A5"/>
<path d="M378.889 202.47L363.186 208.565L361.713 201.11L377.977 197.049L378.889 202.47Z" fill="#F3978E"/>
<path d="M381.855 217.381C381.855 217.381 374.414 227.368 374.772 226.912C375.129 226.456 380.607 210.781 380.607 210.781L381.855 217.381Z" fill="#F3978E"/>
<path d="M392.494 203.943L371.167 231.583C370.505 232.44 370.027 233.426 369.765 234.477C369.503 235.529 369.461 236.623 369.643 237.691C369.825 238.759 370.226 239.778 370.822 240.684C371.417 241.589 372.194 242.361 373.103 242.951C374.008 243.541 375.026 243.937 376.092 244.116C377.158 244.294 378.249 244.25 379.298 243.986C380.346 243.723 381.328 243.246 382.184 242.585C383.039 241.924 383.748 241.094 384.268 240.146L402.025 207.387L392.494 203.943Z" fill="#FFB1A5"/>
<path d="M398.014 211.041C396.36 210.505 394.901 209.49 393.824 208.126C392.746 206.761 392.097 205.108 391.958 203.374C391.82 201.641 392.198 199.905 393.046 198.387C393.894 196.869 395.172 195.636 396.721 194.844C398.269 194.052 400.017 193.737 401.744 193.939C403.471 194.14 405.1 194.849 406.424 195.976C407.749 197.103 408.709 198.598 409.185 200.27C409.66 201.943 409.629 203.719 409.095 205.374C408.74 206.474 408.172 207.493 407.423 208.374C406.674 209.254 405.758 209.978 404.729 210.504C403.7 211.031 402.577 211.349 401.425 211.441C400.273 211.533 399.114 211.397 398.014 211.041Z" fill="#FFB1A5"/>
<path d="M407.131 197.379C407.131 197.379 409.544 194.882 405.273 193.129C401.002 191.375 395.721 191.782 392.347 199.967L407.131 197.379Z" fill="#FFB1A5"/>
<path d="M411.529 179.916L420.464 183.787C420.582 183.841 420.688 183.92 420.774 184.018C420.859 184.116 420.923 184.231 420.961 184.356C420.999 184.481 421.01 184.612 420.993 184.741C420.976 184.87 420.932 184.995 420.863 185.105L409.144 207.05C409.017 207.296 408.804 207.487 408.545 207.586C408.286 207.684 408 207.683 407.741 207.583L398.813 203.712C398.695 203.658 398.59 203.58 398.504 203.483C398.418 203.386 398.354 203.271 398.316 203.147C398.277 203.023 398.265 202.893 398.281 202.764C398.297 202.635 398.34 202.511 398.407 202.4L410.154 180.456C410.279 180.214 410.487 180.027 410.74 179.928C410.993 179.828 411.273 179.824 411.529 179.916Z" fill="#372F5F"/>
<path d="M410.708 179.53L419.636 183.401C419.754 183.455 419.86 183.533 419.945 183.63C420.031 183.727 420.095 183.842 420.134 183.966C420.172 184.089 420.184 184.22 420.168 184.349C420.153 184.478 420.11 184.602 420.043 184.713L408.295 206.685C408.17 206.933 407.957 207.125 407.698 207.225C407.439 207.325 407.152 207.325 406.893 207.225L397.958 203.354C397.839 203.3 397.734 203.221 397.648 203.123C397.562 203.025 397.498 202.91 397.46 202.785C397.423 202.66 397.412 202.529 397.429 202.4C397.445 202.271 397.49 202.146 397.558 202.036L409.312 180.035C409.444 179.795 409.658 179.612 409.915 179.519C410.172 179.426 410.454 179.43 410.708 179.53Z" fill="#261B43"/>
<path d="M409.698 181.76L417.546 185.161L407.973 203.045L400.125 199.644L409.698 181.76Z" fill="#E6E6E6"/>
<path d="M417.546 185.161L400.125 199.644L409.698 181.76L417.546 185.161Z" fill="white"/>
<path d="M402.706 192.399C404.029 192.684 405.304 193.156 406.493 193.802C406.877 194.019 407.18 194.356 407.356 194.761C407.531 195.166 407.571 195.617 407.468 196.046C407.369 196.439 407.155 196.793 406.852 197.062C406.549 197.331 406.172 197.503 405.771 197.554L401.128 198.136C401.128 198.136 398.708 202.344 395.517 202.779L398.442 195.464L402.706 192.399Z" fill="#FFB1A5"/>
<path d="M343.415 158.097C342.903 158.097 376.335 162.726 381.855 200.878L364.539 203.508L361.032 232.263H312.64L303.025 179.088C303.025 179.088 313.748 163.722 333.666 158.048L343.415 158.097Z" fill="#29C2BB"/>
<path d="M364.504 203.508L366.012 186.859" stroke="#282828" stroke-width="1.23" stroke-linecap="round" stroke-linejoin="round"/>
<path d="M346.592 158.644V145.403H331.072V158.798C329.643 159.257 328.251 159.822 326.906 160.489L339.004 167.698L351.382 160.489C349.871 159.671 348.261 159.051 346.592 158.644Z" fill="#FFB1A5"/>
<path d="M330.931 147.016C330.931 147.016 333.736 154.415 341.157 153.777C347.995 153.195 346.908 142.934 346.908 142.934L330.931 147.016Z" fill="#282828"/>
<path d="M324.163 137.176C321.73 139.385 316.287 131.019 318.644 128.669C321 126.32 322.782 130.002 322.782 130.002L323.834 132.498L324.626 135.886L324.815 136.769L324.163 137.176Z" fill="#F3978E"/>
<path d="M319.773 131.643C319.773 131.643 321.617 130.815 323.28 133.487" stroke="#282828" stroke-width="0.99" stroke-linecap="round" stroke-linejoin="round"/>
<path d="M352.925 136.924C355.162 139.329 361.292 131.446 359.146 128.908C357 126.369 354.938 129.889 354.938 129.889L353.682 132.288L352.609 135.598L352.343 136.461L352.925 136.924Z" fill="#F3978E"/>
<path d="M357.764 131.769C357.764 131.769 355.997 130.787 354.146 133.305" stroke="#282828" stroke-width="0.99" stroke-linecap="round" stroke-linejoin="round"/>
<path d="M319.892 120.681C319.892 131.762 328.343 137.015 338.758 137.015C349.173 137.015 357.624 131.762 357.624 120.681C357.624 109.6 349.208 102.068 338.758 102.068C328.308 102.068 319.892 109.607 319.892 120.681Z" fill="#222222"/>
<path d="M322.459 121.452C322.467 127.117 323.111 132.763 324.381 138.284C325.321 142.366 327.958 145.214 331.696 147.507L332.397 147.928C334.363 149.12 336.612 149.762 338.911 149.786C341.209 149.811 343.472 149.217 345.463 148.068C349.51 145.711 352.343 142.605 353.213 138.249C354.224 132.71 354.813 127.102 354.973 121.473C354.973 121.473 356.481 104.312 338.955 104.641C321.428 104.971 322.459 121.452 322.459 121.452Z" fill="#FFB1A5"/>
<path d="M337.643 131.25V133.628C337.644 133.764 337.67 133.9 337.72 134.027C337.825 134.26 338.011 134.447 338.243 134.554C338.475 134.661 338.737 134.681 338.983 134.609L340.07 134.322" stroke="#282828" stroke-width="1.23" stroke-linecap="round" stroke-linejoin="round"/>
<path d="M334.859 122.042L326.148 124.082C326.148 124.082 326.541 121.866 330.103 121.06C333.666 120.253 334.859 122.042 334.859 122.042Z" fill="#282828"/>
<path d="M342.587 122.042L351.003 124.082C351.003 124.082 350.618 121.866 347.181 121.06C343.745 120.253 342.587 122.042 342.587 122.042Z" fill="#282828"/>
<path d="M331.548 129.904C332.358 129.904 333.014 129.247 333.014 128.438C333.014 127.628 332.358 126.972 331.548 126.972C330.739 126.972 330.083 127.628 330.083 128.438C330.083 129.247 330.739 129.904 331.548 129.904Z" fill="#282828"/>
<path d="M346.935 128.438C346.935 128.728 346.85 129.011 346.688 129.252C346.527 129.493 346.298 129.681 346.031 129.792C345.763 129.903 345.468 129.932 345.184 129.875C344.899 129.819 344.638 129.679 344.433 129.474C344.228 129.269 344.089 129.008 344.032 128.724C343.976 128.439 344.005 128.145 344.115 127.877C344.226 127.609 344.414 127.38 344.655 127.219C344.896 127.058 345.18 126.972 345.47 126.972C345.858 126.972 346.231 127.126 346.506 127.401C346.781 127.676 346.935 128.049 346.935 128.438Z" fill="#282828"/>
<path d="M333.014 137.373H344.341C344.341 137.373 339.291 143.481 333.014 137.373Z" fill="white"/>
<path d="M335.349 133.415C337.786 130.977 337.787 127.025 335.349 124.588C332.911 122.15 328.959 122.15 326.522 124.588C324.084 127.025 324.084 130.977 326.522 133.415C328.959 135.853 332.911 135.853 335.349 133.415Z" stroke="#C98BD2" stroke-width="1.34" stroke-miterlimit="10"/>
<path d="M350.683 133.419C353.121 130.981 353.121 127.029 350.683 124.592C348.245 122.154 344.293 122.154 341.856 124.592C339.418 127.029 339.418 130.981 341.856 133.419C344.293 135.857 348.245 135.857 350.683 133.419Z" stroke="#C98BD2" stroke-width="1.34" stroke-miterlimit="10"/>
<path d="M337.187 129.006C337.187 129.006 338.667 127.603 340.041 129.006" stroke="#C98BD2" stroke-width="1.34" stroke-miterlimit="10"/>
<path d="M324.682 129.006L322.719 128.957" stroke="#C98BD2" stroke-width="1.34" stroke-miterlimit="10"/>
<path d="M352.518 129.006L354.496 128.957" stroke="#C98BD2" stroke-width="1.34" stroke-miterlimit="10"/>
<path d="M354.721 127.147C354.721 127.147 347.707 117.672 349.327 108.078C351.027 109.08 352.492 110.435 353.623 112.051C354.754 113.668 355.525 115.508 355.885 117.448C357.245 124.202 354.721 127.147 354.721 127.147Z" fill="#222222"/>
<path d="M322.459 127.785C322.459 127.785 330.601 117.027 328.981 107.447C325.411 109.727 322.89 113.327 321.968 117.462C320.614 124.202 322.459 127.785 322.459 127.785Z" fill="#282828"/>
<path d="M354.138 111.858C354.138 111.858 345.14 121.677 320.53 120.022C320.53 120.022 324.296 105.567 336.226 104.031C336.226 104.031 350 102.383 354.138 111.858Z" fill="#222222"/>
<path d="M365.116 102.22C366.151 95.8113 361.794 89.7773 355.385 88.7427C348.976 87.7082 342.942 92.0649 341.908 98.4736C340.873 104.882 345.23 110.916 351.639 111.951C358.048 112.986 364.082 108.629 365.116 102.22Z" fill="#222222"/>
<path d="M210.049 230.208L188.168 227.298L188.364 224.752L162.765 228.16C162.765 228.16 148.795 265.597 161.229 343.445H179.029L185.236 264.51H187.515L193.925 343.445H211.725C224.16 265.597 210.049 230.208 210.049 230.208Z" fill="#343541"/>
<path d="M208.31 123.718C205.043 119.804 202.549 115.306 200.96 110.462C198.793 104.34 191.71 106.83 191.71 106.83C191.71 106.83 185.805 99.2341 176.919 101.878C168.033 104.522 164.947 110.848 164.765 118.359C164.582 125.871 158.67 127.056 154.118 135.753C146.081 151.105 159.61 164.03 184.276 160.446V160.208C187.213 161.019 190.272 161.304 193.309 161.05C222.87 159.296 220.065 137.527 208.31 123.718Z" fill="#222222"/>
<path d="M198.618 135.1C201.051 137.31 206.487 128.943 204.137 126.593C201.788 124.244 199.999 127.926 199.999 127.926L198.947 130.422L198.155 133.81L197.965 134.694L198.618 135.1Z" fill="#F3978E"/>
<path d="M203.001 129.539C203.001 129.539 201.163 128.711 199.529 131.383" stroke="#282828" stroke-width="0.99" stroke-linecap="round" stroke-linejoin="round"/>
<path d="M169.856 134.848C167.619 137.253 161.489 129.377 163.635 126.832C165.781 124.286 167.843 127.813 167.843 127.813L169.106 130.219L170.179 133.522L170.438 134.385L169.856 134.848Z" fill="#F3978E"/>
<path d="M165.017 129.693C165.017 129.693 166.777 128.711 168.635 131.229" stroke="#282828" stroke-width="0.99" stroke-linecap="round" stroke-linejoin="round"/>
<path d="M202.882 118.612C202.882 129.686 194.466 134.939 184.023 134.939C173.58 134.939 165.157 129.686 165.157 118.612C165.157 107.538 173.573 99.9985 184.023 99.9985C194.473 99.9985 202.882 107.531 202.882 118.612Z" fill="#222222"/>
<path d="M191.709 143.327H176.189V163.42H191.709V143.327Z" fill="#FFB1A5"/>
<path d="M173.924 142.072C173.924 142.072 178.244 150.691 183.56 152.037C184.988 152.382 186.486 152.296 187.866 151.792C189.865 151.091 192.397 148.103 192.832 144.779L193.028 142.892C193.028 142.892 183.595 148.061 173.924 142.072Z" fill="#282828"/>
<path d="M200.322 119.376C200.313 125.041 199.669 130.687 198.4 136.208C197.46 140.283 194.816 143.131 191.085 145.424L190.384 145.845C188.418 147.037 186.169 147.679 183.87 147.703C181.572 147.728 179.309 147.134 177.318 145.985C173.271 143.628 170.438 140.522 169.568 136.166C168.557 130.627 167.968 125.019 167.808 119.39C167.808 119.39 166.3 102.229 183.819 102.558C201.339 102.888 200.322 119.376 200.322 119.376Z" fill="#FFB1A5"/>
<path d="M182.852 130.107V131.509C182.852 131.646 182.878 131.782 182.929 131.909C183.034 132.142 183.219 132.329 183.451 132.436C183.683 132.543 183.946 132.563 184.191 132.491L185.278 132.204" stroke="#282828" stroke-width="1.23" stroke-linecap="round" stroke-linejoin="round"/>
<path d="M186.499 120.8L195.826 123.009C195.826 123.009 195.398 120.611 191.583 119.741C187.768 118.871 186.499 120.8 186.499 120.8Z" fill="#282828"/>
<path d="M181.604 120.8L172.164 123.009C172.164 123.009 172.591 120.611 176.456 119.741C180.32 118.871 181.604 120.8 181.604 120.8Z" fill="#282828"/>
<path d="M178.223 126.586C178.226 126.878 178.141 127.165 177.981 127.409C177.821 127.653 177.591 127.844 177.322 127.957C177.053 128.071 176.756 128.102 176.469 128.046C176.182 127.99 175.918 127.85 175.711 127.644C175.504 127.438 175.363 127.175 175.306 126.888C175.249 126.602 175.278 126.305 175.39 126.035C175.502 125.765 175.692 125.535 175.936 125.373C176.179 125.212 176.465 125.126 176.757 125.127C177.145 125.127 177.516 125.281 177.791 125.554C178.066 125.828 178.221 126.199 178.223 126.586Z" fill="#282828"/>
<path d="M192.144 126.586C192.146 126.876 192.061 127.16 191.901 127.402C191.741 127.644 191.512 127.833 191.244 127.945C190.977 128.057 190.682 128.087 190.397 128.032C190.112 127.976 189.85 127.837 189.645 127.632C189.439 127.427 189.299 127.166 189.242 126.882C189.184 126.597 189.213 126.302 189.324 126.034C189.435 125.766 189.622 125.536 189.864 125.375C190.105 125.213 190.388 125.127 190.679 125.127C190.871 125.126 191.061 125.163 191.239 125.236C191.417 125.309 191.578 125.417 191.715 125.552C191.851 125.688 191.959 125.849 192.033 126.026C192.106 126.204 192.144 126.394 192.144 126.586Z" fill="#282828"/>
<path d="M177.283 134.939H190.174C190.174 134.939 189.262 138.481 183.42 138.481C182.171 138.507 180.939 138.191 179.857 137.567C178.775 136.942 177.885 136.033 177.283 134.939Z" fill="white"/>
<path d="M168.054 125.071C168.054 125.071 175.067 115.596 173.447 106.002C171.748 107.004 170.283 108.359 169.152 109.975C168.02 111.592 167.249 113.432 166.89 115.372C165.536 122.133 168.054 125.071 168.054 125.071Z" fill="#282828"/>
<path d="M200.329 124.756C200.329 124.756 192.193 114.937 193.806 105.357C197.376 107.636 199.898 111.237 200.82 115.372C202.166 122.133 200.329 124.756 200.329 124.756Z" fill="#282828"/>
<path d="M168.643 109.782C168.643 109.782 176.68 120.59 201.29 118.899C201.29 118.899 198.484 103.47 186.562 101.955C186.555 101.955 172.78 100.307 168.643 109.782Z" fill="#282828"/>
<path d="M146.207 277.737C145.849 278.306 166.693 187.055 160.5 188.43C159.939 188.556 149.103 189.566 147.49 192.841C142.819 202.33 139.474 277.05 139.474 277.05L146.207 277.737Z" fill="#FFB1A5"/>
<path d="M139.474 277.05C139.474 277.05 136.115 292.634 148.816 294.352C149.222 294.407 149.635 294.32 149.984 294.105C150.333 293.89 150.597 293.561 150.731 293.174L150.773 293.069C150.915 292.643 150.892 292.18 150.709 291.771C150.526 291.362 150.196 291.037 149.784 290.859C147.715 289.934 144.503 287.598 146.095 282.282C146.095 282.282 147.932 282.058 148.942 285.48C149.002 285.687 149.107 285.879 149.249 286.041C149.39 286.204 149.566 286.333 149.764 286.42C149.961 286.507 150.175 286.549 150.391 286.545C150.606 286.54 150.818 286.488 151.011 286.392C151.285 286.255 151.508 286.036 151.652 285.766C151.795 285.495 151.851 285.187 151.811 284.884C151.502 282.485 150.296 276.714 145.667 275.164L139.474 277.05Z" fill="#FFB1A5"/>
<path d="M143.746 214.765C143.746 214.765 155.752 231.674 155.816 231.351C155.879 231.029 160.024 207.604 160.024 207.604L145.45 201.292L143.746 214.765Z" fill="#F3978E"/>
<path d="M177.115 160.11C177.627 160.11 147.435 160.65 141.915 198.774L159.266 201.432L162.773 230.187H211.165L220.766 177.033C220.766 177.033 213.935 165.517 194.024 159.871L177.115 160.11Z" fill="#29C2BB"/>
<path d="M162.359 164.718C162.359 164.718 166.623 170.384 184.1 170.384C201.416 170.384 205.842 164.423 205.842 164.423C205.842 164.423 195.63 158.721 183.785 156.877C176.298 158.431 169.08 161.073 162.359 164.718Z" fill="#FFB1A5"/>
<path d="M221.762 290.494L221.797 366.519H259.409L262.306 290.494H221.762Z" fill="#343541"/>
<path d="M303.425 290.494L303.383 366.519H265.77L262.881 290.494H303.425Z" fill="#343541"/>
<path d="M282.883 285.494H243.994V311.906H282.883V285.494Z" fill="#343541"/>
<path d="M327.186 219.141C329.514 244.908 327.053 263.676 327.733 311.079L305.29 312.026L301.945 223.286L327.186 219.141Z" fill="#FFB1A5"/>
<path d="M304.708 239.248C304.708 239.248 318.609 237.972 328.119 231.702L327.867 226.189L304.723 229.345L304.708 239.248Z" fill="#F3978E"/>
<path d="M282.406 159.829C282.406 159.829 326.59 170.931 334.564 226.982C334.564 226.982 312.956 236.352 291.299 232.319L296.166 213.573L282.406 159.829Z" fill="#22ACA5"/>
<path d="M150.513 183.135L183.392 221.96L173.335 250.294C173.335 250.294 148.346 215.55 137.118 188.696L150.513 183.135Z" fill="#FFB1A5"/>
<path d="M151.593 184.53C151.593 184.53 140.049 191.06 137.118 188.696C131.984 184.572 127.741 169.48 127.741 169.48C127.741 169.48 149.335 161.344 149.131 161.66C148.928 161.975 151.593 184.53 151.593 184.53Z" fill="#FFB1A5"/>
<path d="M151.593 184.53C151.39 183.373 155.879 170.833 157.414 166.134C157.49 165.854 157.507 165.562 157.464 165.275C157.421 164.988 157.32 164.713 157.166 164.468C157.011 164.222 156.808 164.011 156.569 163.848C156.329 163.684 156.058 163.572 155.773 163.518C155.27 163.386 154.736 163.421 154.254 163.618C153.772 163.816 153.367 164.165 153.101 164.612L147.687 173.87L151.593 184.53Z" fill="#FFB1A5"/>
<path d="M151.2 170.98L147.483 152.486C147.366 151.887 147.018 151.357 146.515 151.011C146.011 150.665 145.392 150.53 144.79 150.635C144.284 150.726 143.832 151.007 143.526 151.42C143.219 151.833 143.082 152.347 143.142 152.858L144.769 166.632L151.2 170.98Z" fill="#FFB1A5"/>
<path d="M143.809 164.157L138.759 150.951C138.55 150.395 138.136 149.941 137.603 149.68C137.07 149.419 136.457 149.372 135.891 149.548C135.413 149.705 135.012 150.036 134.768 150.475C134.523 150.915 134.453 151.43 134.572 151.918L138.317 167.179L143.809 164.157Z" fill="#FFB1A5"/>
<path d="M138.38 168.049L131.991 155.074C131.712 154.493 131.221 154.04 130.618 153.809C130.016 153.578 129.347 153.587 128.751 153.833C128.484 153.949 128.242 154.116 128.04 154.326C127.838 154.535 127.679 154.783 127.573 155.054C127.466 155.325 127.415 155.615 127.421 155.906C127.427 156.197 127.49 156.484 127.608 156.75L132.707 169.003L138.38 168.049Z" fill="#FFB1A5"/>
<path d="M127.741 169.515L122.733 161.569C122.631 161.353 122.572 161.12 122.561 160.882C122.55 160.644 122.586 160.406 122.668 160.182C122.749 159.958 122.875 159.753 123.036 159.578C123.198 159.403 123.393 159.262 123.61 159.163C124.045 158.975 124.531 158.942 124.986 159.069C125.442 159.197 125.84 159.478 126.114 159.864L132.706 168.982L127.741 169.515Z" fill="#FFB1A5"/>
<path d="M150.19 169.592C150.19 169.592 142.665 168.799 141.887 178.828" stroke="#282828" stroke-width="1.53" stroke-linecap="round" stroke-linejoin="round"/>
<path d="M166.665 237.039C166.665 237.039 172.851 258.437 185.173 255.596C197.496 252.756 216.698 226.435 216.698 226.435L212.399 181.494L177.816 224.064L166.665 237.039Z" fill="#FFB1A5"/>
<path d="M188.54 210.837C188.54 210.837 200.217 228.455 210.176 234.683L216.698 226.456L191.548 207.001L188.54 210.837Z" fill="#F3978E"/>
<path d="M239.624 158.854C239.624 158.854 205.336 166.583 187.102 206.426C187.102 206.426 198.141 223.055 215.856 230.447L227.709 215.936L239.624 158.854Z" fill="#22ACA5"/>
<path d="M239.625 158.735C231.558 162.875 224.198 168.267 217.82 174.712L220.457 291.175H304.849L304.575 175.315C304.575 175.315 293.936 164.9 282.406 159.829C272.615 155.488 249.149 153.854 239.625 158.735Z" fill="#22ACA5"/>
<path d="M267.825 192.006H291.299V203.747C291.299 206.861 290.062 209.847 287.86 212.048C285.659 214.25 282.672 215.487 279.559 215.487C276.445 215.487 273.459 214.25 271.257 212.048C269.055 209.847 267.818 206.861 267.818 203.747V192.006H267.825Z" stroke="#282828" stroke-width="1.4" stroke-linecap="round" stroke-linejoin="round"/>
<path d="M304.708 232.754L305.81 194.651" stroke="#282828" stroke-width="1.4" stroke-linecap="round" stroke-linejoin="round"/>
<path d="M219.117 226.4L217.294 193.374" stroke="#282828" stroke-width="1.4" stroke-linecap="round" stroke-linejoin="round"/>
<path d="M240.614 116.213L237.107 98.8133C236.904 97.4107 236.356 95.2085 237.03 93.1536C238.145 89.7521 242.241 83.2227 249.24 86.2104L250.755 93.1045C250.755 93.1045 243.482 94.5703 240.564 104.073L240.614 116.213Z" fill="#222222"/>
<path d="M248.714 89.7802C248.588 92.0665 246.568 102.075 239.477 105.721C239.477 105.693 233.257 92.3681 248.714 89.7802Z" fill="#222222"/>
<path d="M273.611 155.53V125.976H246.364V155.53L238.257 159.226C238.257 159.226 240.157 171.471 260.272 171.745C280.386 172.018 282.406 159.822 282.406 159.822L273.611 155.53Z" fill="#FFB1A5"/>
<path d="M249.233 86.1893C249.233 86.1893 254.233 72.9972 269.649 80.0106C278.983 84.2536 281.571 89.9485 282.708 93.9811C283.074 95.5188 283.214 97.1019 283.121 98.6801L279.39 116.213L264.831 91.9823L250.748 93.0694L249.233 86.1893Z" fill="#222222"/>
<path d="M279.39 116.213C279.39 116.213 281.228 113.296 285.001 114.734C288.774 116.171 287.105 125.366 281.396 126.544C280.758 126.656 280.102 126.629 279.475 126.465C278.848 126.3 278.264 126.002 277.763 125.59C277.763 125.59 279.173 118.773 279.39 116.213Z" fill="#F3978E"/>
<path d="M284.265 117.96C284.265 117.96 281.095 116.901 278.843 121.572" stroke="#282828" stroke-width="1.4" stroke-linecap="round" stroke-linejoin="round"/>
<path d="M240.614 116.213C240.614 116.213 238.776 113.296 235.003 114.734C231.23 116.171 232.899 125.366 238.615 126.544C239.253 126.656 239.908 126.629 240.536 126.465C241.163 126.3 241.747 126.002 242.248 125.59C242.248 125.59 240.838 118.773 240.614 116.213Z" fill="#F3978E"/>
<path d="M235.739 117.96C235.739 117.96 238.916 116.901 241.168 121.572" stroke="#282828" stroke-width="1.4" stroke-linecap="round" stroke-linejoin="round"/>
<path d="M279.769 107.468C279.769 113.008 279.229 124.615 275.82 131.502C272.622 137.969 267.327 141.447 260.391 141.651C253.455 141.854 248.279 139.189 244.134 130.794C239.989 122.399 240.186 107.566 240.186 107.566C240.186 107.566 240.186 87.7533 259.767 87.7533C280.379 87.7533 279.769 107.468 279.769 107.468Z" fill="#FFB1A5"/>
<path d="M246.568 134.932C246.568 134.932 248.854 146.504 258.925 147.837C270.518 149.365 273.611 135.213 273.611 135.213C273.611 135.213 268.485 141.63 260.384 141.637C257.726 141.627 255.104 141.019 252.712 139.859C250.32 138.698 248.221 137.014 246.568 134.932Z" fill="#282828"/>
<path d="M258.582 115.687V120.274C258.581 120.466 258.616 120.657 258.687 120.835C258.832 121.161 259.09 121.423 259.414 121.573C259.738 121.722 260.105 121.749 260.447 121.649L261.969 121.249" stroke="#282828" stroke-width="1.4" stroke-linecap="round" stroke-linejoin="round"/>
<path d="M252.796 113.499C252.796 113.852 252.691 114.196 252.495 114.489C252.3 114.782 252.022 115.01 251.696 115.145C251.371 115.28 251.012 115.315 250.667 115.246C250.321 115.178 250.004 115.008 249.755 114.759C249.506 114.51 249.336 114.192 249.267 113.847C249.198 113.501 249.234 113.143 249.369 112.818C249.503 112.492 249.732 112.214 250.025 112.018C250.318 111.822 250.662 111.718 251.014 111.718C251.248 111.718 251.48 111.764 251.696 111.853C251.912 111.943 252.109 112.074 252.274 112.24C252.439 112.405 252.571 112.601 252.66 112.818C252.75 113.034 252.796 113.265 252.796 113.499Z" fill="#282828"/>
<path d="M269.509 113.499C269.509 113.852 269.404 114.196 269.208 114.489C269.013 114.782 268.734 115.01 268.409 115.145C268.083 115.28 267.725 115.315 267.38 115.246C267.034 115.178 266.717 115.008 266.468 114.759C266.218 114.51 266.049 114.192 265.98 113.847C265.911 113.501 265.947 113.143 266.081 112.818C266.216 112.492 266.445 112.214 266.737 112.018C267.03 111.822 267.375 111.718 267.727 111.718C268.2 111.718 268.653 111.906 268.987 112.24C269.321 112.574 269.509 113.027 269.509 113.499Z" fill="#282828"/>
<path d="M263.162 104.634L275.147 107.727C275.147 107.727 274.607 104.368 269.705 103.148C264.803 101.927 263.162 104.634 263.162 104.634Z" fill="#282828"/>
<path d="M255.72 104.634L243.734 107.727C243.734 107.727 244.274 104.368 249.177 103.148C254.079 101.927 255.72 104.634 255.72 104.634Z" fill="#282828"/>
<path d="M253.335 124.896C253.335 124.896 255.103 126.249 259.753 126.249C262.112 126.303 264.456 125.841 266.619 124.896" stroke="#282828" stroke-width="1.4" stroke-linecap="round" stroke-linejoin="round"/>
<path d="M250.537 121.593C254.721 121.593 258.112 118.201 258.112 114.018C258.112 109.835 254.721 106.444 250.537 106.444C246.354 106.444 242.963 109.835 242.963 114.018C242.963 118.201 246.354 121.593 250.537 121.593Z" stroke="white" stroke-width="1.95" stroke-miterlimit="10"/>
<path d="M269.144 121.593C273.327 121.593 276.718 118.201 276.718 114.018C276.718 109.835 273.327 106.444 269.144 106.444C264.961 106.444 261.569 109.835 261.569 114.018C261.569 118.201 264.961 121.593 269.144 121.593Z" stroke="white" stroke-width="1.95" stroke-miterlimit="10"/>
<path d="M258.112 114.018C258.112 114.018 259.9 112.349 261.569 114.018" stroke="white" stroke-width="1.95" stroke-miterlimit="10"/>
<path d="M242.963 114.018L240.424 113.955" stroke="white" stroke-width="1.95" stroke-miterlimit="10"/>
<path d="M276.718 114.018L279.552 113.976" stroke="white" stroke-width="1.95" stroke-miterlimit="10"/>
<path d="M246.568 90.2641C246.568 90.2641 250.208 100.595 266.626 100.279C277.777 100.062 280.442 108.134 280.442 108.134C280.442 108.134 278.5 90.0957 277.988 90.2641C277.476 90.4324 261.015 85.8667 261.015 85.8667L246.568 90.2641Z" fill="#222222"/>
</g>
<path d="M111.281 100.038C111.282 100.673 111.095 101.293 110.744 101.821C110.393 102.349 109.893 102.761 109.307 103.004C108.722 103.248 108.077 103.313 107.455 103.19C106.833 103.067 106.261 102.762 105.812 102.314C105.363 101.866 105.057 101.295 104.933 100.673C104.808 100.051 104.872 99.4065 105.114 98.8204C105.356 98.2343 105.767 97.7334 106.294 97.3809C106.822 97.0284 107.441 96.8402 108.076 96.8402C108.925 96.8402 109.739 97.1769 110.34 97.7765C110.94 98.376 111.279 99.1895 111.281 100.038Z" fill="#FF5F57"/>
<path d="M123.73 100.038C123.731 100.673 123.544 101.293 123.193 101.821C122.841 102.349 122.341 102.761 121.756 103.004C121.17 103.248 120.526 103.313 119.903 103.19C119.281 103.067 118.71 102.762 118.261 102.314C117.812 101.866 117.506 101.295 117.381 100.673C117.257 100.051 117.32 99.4065 117.563 98.8204C117.805 98.2343 118.216 97.7334 118.743 97.3809C119.27 97.0284 119.89 96.8402 120.524 96.8402C121.373 96.8402 122.187 97.1769 122.788 97.7765C123.389 98.376 123.728 99.1895 123.73 100.038Z" fill="#FFBD2E"/>
<path d="M136.178 100.038C136.18 100.673 135.993 101.293 135.642 101.821C135.29 102.349 134.79 102.761 134.205 103.004C133.619 103.248 132.974 103.313 132.352 103.19C131.73 103.067 131.158 102.762 130.709 102.314C130.26 101.866 129.954 101.295 129.83 100.673C129.706 100.051 129.769 99.4065 130.011 98.8204C130.254 98.2343 130.665 97.7334 131.192 97.3809C131.719 97.0284 132.339 96.8402 132.973 96.8402C133.394 96.8393 133.81 96.9213 134.199 97.0816C134.588 97.2419 134.941 97.4774 135.239 97.7744C135.537 98.0715 135.773 98.4244 135.934 98.8128C136.095 99.2013 136.178 99.6177 136.178 100.038Z" fill="#27C940"/>
<path d="M421.508 166.623H464.29C466.621 166.623 468.512 164.733 468.512 162.401V127.341C468.512 125.009 466.621 123.119 464.29 123.119H421.508C419.177 123.119 417.286 125.009 417.286 127.341V162.401C417.286 164.733 419.177 166.623 421.508 166.623Z" fill="#728895"/>
<path d="M454.583 152.105H434.56H430.948V136.255H454.583V140.218V152.105Z" stroke="white" stroke-width="1.65" stroke-linecap="round" stroke-linejoin="round"/>
<path d="M430.948 136.255L442.766 145.569L454.583 136.255" stroke="white" stroke-width="1.65" stroke-linecap="round" stroke-linejoin="round"/>
<path d="M102.605 188.995H61.8927C59.3208 188.995 57.2358 191.08 57.2358 193.652V232.969C57.2358 235.541 59.3208 237.626 61.8927 237.626H102.605C105.177 237.626 107.262 235.541 107.262 232.969V193.652C107.262 191.08 105.177 188.995 102.605 188.995Z" fill="#728895"/>
<path d="M72.5531 203.766C70.5743 205.744 69.2266 208.264 68.6804 211.008C68.1342 213.753 68.414 216.597 69.4846 219.182C70.5551 221.767 72.3682 223.977 74.6946 225.531C77.021 227.086 79.7561 227.916 82.5541 227.916C85.3521 227.916 88.0872 227.086 90.4136 225.531C92.74 223.977 94.5531 221.767 95.6236 219.182C96.6942 216.597 96.974 213.753 96.4278 211.008C95.8816 208.264 94.5339 205.744 92.5551 203.766C89.8951 201.127 86.3005 199.647 82.5541 199.647C78.8077 199.647 75.213 201.127 72.5531 203.766ZM92.52 205.806H88.0175C87.5448 204.346 86.9586 202.925 86.2642 201.556C88.7321 202.306 90.9138 203.788 92.52 205.806ZM77.3642 212.939C77.3762 211.089 77.6117 209.248 78.0656 207.455H87.1128C87.5665 209.248 87.802 211.089 87.8141 212.939H77.3642ZM87.6949 214.608C87.5612 216.465 87.2345 218.303 86.72 220.093H78.3952C77.883 218.303 77.5586 216.465 77.4274 214.608H87.6949ZM82.5541 201.023C83.2234 201.021 83.8918 201.073 84.5529 201.178C85.3866 202.654 86.0725 204.209 86.6008 205.82H78.5074C79.0373 204.21 79.7232 202.655 80.5553 201.178C81.216 201.068 81.8844 201.012 82.5541 201.009V201.023ZM78.844 201.57C78.1496 202.939 77.5633 204.36 77.0907 205.82H72.5882C74.1936 203.798 76.3751 202.312 78.844 201.556V201.57ZM71.466 207.469H76.6278C76.1851 209.264 75.9498 211.104 75.9265 212.953H69.8249C69.9453 211.019 70.5067 209.138 71.466 207.455V207.469ZM71.466 220.093C70.5078 218.414 69.9465 216.538 69.8249 214.608H75.9265C76.0216 216.461 76.3107 218.3 76.7891 220.093H71.466ZM72.5882 221.748H77.2801C77.7609 223.219 78.342 224.655 79.0194 226.047C76.4819 225.307 74.2354 223.801 72.5882 221.734V221.748ZM82.5541 226.531C81.9959 226.529 81.4384 226.492 80.8849 226.419C80.1222 224.903 79.4615 223.338 78.9072 221.734H86.201C85.6497 223.339 84.9889 224.904 84.2233 226.419C83.6698 226.492 83.1123 226.529 82.5541 226.531ZM86.0608 226.033C86.7373 224.64 87.3207 223.204 87.8071 221.734H92.492C90.8572 223.789 88.6286 225.29 86.1099 226.033H86.0608ZM93.6211 220.079H88.291C88.7694 218.286 89.0585 216.447 89.1536 214.594H95.2623C95.1461 216.521 94.5946 218.396 93.6492 220.079H93.6211ZM95.2623 212.939H89.1817C89.1515 211.09 88.9162 209.251 88.4804 207.455H93.6422C94.5987 209.135 95.1622 211.01 95.2903 212.939H95.2623Z" fill="white"/>
<path d="M117.025 68.331H45.9095C45.2046 68.331 44.5285 68.051 44.03 67.5525C43.5315 67.054 43.2515 66.3779 43.2515 65.6729C43.2515 64.968 43.5315 64.2919 44.03 63.7934C44.5285 63.2949 45.2046 63.0149 45.9095 63.0149H117.025C117.73 63.0149 118.406 63.2949 118.904 63.7934C119.403 64.2919 119.683 64.968 119.683 65.6729C119.683 66.3779 119.403 67.054 118.904 67.5525C118.406 68.051 117.73 68.331 117.025 68.331Z" fill="#80A9A7"/>
<path d="M486.817 242.044H452.297C451.592 242.042 450.916 241.761 450.417 241.261C449.919 240.762 449.639 240.085 449.639 239.379C449.639 238.674 449.919 237.998 450.418 237.5C450.916 237.001 451.592 236.721 452.297 236.721H486.817C487.522 236.721 488.198 237.001 488.696 237.5C489.195 237.998 489.475 238.674 489.475 239.379C489.475 240.085 489.195 240.762 488.697 241.261C488.198 241.761 487.522 242.042 486.817 242.044Z" fill="#80A9A7"/>
<path d="M462.649 264.844H458.427C457.319 264.844 456.421 265.743 456.421 266.85V270.813C456.421 271.921 457.319 272.819 458.427 272.819H462.649C463.757 272.819 464.655 271.921 464.655 270.813V266.85C464.655 265.743 463.757 264.844 462.649 264.844Z" fill="#80A9A7"/>
<path d="M62.8538 283.269H58.6318C57.524 283.269 56.626 284.167 56.626 285.274V289.237C56.626 290.345 57.524 291.243 58.6318 291.243H62.8538C63.9616 291.243 64.8596 290.345 64.8596 289.237V285.274C64.8596 284.167 63.9616 283.269 62.8538 283.269Z" fill="#80A9A7"/>
<path d="M385.657 44.2191H315.46C314.294 44.2191 313.349 45.1642 313.349 46.3301V63.4707C313.349 64.6366 314.294 65.5817 315.46 65.5817H385.657C386.822 65.5817 387.768 64.6366 387.768 63.4707V46.3301C387.768 45.1642 386.822 44.2191 385.657 44.2191Z" fill="#728895"/>
<path d="M323.49 51.8356H373.411" stroke="white" stroke-width="1.18" stroke-miterlimit="10"/>
<path d="M323.49 56.9553H343.822" stroke="white" stroke-width="1.18" stroke-miterlimit="10"/>
<path d="M321.457 63.1692V71.494L331.927 63.1692H321.457Z" fill="#728895"/>
<path d="M177.781 24.7571H213.206C214.407 24.7571 215.56 25.2345 216.409 26.0841C217.259 26.9338 217.736 28.0861 217.736 29.2877V62.3205C217.737 62.9161 217.621 63.506 217.393 64.0565C217.166 64.607 216.833 65.1072 216.412 65.5287C215.991 65.9501 215.491 66.2845 214.941 66.5126C214.391 66.7407 213.801 66.8582 213.206 66.8582H179.226C178.44 66.8609 177.66 66.7084 176.933 66.4094C176.205 66.1103 175.544 65.6706 174.987 65.1155C174.43 64.5603 173.988 63.9007 173.686 63.1743C173.385 62.448 173.23 61.6693 173.23 60.8828V29.3228C173.225 28.7231 173.339 28.1285 173.566 27.5734C173.793 27.0182 174.128 26.5137 174.552 26.089C174.975 25.6643 175.478 25.3279 176.033 25.0992C176.587 24.8706 177.182 24.7543 177.781 24.7571Z" fill="#728895"/>
<path d="M205.87 48.918L203.338 46.3862C203.135 46.1515 202.886 45.9621 202.606 45.8304C202.325 45.6987 202.02 45.6276 201.711 45.6218C201.097 45.6312 200.512 45.8834 200.084 46.3231L198.632 47.7679L198.365 47.6346C198.183 47.5434 198.05 47.4943 197.909 47.4102C196.48 46.4738 195.213 45.3107 194.157 43.9666C193.681 43.4068 193.284 42.7837 192.979 42.1151C193.344 41.7995 193.68 41.4138 193.975 41.1192L194.382 40.7124C194.623 40.5057 194.817 40.2491 194.95 39.9604C195.083 39.6717 195.151 39.3576 195.151 39.0398C195.151 38.7219 195.083 38.4078 194.95 38.1191C194.817 37.8304 194.623 37.5738 194.382 37.3671L193.119 36.0977C192.971 35.9579 192.833 35.8079 192.705 35.6488L191.85 34.7862C191.419 34.3503 190.836 34.0988 190.223 34.0848C189.918 34.0848 189.617 34.147 189.337 34.2676C189.057 34.3882 188.805 34.5646 188.596 34.7862L187.011 36.3712C186.416 36.9656 186.049 37.7499 185.973 38.5874C185.92 39.7613 186.118 40.9329 186.555 42.0239C187.347 44.1995 188.536 46.209 190.061 47.9502C192.049 50.3234 194.515 52.2497 197.299 53.6029C198.574 54.2493 199.954 54.6625 201.374 54.8233H201.69C202.199 54.8314 202.705 54.7312 203.172 54.5293C203.64 54.3274 204.06 54.0283 204.404 53.652L204.446 53.6029C204.695 53.3111 204.967 53.0391 205.259 52.7894L205.848 52.2003C206.072 51.9901 206.251 51.7367 206.374 51.4553C206.496 51.174 206.561 50.8706 206.563 50.5637C206.565 50.2567 206.504 49.9525 206.385 49.6697C206.266 49.3868 206.091 49.1311 205.87 48.918ZM204.832 51.2745L204.292 51.8145C203.969 52.0881 203.702 52.4037 203.387 52.7193C203.18 52.9458 202.927 53.1256 202.646 53.2465C202.364 53.3675 202.059 53.4268 201.753 53.4206H201.528C200.3 53.2898 199.109 52.9205 198.022 52.3335C195.416 51.0495 193.112 49.2282 191.261 46.9894C189.867 45.3596 188.751 43.5114 187.957 41.519C187.538 40.6461 187.352 39.6797 187.417 38.7136C187.431 38.4643 187.494 38.2201 187.603 37.9951C187.711 37.77 187.862 37.5686 188.049 37.4021L189.585 35.8662C189.75 35.6843 189.978 35.5716 190.223 35.5506C190.344 35.5558 190.463 35.5865 190.572 35.6409C190.681 35.6953 190.777 35.7721 190.854 35.8662L191.668 36.6798C191.809 36.8421 191.961 36.9944 192.123 37.1356L193.386 38.398C193.562 38.5648 193.674 38.7883 193.701 39.0292C193.683 39.2749 193.57 39.5039 193.386 39.6675L192.979 40.0742L191.85 41.2034L191.801 41.2455C191.643 41.3834 191.533 41.567 191.485 41.7708C191.437 41.9745 191.455 42.1881 191.534 42.3816V42.4237C191.915 43.3098 192.418 44.1384 193.028 44.8854C194.181 46.3596 195.572 47.6303 197.145 48.6445C197.33 48.7658 197.524 48.8714 197.727 48.9601C197.884 49.0251 198.036 49.1 198.183 49.1845L198.225 49.2336C198.432 49.3427 198.67 49.3792 198.9 49.3372C199.13 49.2953 199.339 49.1773 199.494 49.0022L201.079 47.4242C201.158 47.3313 201.254 47.2549 201.363 47.1996C201.471 47.1442 201.589 47.1109 201.711 47.1016C201.94 47.1341 202.149 47.2488 202.3 47.4242L204.832 49.956C204.929 50.0363 205.007 50.137 205.06 50.251C205.114 50.3649 205.142 50.4893 205.142 50.6153C205.142 50.7412 205.114 50.8656 205.06 50.9796C205.007 51.0935 204.929 51.1942 204.832 51.2745Z" fill="white"/>
<defs>
<clipPath id="clip0">
<rect width="350" height="242" fill="white" transform="translate(88.0005 63)"/>
</clipPath>
</defs>
</svg>
