<svg width="75" height="75" viewBox="0 0 75 75" fill="none" xmlns="http://www.w3.org/2000/svg">
<path d="M8.68138 57.5479C8.68138 43.1375 1.2168 33.2416 1.2168 26.2979C1.2168 19.3541 5.20846 4.77081 37.1522 4.77081C69.096 4.77081 73.7835 24.3896 73.7835 32.0271C73.7856 67.7916 8.68138 83.0687 8.68138 57.5479Z" fill="#EFEFEF"/>
<path d="M31.2507 31.7708C36.1407 31.7708 40.1048 27.8067 40.1048 22.9167C40.1048 18.0266 36.1407 14.0625 31.2507 14.0625C26.3606 14.0625 22.3965 18.0266 22.3965 22.9167C22.3965 27.8067 26.3606 31.7708 31.2507 31.7708Z" fill="white"/>
<path d="M27.084 22.9167C27.084 18.8438 29.8507 15.4479 33.5944 14.4167C32.8423 14.2083 32.0673 14.0625 31.2507 14.0625C26.3611 14.0625 22.3965 18.0271 22.3965 22.9167C22.3965 27.8063 26.3611 31.7708 31.2507 31.7708C32.0673 31.7708 32.8423 31.625 33.5944 31.4167C29.8507 30.3854 27.084 26.9896 27.084 22.9167Z" fill="#D5DBE1"/>
<path d="M41.6667 39.0625H34.2708H29.7917H22.3958C17.7917 39.0625 14.0625 42.7917 14.0625 47.3958V54.6875H31.8542H32.2083H50V47.3958C50 42.7917 46.2708 39.0625 41.6667 39.0625Z" fill="white"/>
<path d="M27.0833 39.0625H22.3958C17.7917 39.0625 14.0625 42.7917 14.0625 47.3958V54.6875H18.75V47.3958C18.75 42.7917 22.4792 39.0625 27.0833 39.0625Z" fill="#D5DBE1"/>
<path d="M58.2686 15.4411L61.2148 12.4948L62.688 13.968L59.7417 16.9142L58.2686 15.4411Z" fill="#A4AFC1"/>
<path d="M49.7969 23.9091L52.7432 20.9628L54.2163 22.436L51.27 25.3823L49.7969 23.9091Z" fill="#A4AFC1"/>
<path d="M49.7881 13.5818L51.2612 12.1087L54.2075 15.055L52.7344 16.5281L49.7881 13.5818Z" fill="#A4AFC1"/>
<path d="M58.2676 22.0693L59.7407 20.5962L62.687 23.5425L61.2139 25.0156L58.2676 22.0693Z" fill="#A4AFC1"/>
<path d="M10.6016 67.7083C8.87865 67.7083 7.47656 66.3062 7.47656 64.5833C7.47656 62.8604 8.87865 61.4583 10.6016 61.4583C12.3245 61.4583 13.7266 62.8604 13.7266 64.5833C13.7266 66.3062 12.3245 67.7083 10.6016 67.7083ZM10.6016 63.5416C10.0286 63.5416 9.5599 64.0104 9.5599 64.5833C9.5599 65.1562 10.0286 65.625 10.6016 65.625C11.1745 65.625 11.6432 65.1562 11.6432 64.5833C11.6432 64.0104 11.1745 63.5416 10.6016 63.5416Z" fill="#A4AFC1"/>
<path d="M48.9587 60.9375C55.5746 60.9375 60.9378 55.5742 60.9378 48.9583C60.9378 42.3424 55.5746 36.9791 48.9587 36.9791C42.3428 36.9791 36.9795 42.3424 36.9795 48.9583C36.9795 55.5742 42.3428 60.9375 48.9587 60.9375Z" fill="#2FDF84"/>
<path d="M41.667 48.9583C41.667 43.1458 45.8087 38.302 51.3024 37.2125C50.5441 37.0625 49.7607 36.9791 48.9587 36.9791C42.342 36.9791 36.9795 42.3416 36.9795 48.9583C36.9795 55.575 42.342 60.9375 48.9587 60.9375C49.7607 60.9375 50.5441 60.8562 51.3024 60.7041C45.8087 59.6146 41.667 54.7708 41.667 48.9583Z" fill="#00B871"/>
<path d="M48.9587 62.5C41.492 62.5 35.417 56.425 35.417 48.9584C35.417 41.4917 41.492 35.4167 48.9587 35.4167C56.4253 35.4167 62.5003 41.4917 62.5003 48.9584C62.5003 56.425 56.4253 62.5 48.9587 62.5ZM48.9587 38.5417C43.2149 38.5417 38.542 43.2146 38.542 48.9584C38.542 54.7021 43.2149 59.375 48.9587 59.375C54.7024 59.375 59.3753 54.7021 59.3753 48.9584C59.3753 43.2146 54.7024 38.5417 48.9587 38.5417Z" fill="black"/>
<path d="M51.4997 53.7104L47.8538 50.0645C47.5601 49.7708 47.3955 49.375 47.3955 48.9604V43.2312H50.5205V48.3125L53.708 51.5L51.4997 53.7104Z" fill="black"/>
<path d="M31.2497 33.3333C25.5059 33.3333 20.833 28.6604 20.833 22.9167C20.833 17.1729 25.5059 12.5 31.2497 12.5C36.9934 12.5 41.6663 17.1729 41.6663 22.9167C41.6663 28.6604 36.9934 33.3333 31.2497 33.3333ZM31.2497 15.625C27.2288 15.625 23.958 18.8958 23.958 22.9167C23.958 26.9375 27.2288 30.2083 31.2497 30.2083C35.2705 30.2083 38.5413 26.9375 38.5413 22.9167C38.5413 18.8958 35.2705 15.625 31.2497 15.625Z" fill="black"/>
<path d="M32.2083 56.25H14.0625C13.2 56.25 12.5 55.55 12.5 54.6875V47.3958C12.5 41.9396 16.9396 37.5 22.3958 37.5H34.2708V40.625H22.3958C18.6625 40.625 15.625 43.6625 15.625 47.3958V53.125H32.2083V56.25Z" fill="black"/>
</svg>
