<svg width="64" height="64" viewBox="0 0 64 64" fill="none" xmlns="http://www.w3.org/2000/svg">
<g clip-path="url(#clip0)">
<path d="M34.0723 37.7289C33.1558 37.61 32.4697 36.8304 32.4697 35.9061V27.4995H19.625V35.9061C19.625 36.8303 18.9388 37.6099 18.0223 37.7289L12.4707 45.0831L26.0473 50.6053L40.2828 45.5108L34.0723 37.7289Z" fill="#FFDDCE"/>
<path d="M38.22 15.7705H37.443V14.8581V12.6771C37.443 9.59771 36.1788 6.61371 33.8453 4.60446C32.0158 3.02909 29.4442 1.65421 26.047 1.61621C22.6499 1.65409 20.0783 3.02909 18.2488 4.60446C15.9153 6.61371 14.651 9.59771 14.651 12.6771V14.8581V15.7705H13.874C12.7349 15.7705 11.8115 16.6938 11.8115 17.833V20.1186C11.8115 21.2577 12.7349 22.1811 13.874 22.1811C14.3005 22.1811 14.6576 22.5058 14.6953 22.9306C14.9363 25.6507 16.1666 28.2196 18.2488 30.0123C20.0783 31.5876 22.65 32.9626 26.047 33.0006C29.4442 32.9627 32.0159 31.5877 33.8453 30.0123C35.9274 28.2196 37.1578 25.6507 37.3988 22.9306C37.4364 22.5058 37.7935 22.1811 38.22 22.1811C39.3592 22.1811 40.2825 21.2577 40.2825 20.1186V17.833C40.2825 16.6938 39.3592 15.7705 38.22 15.7705Z" fill="#FFDDCE"/>
<path d="M38.2197 15.7705H37.4427V14.8582V12.6772C37.4427 9.59778 36.1785 6.61378 33.845 4.60453C33.4007 4.22203 32.9124 3.85166 32.3795 3.50903L32.3775 22.1812C32.3132 25.1745 31.0554 28.0557 28.7829 30.0124C27.4389 31.1697 25.6937 32.218 23.5156 32.7084C24.3024 32.8855 25.1451 32.9905 26.0466 33.0005C29.4437 32.9627 32.0155 31.5877 33.8449 30.0123C35.927 28.2195 37.1574 25.6507 37.3984 22.9305C37.436 22.5058 37.7931 22.181 38.2196 22.181C39.3587 22.181 40.2821 21.2577 40.2821 20.1185V17.8329C40.2822 16.6939 39.3589 15.7705 38.2197 15.7705Z" fill="#FFCBBE"/>
<path d="M48.0155 63.0626C49.4433 63.0626 50.6007 61.9053 50.6007 60.4775V48.4039C50.6007 44.872 48.5219 41.6709 45.2954 40.2344C42.358 38.9266 36.8054 38.0835 34.0719 37.7288L26.0469 49.8448L18.0219 37.7288C15.2884 38.0835 9.73579 38.9266 6.79841 40.2344C3.57191 41.671 1.49316 44.872 1.49316 48.4039V60.4774C1.49316 61.9051 2.65054 63.0625 4.07829 63.0625H48.0155V63.0626Z" fill="#F1F1F4"/>
<path d="M45.2951 40.2344C42.3577 38.9266 36.8051 38.0835 34.0716 37.7288L30.7891 42.6848C33.3666 43.1343 36.2747 43.7758 38.1347 44.6039C41.3612 46.0405 43.4399 49.2415 43.4399 52.7734V63.0626H48.0152C49.4429 63.0626 50.6003 61.9053 50.6003 60.4775V48.4039C50.6003 44.872 48.5216 41.671 45.2951 40.2344Z" fill="#DFEAEF"/>
<path d="M30.4851 0.9375H21.5272C19.892 0.9375 18.5021 1.98575 17.9919 3.447C17.8006 3.99475 17.2779 4.35687 16.6976 4.35687C14.6129 4.35687 12.9229 6.04688 12.9229 8.13163V16.0028C12.9229 16.0028 15.0681 15.9634 16.1884 17.0684C16.4239 17.3006 16.8216 17.1366 16.8216 16.8059V11.6315C16.8216 9.83488 18.278 8.3785 20.0746 8.3785H20.1137C20.652 8.3785 21.1842 8.4615 21.6931 8.62175C22.6612 8.92662 23.6637 9.1095 24.6787 9.1095H27.4151C28.4301 9.1095 29.4326 8.92662 30.4007 8.62175C30.9096 8.4615 31.4419 8.3785 31.9801 8.3785H32.0192C33.8159 8.3785 35.2722 9.83488 35.2722 11.6315V16.431C35.2722 16.4359 35.2722 16.4406 35.2724 16.4455C35.2792 16.9955 35.8995 17.3181 36.3686 17.0311C37.177 16.5365 38.0709 16.1978 39.004 16.0324L39.171 16.0028V9.62337C39.171 4.82638 35.2821 0.9375 30.4851 0.9375Z" fill="#8E99A3"/>
<path d="M14.7372 44.5116C14.8538 45.1311 15.4452 45.543 16.0667 45.4375L17.2332 45.2395C17.8198 45.14 18.386 45.5018 18.5422 46.076L19.1148 48.183C19.2364 48.6305 19.6138 48.9621 20.0732 49.0251L26.0467 49.8447L18.952 38.8862C18.5523 38.3888 18.6034 37.6716 19.0625 37.2285C19.4107 36.8925 19.6243 36.4217 19.6243 35.906V33.3555L17.809 34.5158C16.4432 35.389 15.2189 36.466 14.1788 37.7093C13.8055 38.1556 13.6515 38.7455 13.7592 39.3172L14.7372 44.5116Z" fill="#BC95E2"/>
<path d="M38.3344 39.3175C38.442 38.7457 38.288 38.1558 37.9148 37.7096C36.8746 36.4662 35.6504 35.3892 34.2845 34.5161L32.4693 33.3557V35.9062C32.4693 36.422 32.6829 36.8927 33.031 37.2287C33.4901 37.6718 33.5413 38.3891 33.1415 38.8865L26.0469 49.845L32.0204 49.0253C32.4799 48.9623 32.8571 48.6307 32.9788 48.1832L33.5514 46.0762C33.7074 45.5021 34.2738 45.1401 34.8604 45.2397L36.0269 45.4377C36.6484 45.5432 37.2398 45.1313 37.3564 44.5118L38.3344 39.3175Z" fill="#BC95E2"/>
<path d="M32.4983 24.3447H19.5948C18.8834 24.3447 18.3066 24.9215 18.3066 25.6329V30.4529C18.3066 30.9584 18.5411 31.4366 18.9453 31.7402C20.7123 33.0679 23.0603 34.1344 26.0465 34.1677C29.0328 34.1344 31.3808 33.0677 33.1478 31.7402C33.5519 31.4366 33.7864 30.9582 33.7864 30.4529V25.6329C33.7864 24.9214 33.2096 24.3447 32.4983 24.3447Z" fill="#B1E4F9"/>
<path d="M32.4993 24.3447H32.1187C31.6372 26.528 30.5006 28.5341 28.7838 30.0124C26.9591 31.5836 24.3958 32.9552 21.0117 33C22.4308 33.6847 24.1031 34.1461 26.0476 34.1677C29.0338 34.1344 31.3818 33.0677 33.1488 31.7402C33.553 31.4366 33.7875 30.9582 33.7875 30.4529V25.6329C33.7875 24.9214 33.2107 24.3447 32.4993 24.3447Z" fill="#90D8F9"/>
<path d="M54.1972 45.9836V41.0371H47.0037V45.9836C47.0037 46.4487 46.8676 46.9036 46.6121 47.2921L39.1744 58.6029C37.9159 60.5167 39.2887 63.0626 41.5793 63.0626H59.6216C61.9122 63.0626 63.2851 60.5169 62.0264 58.6029L54.5888 47.2921C54.3333 46.9036 54.1972 46.4486 54.1972 45.9836Z" fill="#F2F9FF"/>
<path d="M62.0262 58.6029L54.5885 47.2921C54.333 46.9035 54.1968 46.4486 54.1968 45.9836V41.0371H47.0033V45.9835C47.0033 46.4486 46.8672 46.9035 46.6115 47.2921C46.1685 47.9659 46.1685 48.8385 46.6115 49.5121L52.5894 58.6029C53.8479 60.5167 52.4752 63.0626 50.1844 63.0626H59.6212C61.9119 63.0626 63.2848 60.5169 62.0262 58.6029Z" fill="#E2F4FF"/>
<path d="M54.9935 42.6918H46.2074C45.7412 42.6918 45.3633 42.314 45.3633 41.8477V39.6581C45.3633 39.1918 45.7412 38.814 46.2074 38.814H54.9935C55.4598 38.814 55.8377 39.1918 55.8377 39.6581V41.8477C55.8377 42.3138 55.4598 42.6918 54.9935 42.6918Z" fill="#D1ECF9"/>
<path d="M62.0267 58.6029L57.2559 51.3479H57.2551C56.1401 51.3479 56.1751 51.8969 55.0601 51.8969C53.9451 51.8969 53.9451 51.3467 52.8299 51.3467C51.7151 51.3467 51.7151 51.8969 50.6002 51.8969C49.4853 51.8969 49.4853 51.3467 48.3703 51.3467C47.2554 51.3467 47.2554 51.8969 46.1406 51.8969C45.0257 51.8969 45.0608 51.3467 43.9459 51.3467L39.1744 58.6031C37.9159 60.5169 39.2887 63.0628 41.5794 63.0628H59.6218C61.9124 63.0627 63.2853 60.5169 62.0267 58.6029Z" fill="#DF75A5"/>
<path d="M62.0262 58.6029L57.2555 51.3479H57.2546C56.1396 51.3479 56.1746 51.8969 55.0596 51.8969C53.9446 51.8969 53.9446 51.3467 52.8295 51.3467C51.7146 51.3467 51.7146 51.8969 50.5997 51.8969C49.4848 51.8969 49.4848 51.3467 48.3698 51.3467C48.1631 51.3467 47.995 51.3658 47.8506 51.3966L52.5893 58.6029C53.8478 60.5168 52.4751 63.0627 50.1843 63.0627H59.6211C61.912 63.0627 63.2848 60.5169 62.0262 58.6029Z" fill="#DD5790"/>
<path d="M32.3797 1.14722L32.3789 8.39872C34.006 8.57797 35.2719 9.95659 35.2719 11.6315V16.431C35.2719 16.4358 35.2719 16.4406 35.272 16.4455C35.2789 16.9955 35.8992 17.3181 36.3683 17.0311C37.1767 16.5365 38.0705 16.1977 39.0037 16.0323L39.1707 16.0027V9.62334C39.1707 5.47747 36.265 2.01222 32.3797 1.14722Z" fill="#7F8993"/>
<path d="M38.3059 54.0571C38.3059 53.5393 37.8862 53.1196 37.3684 53.1196H32.6572C32.1394 53.1196 31.7197 53.5393 31.7197 54.0571C31.7197 54.575 32.1394 54.9946 32.6572 54.9946H37.3684C37.8862 54.9946 38.3059 54.575 38.3059 54.0571Z" fill="black"/>
<path d="M62.8099 58.0876L61.8645 56.6501C61.58 56.2174 60.9985 56.0974 60.566 56.3819C60.1334 56.6664 60.0134 57.2477 60.2978 57.6804L61.2432 59.1179C62.0932 60.4101 61.1674 62.125 59.6214 62.125H41.5794C40.0327 62.125 39.1083 60.4097 39.9578 59.1179L44.4042 52.356C44.7265 52.4835 45.1498 52.8341 46.1407 52.8341C47.4272 52.8341 47.632 52.2839 48.3704 52.2839C49.118 52.2839 49.2988 52.8341 50.6002 52.8341C51.8864 52.8341 52.092 52.2839 52.83 52.2839C53.5777 52.2839 53.7585 52.8341 55.06 52.8341C56.0513 52.8341 56.4738 52.4839 56.7974 52.3568L57.8752 53.9956C58.1592 54.4274 58.74 54.5487 59.1737 54.2639C59.6063 53.9795 59.7263 53.398 59.4419 52.9654L55.3724 46.7767C55.2172 46.5405 55.135 46.2663 55.135 45.9834V43.6219C56.0515 43.5495 56.7754 42.7821 56.7754 41.8474V39.6577C56.7754 38.6754 55.9762 37.8761 54.9938 37.8761H46.2077C45.4785 37.8761 44.8513 38.3167 44.5758 38.9453C43.1462 38.4426 41.2565 37.9717 38.9327 37.5397C38.847 37.3885 38.7478 37.2435 38.634 37.1075C36.4424 34.4876 34.2562 33.4487 33.4069 32.8418V32.7094C33.5087 32.637 33.6107 32.5651 33.7113 32.4895C34.338 32.0187 34.7145 31.2698 34.7237 30.4814C36.7698 28.5998 38.043 26.0029 38.3232 23.1166C39.9299 23.062 41.2203 21.738 41.2203 20.1184V17.8328C41.2203 16.9149 40.8055 16.0661 40.1088 15.5033V9.62337C40.1084 4.317 35.7914 0 30.4849 0H21.527C19.5385 0 17.762 1.261 17.1065 3.13788C17.0477 3.30625 16.8833 3.41937 16.6974 3.41937C14.099 3.41937 11.9852 5.53325 11.9852 8.13163V15.5033C11.2885 16.0661 10.8737 16.915 10.8737 17.8329V20.1185C10.8737 21.7383 12.1639 23.0624 13.7707 23.1168C14.0505 26.0025 15.3233 28.5986 17.3702 30.4815C17.3792 31.2698 17.7557 32.0187 18.3823 32.4896C18.4829 32.5653 18.5849 32.6372 18.6868 32.7096V32.842C18.4974 32.9902 14.3812 35.3861 13.1612 37.5399C10.1819 38.0936 7.91366 38.7113 6.41679 39.3778C2.85641 40.9632 0.555664 44.5061 0.555664 48.4038V49.8445C0.555664 50.3624 0.975414 50.782 1.49316 50.782C2.01091 50.782 2.43066 50.3624 2.43066 49.8445V48.4038C2.43066 45.2458 4.29479 42.3751 7.17966 41.0906C8.41579 40.5403 10.3595 39.9986 12.8417 39.5099L13.8158 44.6847C14.0257 45.799 15.1062 46.5501 16.2235 46.3615L17.3899 46.1635C17.5014 46.1448 17.6079 46.2126 17.6375 46.3216L18.2102 48.4285C18.4309 49.2405 19.112 49.8391 19.9458 49.9536L25.1093 50.662V62.125H9.67416V57.8488C9.67416 57.3309 9.25441 56.9113 8.73666 56.9113C8.21891 56.9113 7.79916 57.3309 7.79916 57.8488V62.125H4.07829C3.16979 62.125 2.43066 61.3859 2.43066 60.4772V54.2296C2.43066 53.7118 2.01091 53.2921 1.49316 53.2921C0.975414 53.2921 0.555664 53.7118 0.555664 54.2296V60.4772C0.555664 62.4196 2.13591 64 4.07829 64H59.6217C62.6627 64 64.48 60.6275 62.8099 58.0876ZM55.7568 50.7744C55.5002 50.9048 55.395 50.9593 55.06 50.9593C54.3124 50.9593 54.1314 50.409 52.83 50.409C51.5395 50.409 51.3424 50.9593 50.6002 50.9593C49.8525 50.9593 49.6718 50.409 48.3704 50.409C47.0839 50.409 46.879 50.9593 46.1407 50.9593C45.8084 50.9593 45.695 50.9015 45.469 50.7863C45.461 50.7822 45.4527 50.778 45.4447 50.7739L47.3955 47.8071C47.7525 47.264 47.9413 46.6335 47.9413 45.9835V43.6291H53.2599V45.9835C53.2599 46.6335 53.4487 47.264 53.8057 47.8071L55.7568 50.7744ZM46.3008 39.7514H54.9002V41.7541H46.3008V39.7514ZM37.1955 38.3107C37.3767 38.5274 37.4715 38.8325 37.4129 39.1437L36.435 44.3381C36.4132 44.4544 36.2994 44.5331 36.1838 44.513L35.017 44.315C33.9495 44.1339 32.9308 44.7853 32.6467 45.83L32.0739 47.9369C32.0509 48.0217 31.9798 48.0841 31.8928 48.096L27.9448 48.6376L33.9057 39.4302C34.5753 38.5541 34.4832 37.3268 33.6819 36.5535C33.5094 36.3871 33.4065 36.1447 33.4065 35.9055V35.0671C33.6355 35.2362 35.4385 36.2105 37.1955 38.3107ZM32.8492 30.4527C32.8492 30.6651 32.7504 30.8663 32.5849 30.9906C28.6304 33.9618 23.4793 33.9736 19.5088 30.9906C19.3433 30.8663 19.2445 30.6651 19.2445 30.4527V25.6327C19.2445 25.4394 19.4018 25.2821 19.5952 25.2821H32.4987C32.692 25.2821 32.8493 25.4394 32.8493 25.6327V30.4527H32.8492ZM19.7139 37.9027C20.2529 37.3822 20.562 36.6545 20.562 35.9059V33.8275C24.0223 35.5142 28.0027 35.548 31.5317 33.8275V35.9059C31.5317 36.6548 31.8408 37.3826 32.3799 37.9031C32.4919 38.0111 32.5052 38.1814 32.4107 38.2988C32.3522 38.3719 32.7694 37.7389 26.0468 48.1195C19.3182 37.7298 19.7398 38.3695 19.6828 38.2989C19.5884 38.1812 19.6017 38.0111 19.7139 37.9027ZM13.8603 8.13163C13.8603 6.56713 15.133 5.29437 16.6975 5.29437C17.6797 5.29437 18.5555 4.67625 18.8769 3.756C19.2699 2.631 20.335 1.875 21.5273 1.875H30.4852C34.7577 1.875 38.2337 5.351 38.2337 9.62337V15.2394C37.527 15.4181 36.8494 15.6858 36.2099 16.039V11.6315C36.2099 9.32088 34.33 7.441 32.0194 7.441H31.9803C30.2137 7.441 29.5543 8.17212 27.4152 8.17212H24.6789C22.5789 8.17212 21.8529 7.441 20.1139 7.441H20.0748C17.7642 7.441 15.8843 9.32088 15.8843 11.6315V15.7172C15.1902 15.3623 14.4383 15.1995 13.8605 15.1255V8.13163H13.8603ZM15.6289 22.8479C15.548 21.9333 14.7934 21.2435 13.8738 21.2435C13.2535 21.2435 12.7488 20.7389 12.7488 20.1185V17.8329C12.7488 17.4816 12.9129 17.1585 13.1852 16.9474C13.8007 16.9819 14.9413 17.1551 15.5298 17.7355C16.354 18.5486 17.759 17.9702 17.759 16.8057V11.6314C17.759 10.3545 18.7978 9.31588 20.0745 9.31588H20.1137C21.4647 9.31588 22.3124 10.047 24.6787 10.047H27.4149C29.7649 10.047 30.6379 9.31588 31.98 9.31588H32.0192C33.296 9.31588 34.3347 10.3546 34.3347 11.6314V16.4309L34.3349 16.457C34.3508 17.7385 35.7728 18.4949 36.8578 17.8306C37.5113 17.4309 38.2204 17.1514 38.9677 16.9955C39.2044 17.2061 39.345 17.5075 39.345 17.8328V20.1184C39.345 20.7388 38.8403 21.2434 38.2199 21.2434C37.3004 21.2434 36.5458 21.9331 36.4649 22.8476C36.3069 24.6316 35.7019 26.2835 34.7243 27.6616V25.6326C34.7243 24.4055 33.7259 23.407 32.4987 23.407H19.595C18.3679 23.407 17.3694 24.4054 17.3694 25.6326V27.6611C16.3914 26.2825 15.7868 24.6313 15.6289 22.8479ZM20.0195 47.937L19.4469 45.83C19.163 44.7854 18.1439 44.1346 17.0764 44.3151L15.9099 44.5131C15.7927 44.5328 15.6804 44.4544 15.6585 44.3381L14.6808 39.1439C14.622 38.8322 14.7174 38.527 14.8982 38.311C16.6117 36.2628 18.5309 35.1828 18.6872 35.0675V35.9059C18.6872 36.145 18.5842 36.3874 18.4118 36.5539C17.6105 37.3273 17.5185 38.5546 18.1879 39.4306L24.1489 48.6379L20.201 48.0962C20.1138 48.0842 20.0425 48.0218 20.0195 47.937ZM26.9843 50.6623L32.1478 49.9539C32.9815 49.8394 33.6628 49.2406 33.8834 48.4287L34.456 46.322C34.4857 46.2129 34.5919 46.1441 34.7034 46.1637L35.87 46.3618C36.987 46.5503 38.068 45.7993 38.2777 44.685L39.2518 39.51C41.4304 39.9389 43.1919 40.4086 44.4257 40.8889V41.8475C44.4257 42.7822 45.1497 43.5495 46.066 43.622V45.9835C46.066 46.2664 45.9839 46.5406 45.8287 46.7769L43.1693 50.8211C43.1687 50.8221 43.1679 50.8231 43.1673 50.8241L38.391 58.0876C37.6008 59.2894 37.5204 60.8064 38.2963 62.125H26.9843V50.6623Z" fill="black"/>
</g>
<defs>
<clipPath id="clip0">
<rect width="64" height="64" fill="white"/>
</clipPath>
</defs>
</svg>
