<svg width="75" height="75" viewBox="0 0 75 75" fill="none" xmlns="http://www.w3.org/2000/svg">
<g clip-path="url(#clip0)">
<path d="M74.9794 34.3663C75.2534 37.9107 72.7599 41.0574 69.412 41.3933C66.8488 41.6502 64.5302 40.1844 63.4591 37.8952L60.4208 38.163L58.127 39.2697C57.6023 39.522 57.2494 40.0235 57.1689 40.5992C56.9522 42.1517 56.5591 43.6469 56.0127 45.0677C55.8269 45.5491 55.8595 46.0862 56.1117 46.5351L56.929 47.9962L59.2011 49.5208C60.3991 49.0626 61.7937 49.1725 62.9406 49.9418C64.8847 51.2466 65.3506 53.932 63.9049 55.8218C62.6605 57.4501 60.3465 57.8974 58.5851 56.8511C57.463 56.1856 56.785 55.0805 56.6194 53.8995L54.1012 52.2108L52.5162 52.0174C51.9714 51.9508 51.4296 52.1381 51.0334 52.5173C49.6961 53.7911 48.1855 54.8854 46.5432 55.7615C45.9907 56.0556 45.6362 56.6205 45.5975 57.2443L45.3963 60.4544L46.3931 64.409C48.0895 64.8827 49.4918 66.2277 49.953 68.0572C50.6496 70.8231 48.9315 73.6293 46.13 74.253C43.6024 74.8164 41.0099 73.3429 40.2066 70.8804C39.5812 68.958 40.1555 66.9706 41.4773 65.672L40.4759 61.6942L38.9296 59.2084C38.5148 58.5413 37.7812 58.1466 36.9949 58.1482C36.9902 58.1482 36.9871 58.1482 36.9825 58.1482C35.6282 58.1482 34.3033 58.0135 33.0217 57.7612C32.2586 57.6096 31.4708 57.851 30.9352 58.416L28.8922 60.572L26.6045 65.3176C27.14 66.4057 27.188 67.7198 26.6215 68.8977C25.6031 71.0089 23.0059 71.8478 20.9303 70.6807C19.1534 69.6793 18.3841 67.469 19.158 65.5807C19.6858 64.293 20.7801 63.4324 22.0184 63.1445L24.32 58.368L24.7719 55.1625C24.8539 54.5712 24.628 53.9753 24.1636 53.6008C22.3326 52.1149 20.7631 50.321 19.5357 48.2964C19.2308 47.7934 18.6829 47.4885 18.0947 47.4839L14.8939 47.4529L11.3896 48.5549C11.1435 50.7342 9.65146 52.6705 7.42573 53.3701C4.43538 54.3112 1.25001 52.6674 0.279539 49.6957C-0.69093 46.7254 0.948189 43.4766 3.91532 42.4953C5.99247 41.8081 8.17486 42.3792 9.65146 43.7831L13.3708 42.6129L16.0872 40.6766C16.4912 40.3903 16.7063 39.9105 16.6661 39.4183C16.6212 38.8719 16.598 38.3209 16.598 37.7637C16.598 34.7362 17.2635 31.8619 18.4522 29.2771C18.6256 28.8979 18.621 28.4614 18.4383 28.0868L17.6335 26.4415L15.4495 24.7931C14.2268 25.1847 12.8415 24.9974 11.7394 24.1663C9.8697 22.7547 9.55395 20.0476 11.1017 18.2413C12.4344 16.6858 14.77 16.3669 16.4711 17.5092C17.5545 18.2366 18.1705 19.3758 18.2696 20.5645L20.6904 22.3909L23.1297 22.8259C24.905 21.1775 26.9744 19.8417 29.2481 18.9053L29.8208 15.4258L29.098 11.8319C26.959 11.2808 25.2223 9.64172 24.7549 7.45623C24.0955 4.36837 26.2176 1.361 29.4958 0.740328C32.7725 0.119661 35.964 2.11787 36.6234 5.20573C37.1172 7.51659 36.0538 9.78102 34.1129 11.0347L34.7955 14.4244L36.4717 17.099C36.5816 17.2739 36.7735 17.3792 36.9794 17.3792H36.9825C40.821 17.3792 44.415 18.4471 47.4843 20.3014C47.653 20.402 47.8604 20.416 48.0384 20.3324L50.6635 19.1158L53.7281 15.8004C53.5439 14.6117 53.8829 13.3518 54.7636 12.3999C56.3547 10.6803 59.0789 10.637 60.7226 12.3566C62.1636 13.8657 62.2194 16.2725 60.8511 17.8482C59.9658 18.8682 58.695 19.3387 57.4537 19.2458L54.389 22.5612L53.3938 25.2389C53.3242 25.4246 53.3551 25.632 53.4712 25.793C54.68 27.4522 55.6443 29.3003 56.3099 31.2846C56.494 31.8294 56.9274 32.2535 57.4815 32.4098L59.9735 33.1079L63.2115 32.8216C64.0055 30.5324 65.9883 28.8004 68.4229 28.5558C71.7708 28.22 74.707 30.8218 74.9794 34.3663Z" fill="#55E2EB"/>
<path d="M36.9818 52.8578C45.3181 52.8578 52.076 46.1 52.076 37.7637C52.076 29.4274 45.3181 22.6696 36.9818 22.6696C28.6456 22.6696 21.8877 29.4274 21.8877 37.7637C21.8877 46.1 28.6456 52.8578 36.9818 52.8578Z" fill="#C2FFDB"/>
<path d="M26.4884 37.7637C26.4884 30.2094 32.0375 23.9514 39.2822 22.8437C38.5321 22.729 37.7639 22.6696 36.9818 22.6696C28.6454 22.6696 21.8877 29.4272 21.8877 37.7637C21.8877 46.1001 28.6454 52.8578 36.9818 52.8578C37.7639 52.8578 38.5321 52.7984 39.2822 52.6837C32.0377 51.5758 26.4884 45.3179 26.4884 37.7637Z" fill="#72F0E8"/>
<path d="M11.5865 10.3226C13.9604 10.3226 15.8849 8.39816 15.8849 6.02422C15.8849 3.65029 13.9604 1.72583 11.5865 1.72583C9.21254 1.72583 7.28809 3.65029 7.28809 6.02422C7.28809 8.39816 9.21254 10.3226 11.5865 10.3226Z" fill="#55E2EB"/>
<path d="M10.4114 65.5229C11.9794 65.5229 13.2505 64.2517 13.2505 62.6837C13.2505 61.1157 11.9794 59.8446 10.4114 59.8446C8.84339 59.8446 7.57227 61.1157 7.57227 62.6837C7.57227 64.2517 8.84339 65.5229 10.4114 65.5229Z" fill="#55E2EB"/>
<path d="M62.5393 71.5294C64.8488 71.5294 66.7211 69.6571 66.7211 67.3476C66.7211 65.038 64.8488 63.1657 62.5393 63.1657C60.2297 63.1657 58.3574 65.038 58.3574 67.3476C58.3574 69.6571 60.2297 71.5294 62.5393 71.5294Z" fill="#55E2EB"/>
<path d="M32.3499 37.4998C34.5031 37.4998 36.2487 35.7542 36.2487 33.601C36.2487 31.4478 34.5031 29.7023 32.3499 29.7023C30.1967 29.7023 28.4512 31.4478 28.4512 33.601C28.4512 35.7542 30.1967 37.4998 32.3499 37.4998Z" fill="#55E2EB"/>
<path d="M35.4799 48.3646C36.9455 48.3646 38.1336 47.1765 38.1336 45.7109C38.1336 44.2453 36.9455 43.0572 35.4799 43.0572C34.0143 43.0572 32.8262 44.2453 32.8262 45.7109C32.8262 47.1765 34.0143 48.3646 35.4799 48.3646Z" fill="#55E2EB"/>
<path d="M43.8124 39.9921C45.0431 39.9921 46.0407 38.9944 46.0407 37.7637C46.0407 36.533 45.0431 35.5353 43.8124 35.5353C42.5817 35.5353 41.584 36.533 41.584 37.7637C41.584 38.9944 42.5817 39.9921 43.8124 39.9921Z" fill="#55E2EB"/>
</g>
<defs>
<clipPath id="clip0">
<rect width="75" height="75" fill="white"/>
</clipPath>
</defs>
</svg>
