<svg width="25" height="25" viewBox="0 0 25 25" fill="none" xmlns="http://www.w3.org/2000/svg">
<path d="M12.5031 0H12.4969C5.60469 0 0 5.60625 0 12.5C0 15.2344 0.88125 17.7687 2.37969 19.8266L0.821875 24.4703L5.62656 22.9344C7.60313 24.2438 9.96094 25 12.5031 25C19.3953 25 25 19.3922 25 12.5C25 5.60781 19.3953 0 12.5031 0Z" fill="#4CAF50"/>
<path d="M19.7764 17.6516C19.4748 18.5031 18.2779 19.2094 17.3232 19.4156C16.6701 19.5547 15.817 19.6656 12.9451 18.475C9.27168 16.9531 6.90605 13.2203 6.72168 12.9781C6.54512 12.7359 5.2373 11.0016 5.2373 9.20782C5.2373 7.41407 6.14824 6.54063 6.51543 6.16563C6.81699 5.85782 7.31543 5.71719 7.79355 5.71719C7.94824 5.71719 8.0873 5.72501 8.2123 5.73126C8.57949 5.74688 8.76387 5.76876 9.00605 6.34844C9.30762 7.07501 10.042 8.86875 10.1295 9.05313C10.2186 9.2375 10.3076 9.4875 10.1826 9.72969C10.0654 9.97969 9.9623 10.0906 9.77793 10.3031C9.59355 10.5156 9.41855 10.6781 9.23418 10.9063C9.06543 11.1047 8.8748 11.3172 9.0873 11.6844C9.2998 12.0438 10.0342 13.2422 11.1154 14.2047C12.5107 15.4469 13.642 15.8438 14.0467 16.0125C14.3482 16.1375 14.7076 16.1078 14.9279 15.8734C15.2076 15.5719 15.5529 15.0719 15.9045 14.5797C16.1545 14.2266 16.4701 14.1828 16.8014 14.3078C17.1389 14.425 18.9248 15.3078 19.292 15.4906C19.6592 15.675 19.9014 15.7625 19.9904 15.9172C20.0779 16.0719 20.0779 16.7984 19.7764 17.6516Z" fill="#FAFAFA"/>
</svg>
